<svg xmlns="http://www.w3.org/2000/svg" xmlns:xlink="http://www.w3.org/1999/xlink" width="352" height="87" viewBox="0 0 352 87">
  <defs>
    <clipPath id="clip-logo-neu-weiss">
      <rect width="352" height="87"/>
    </clipPath>
  </defs>
  <g id="logo-neu-weiss" clip-path="url(#clip-logo-neu-weiss)">
    <path id="Pfad_19" data-name="Pfad 19" d="M34.1,52.12c-6.08,0-10.4,3.68-13.68,8.24V52.28H20.1L12.34,55v.48c2.72.48,4.08,2.4,4.08,7.52v41.92c0,5.12-.24,7.84-3.52,7.84v.48H23.94v-.48c-3.28,0-3.52-2.72-3.52-7.84V92.36a18.72,18.72,0,0,0,10.96,3.6c10.56,0,18.88-9.12,18.88-22.48C50.26,61.24,43.7,52.12,34.1,52.12ZM31.7,94.84c-6.88,0-11.28-5.28-11.28-12.32V61.4c2.8-3.44,6.48-6.4,11.44-6.4,9.12,0,14.08,9.52,14.08,19.92C45.94,85.4,40.9,94.84,31.7,94.84Zm53.44-4a4.475,4.475,0,0,1-3.36,1.92c-2.56,0-2.72-2.88-2.72-6.08V64.44c0-7.04-3.28-12.32-10.64-12.32-9.28,0-13.12,8.24-14.08,11.44l.48.24c2.64-5.04,6.48-8.88,11.92-8.88,8.32,0,8.32,8.96,8.32,11.28v6.96L67.3,75.32c-9.76,2.8-14.24,6.72-14.24,12.32,0,4.88,3.84,8.32,9.28,8.32,4.48,0,9.28-2.72,12.88-6.96.08,2.96.72,6.96,4.16,6.96,2.64,0,4.96-2.4,6.24-4.8ZM64.58,93.08c-4.24,0-7.12-2.8-7.12-6.88,0-4.64,2.48-7.2,10.64-9.76l6.96-2.16v14C72.66,90.36,68.5,93.08,64.58,93.08Zm26.8-48.32a3.52,3.52,0,1,0-3.52-3.52A3.551,3.551,0,0,0,91.38,44.76Zm-9.84,68.48c8.32-1.52,12.96-7.44,12.96-16.4V52.28h-.32L86.42,55v.48c2.72.48,4.08,2.4,4.08,7.52V97.8c0,8-2.16,13.2-9.04,14.96Zm51.04-60.96h-.32l-7.92,1.12v.48c2.72.48,4.24,1.28,4.24,6.4v26.8c-3.92,3.36-8.16,5.68-12.56,5.68-5.44,0-8.16-3.52-8.16-10.24V52.28h-.32L99.62,53.4v.48c2.72.48,4.24,1.28,4.24,6.4v23.2c0,8.16,3.92,12.48,10,12.48,5.44,0,10.4-3.52,14.8-8.16l.88,8.16h.32l6.8-2.08V93.4c-2.88-.64-4.08-2.24-4.08-7.36Zm25.12-.16c-4,0-7.36,3.68-10.64,8.72V52.28h-.32L138.98,55v.48c2.72.48,4.08,2.4,4.08,7.52V86.68c0,5.12-.24,7.84-3.52,7.84V95h11.04v-.48c-3.28,0-3.52-2.72-3.52-7.84V62.12c2.32-3.68,4.8-5.52,7.68-5.52a10.5,10.5,0,0,1,4.32,1.12h.48l1.2-4.96A7.966,7.966,0,0,0,157.7,52.12Zm34.8,38.72a4.475,4.475,0,0,1-3.36,1.92c-2.56,0-2.72-2.88-2.72-6.08V64.44c0-7.04-3.28-12.32-10.64-12.32-9.28,0-13.12,8.24-14.08,11.44l.48.24c2.64-5.04,6.48-8.88,11.92-8.88,8.32,0,8.32,8.96,8.32,11.28v6.96l-7.76,2.16c-9.76,2.8-14.24,6.72-14.24,12.32,0,4.88,3.84,8.32,9.28,8.32,4.48,0,9.28-2.72,12.88-6.96.08,2.96.72,6.96,4.16,6.96,2.64,0,4.96-2.4,6.24-4.8Zm-20.56,2.24c-4.24,0-7.12-2.8-7.12-6.88,0-4.64,2.48-7.2,10.64-9.76l6.96-2.16v14C180.02,90.36,175.86,93.08,171.94,93.08ZM249.46,64.6c0-8.16-3.92-12.48-10-12.48-5.44,0-9.92,3.52-14.16,8.24-1.2-5.44-4.72-8.24-9.6-8.24-5.36,0-9.6,3.52-13.76,8.08V52.28h-.32L193.86,55v.48c2.72.48,4.08,2.4,4.08,7.52V86.68c0,5.12-.24,7.84-3.52,7.84V95h11.04v-.48c-3.28,0-3.52-2.72-3.52-7.84V61c3.84-3.36,7.2-5.52,11.6-5.52q8.16,0,8.16,10.08V86.68c0,5.12-.24,7.84-3.52,7.84V95h11.04v-.48c-3.28,0-3.52-2.72-3.52-7.84V64.6a24.344,24.344,0,0,0-.24-3.52c3.92-3.36,7.44-5.6,11.84-5.6q8.16,0,8.16,10.08V86.68c0,5.12-.24,7.84-3.52,7.84V95h11.04v-.48c-3.28,0-3.52-2.72-3.52-7.84Zm38,26.24a4.476,4.476,0,0,1-3.36,1.92c-2.56,0-2.72-2.88-2.72-6.08V64.44c0-7.04-3.28-12.32-10.64-12.32-9.28,0-13.12,8.24-14.08,11.44l.48.24c2.64-5.04,6.48-8.88,11.92-8.88,8.32,0,8.32,8.96,8.32,11.28v6.96l-7.76,2.16c-9.76,2.8-14.24,6.72-14.24,12.32,0,4.88,3.84,8.32,9.28,8.32,4.48,0,9.28-2.72,12.88-6.96.08,2.96.72,6.96,4.16,6.96,2.64,0,4.96-2.4,6.24-4.8ZM266.9,93.08c-4.24,0-7.12-2.8-7.12-6.88,0-4.64,2.48-7.2,10.64-9.76l6.96-2.16v14C274.98,90.36,270.82,93.08,266.9,93.08Z" transform="translate(-11 -37)" fill="#fff"/>
    <path id="Pfad_144" data-name="Pfad 144" d="M16.781,25a.644.644,0,0,1-.5-.19.6.6,0,0,1-.022-.828.569.569,0,0,1,.461-.183h2.52V9.15l-2.49.352a.325.325,0,0,1-.1.015.541.541,0,0,1-.447-.19.659.659,0,0,1-.154-.425.673.673,0,0,1,.117-.381.469.469,0,0,1,.352-.205L19.945,7.7a.46.46,0,0,0,.073-.007.631.631,0,0,1,.1-.007q.527,0,.527.469v11l5.61-4.292H24.75a.569.569,0,0,1-.461-.183.631.631,0,0,1,.015-.842.64.64,0,0,1,.505-.19h4.644a.517.517,0,0,1,.461.205.815.815,0,0,1,.139.469.528.528,0,0,1-.168.366.555.555,0,0,1-.417.176h-1.3l-4.644,3.6,5,5.332h1.274a.52.52,0,0,1,.439.19.66.66,0,0,1,.146.41.65.65,0,0,1-.146.417.529.529,0,0,1-.439.183H25.2a.558.558,0,0,1-.461-.19.641.641,0,0,1-.154-.41.6.6,0,0,1,.168-.417.653.653,0,0,1,.505-.183h1.611l-4.38-4.658-1.846,1.348V23.8h1.04a.5.5,0,0,1,.432.19.682.682,0,0,1,.139.41.65.65,0,0,1-.146.417.529.529,0,0,1-.439.183ZM35.9,25a.64.64,0,0,1-.505-.19.626.626,0,0,1-.168-.425.612.612,0,0,1,.154-.4.569.569,0,0,1,.461-.183H38.52V14.614l-1.787.366a.781.781,0,0,1-.176.015.529.529,0,0,1-.439-.183.63.63,0,0,1-.146-.4.505.505,0,0,1,.439-.557l2.5-.5a1.674,1.674,0,0,1,.337-.044q.352,0,.447.227a1.736,1.736,0,0,1,.11.593l.059,1.523a5.256,5.256,0,0,1,2.183-1.882,8.159,8.159,0,0,1,3.56-.681,1.654,1.654,0,0,1,1.011.227.793.793,0,0,1,.278.652v2.021a.8.8,0,0,1-.22.615.7.7,0,0,1-1.187-.557V14.292a7.819,7.819,0,0,0-3.42.74,4.123,4.123,0,0,0-2.146,2.263v6.5h4.922a.529.529,0,0,1,.439.183.65.65,0,0,1,.146.417.641.641,0,0,1-.154.41.541.541,0,0,1-.447.19Zm24.023.249a7.708,7.708,0,0,1-3.45-.74,5.536,5.536,0,0,1-2.344-2.131,6.331,6.331,0,0,1-.842-3.34,5.661,5.661,0,0,1,.886-3.208,5.754,5.754,0,0,1,2.358-2.036,7.4,7.4,0,0,1,3.23-.7,5.711,5.711,0,0,1,3.772,1.245,4.467,4.467,0,0,1,1.5,3.647,1.364,1.364,0,0,1-.308.908,1.017,1.017,0,0,1-.82.366H54.691A4.61,4.61,0,0,0,56.2,22.847a5.424,5.424,0,0,0,3.6,1.2,6.128,6.128,0,0,0,2.139-.4,5.578,5.578,0,0,0,1.919-1.2.964.964,0,0,1,.6-.249.529.529,0,0,1,.425.19.68.68,0,0,1,.161.454.911.911,0,0,1-.264.615,4.389,4.389,0,0,1-1.392.981,8.582,8.582,0,0,1-1.78.6A7.92,7.92,0,0,1,59.921,25.249Zm-5.186-7.061h9.053a7.593,7.593,0,0,0-.176-1.208,3.831,3.831,0,0,0-.549-1.282,2.978,2.978,0,0,0-1.187-1.011,4.662,4.662,0,0,0-2.087-.4A5.561,5.561,0,0,0,56.325,15.3,4.191,4.191,0,0,0,54.735,18.188Zm20.8,7.046a3.492,3.492,0,0,1-2.571-.908,3.233,3.233,0,0,1-.916-2.4,2.83,2.83,0,0,1,.725-2.08,4.214,4.214,0,0,1,1.919-1.062,14.279,14.279,0,0,1,2.651-.447q1.458-.117,2.922-.22v-.293a4.721,4.721,0,0,0-.615-2.563,2.584,2.584,0,0,0-2.358-.967,7.8,7.8,0,0,0-3.237.659,7.219,7.219,0,0,1-.249,1.648q-.19.623-.718.623a.753.753,0,0,1-.667-.308,1.283,1.283,0,0,1-.212-.747,2.546,2.546,0,0,1,1.414-2.212,6.986,6.986,0,0,1,3.684-.864A4.7,4.7,0,0,1,80,13.743a3.36,3.36,0,0,1,1.311,1.86,10.049,10.049,0,0,1,.366,2.893v4.57q0,.571.242.725a.951.951,0,0,0,.52.154,1.681,1.681,0,0,0,.835-.242,2.753,2.753,0,0,0,.645-.476.473.473,0,0,1,.352-.176.485.485,0,0,1,.381.19.641.641,0,0,1,.161.425.5.5,0,0,1-.146.366,3.57,3.57,0,0,1-1.062.776,2.916,2.916,0,0,1-1.282.293,2.471,2.471,0,0,1-1.187-.308,1.891,1.891,0,0,1-.762-1.45,5.564,5.564,0,0,1-1.948,1.326A7.061,7.061,0,0,1,75.536,25.234Zm.161-1.187a6.839,6.839,0,0,0,2.542-.491,5.573,5.573,0,0,0,2.029-1.326V19.126q-2.109.205-3.633.417a5.971,5.971,0,0,0-2.344.732,1.808,1.808,0,0,0-.82,1.648,1.918,1.918,0,0,0,.645,1.648A2.589,2.589,0,0,0,75.7,24.048Zm20.581,1.2a4.675,4.675,0,0,1-1.875-.374,3.652,3.652,0,0,1-1.384-1,2.071,2.071,0,0,1-.52-1.355V14.863H90.4a.627.627,0,0,1-.505-.2.653.653,0,0,1-.168-.432.566.566,0,0,1,.615-.571H92.5a29.847,29.847,0,0,1,.117-3.259q.117-.9.762-.9.366,0,.447.2a1.217,1.217,0,0,1,.081.461v3.5h5.449a.5.5,0,0,1,.432.19.682.682,0,0,1,.139.41.65.65,0,0,1-.146.417.529.529,0,0,1-.439.183H93.905v7.148a1.7,1.7,0,0,0,.747,1.575,3.305,3.305,0,0,0,1.772.461,6.877,6.877,0,0,0,2.153-.366,6.094,6.094,0,0,0,1.787-.879.218.218,0,0,1,.161-.059.559.559,0,0,1,.41.249.785.785,0,0,1,.205.5.371.371,0,0,1-.073.22,3.133,3.133,0,0,1-1.04.71,8.587,8.587,0,0,1-1.736.593A8.7,8.7,0,0,1,96.278,25.249Zm18.53-14.985a1.182,1.182,0,0,1-.857-.352,1.146,1.146,0,0,1-.359-.85,1.163,1.163,0,0,1,.359-.864,1.182,1.182,0,0,1,.857-.352,1.151,1.151,0,0,1,.857.352,1.188,1.188,0,0,1,.344.864,1.17,1.17,0,0,1-.344.85A1.151,1.151,0,0,1,114.809,10.264ZM108.993,25a.627.627,0,0,1-.505-.2.653.653,0,0,1-.168-.432.566.566,0,0,1,.615-.571h5.449V14.468l-4.878.659a.162.162,0,0,0-.051.007.162.162,0,0,1-.051.007.541.541,0,0,1-.447-.19.659.659,0,0,1-.154-.425.673.673,0,0,1,.117-.381.469.469,0,0,1,.352-.205l5.83-.806a.59.59,0,0,1,.161-.015q.527,0,.527.469V23.8h4.878a.52.52,0,0,1,.439.19.66.66,0,0,1,.146.41.631.631,0,0,1-.154.417.551.551,0,0,1-.447.183Zm23.32.205a1.053,1.053,0,0,1-.564-.168,2.179,2.179,0,0,1-.608-.9l-4.307-9.272h-1.479a.546.546,0,0,1-.491-.19.736.736,0,0,1-.125-.41.7.7,0,0,1,.132-.417.638.638,0,0,1,.542-.183h4.614q.366,0,.469.19a.882.882,0,0,1,.1.425.81.81,0,0,1-.1.4q-.1.183-.454.183h-1.6l3.911,8.789,3.574-8.789h-1.245q-.366,0-.469-.183a.81.81,0,0,1-.1-.4.835.835,0,0,1,.11-.425q.11-.19.476-.19h3.823q.425,0,.549.183a.725.725,0,0,1,.125.417.769.769,0,0,1-.117.41.544.544,0,0,1-.5.19h-1.3l-3.911,9.346a1.942,1.942,0,0,1-.52.835A.943.943,0,0,1,132.313,25.205Zm15.879.029a3.492,3.492,0,0,1-2.571-.908,3.233,3.233,0,0,1-.916-2.4,2.83,2.83,0,0,1,.725-2.08,4.214,4.214,0,0,1,1.919-1.062A14.279,14.279,0,0,1,150,18.335q1.458-.117,2.922-.22v-.293a4.721,4.721,0,0,0-.615-2.563,2.584,2.584,0,0,0-2.358-.967,7.8,7.8,0,0,0-3.237.659,7.219,7.219,0,0,1-.249,1.648q-.19.623-.718.623a.753.753,0,0,1-.667-.308,1.283,1.283,0,0,1-.212-.747,2.546,2.546,0,0,1,1.414-2.212,6.986,6.986,0,0,1,3.684-.864,4.7,4.7,0,0,1,2.688.652,3.36,3.36,0,0,1,1.311,1.86,10.049,10.049,0,0,1,.366,2.893v4.57q0,.571.242.725a.951.951,0,0,0,.52.154,1.681,1.681,0,0,0,.835-.242,2.753,2.753,0,0,0,.645-.476.473.473,0,0,1,.352-.176.485.485,0,0,1,.381.19.641.641,0,0,1,.161.425.5.5,0,0,1-.146.366,3.57,3.57,0,0,1-1.062.776,2.916,2.916,0,0,1-1.282.293,2.471,2.471,0,0,1-1.187-.308,1.891,1.891,0,0,1-.762-1.45,5.564,5.564,0,0,1-1.948,1.326A7.061,7.061,0,0,1,148.192,25.234Zm.161-1.187a6.839,6.839,0,0,0,2.542-.491,5.573,5.573,0,0,0,2.029-1.326V19.126q-2.109.205-3.633.417a5.971,5.971,0,0,0-2.344.732,1.808,1.808,0,0,0-.82,1.648,1.918,1.918,0,0,0,.645,1.648A2.589,2.589,0,0,0,148.354,24.048Zm19.38,6.079a8.973,8.973,0,0,1-2.183-.256,3.474,3.474,0,0,1-1.67-.908,2.461,2.461,0,0,1-.645-1.809,3.28,3.28,0,0,1,1.743-3,3.025,3.025,0,0,1-1.018-.754,1.673,1.673,0,0,1-.359-1.106,1.62,1.62,0,0,1,.366-1.033,3.215,3.215,0,0,1,.864-.762,2.27,2.27,0,0,1,.894-.344,5.51,5.51,0,0,1-1.831-1.157,2.676,2.676,0,0,1-.688-1.978,3.577,3.577,0,0,1,.659-2.219,3.886,3.886,0,0,1,1.736-1.289,6.408,6.408,0,0,1,2.336-.417,6.284,6.284,0,0,1,1.882.286,4.673,4.673,0,0,1,1.619.872l2.227-1.479a3.88,3.88,0,0,1,.959-.476,2.758,2.758,0,0,1,.813-.139.8.8,0,0,1,.688.234.886.886,0,0,1,.161.513q0,.308-.425.527a3.658,3.658,0,0,1-1.523.22l-2.476,1.084a3.982,3.982,0,0,1,.615,1.084,3.6,3.6,0,0,1,.22,1.274,3.219,3.219,0,0,1-1.245,2.827,6.366,6.366,0,0,1-3.677.879,4.311,4.311,0,0,0-1.948.41q-.82.41-.82,1.011a1.109,1.109,0,0,0,.374.835,2.962,2.962,0,0,0,1.809.352h1.362a13.881,13.881,0,0,1,2.805.242,2.683,2.683,0,0,1,2.366,3.025,2.478,2.478,0,0,1-.879,1.963,5.574,5.574,0,0,1-2.249,1.128A11.041,11.041,0,0,1,167.733,30.127Zm.088-10.415a6.472,6.472,0,0,0,1.685-.212,2.582,2.582,0,0,0,1.289-.769,2.247,2.247,0,0,0,.5-1.553,2.443,2.443,0,0,0-1.018-2.241,4.328,4.328,0,0,0-2.366-.645,4.111,4.111,0,0,0-2.322.645,2.357,2.357,0,0,0-.974,2.124,2.273,2.273,0,0,0,.938,1.992A3.847,3.847,0,0,0,167.821,19.712Zm-.117,9.214a11.181,11.181,0,0,0,2.109-.205,4.863,4.863,0,0,0,1.787-.681,1.493,1.493,0,0,0,.718-1.311,1.909,1.909,0,0,0-.8-1.809,6.407,6.407,0,0,0-2.922-.461h-2.7a1.354,1.354,0,0,0-.571.505,4.089,4.089,0,0,0-.491.9,2.515,2.515,0,0,0-.2.923,1.771,1.771,0,0,0,.784,1.707A4.812,4.812,0,0,0,167.7,28.926Zm19.365-3.677a7.708,7.708,0,0,1-3.45-.74,5.536,5.536,0,0,1-2.344-2.131,6.331,6.331,0,0,1-.842-3.34,5.661,5.661,0,0,1,.886-3.208,5.754,5.754,0,0,1,2.358-2.036,7.4,7.4,0,0,1,3.23-.7,5.711,5.711,0,0,1,3.772,1.245,4.467,4.467,0,0,1,1.5,3.647,1.364,1.364,0,0,1-.308.908,1.017,1.017,0,0,1-.82.366H181.84a4.61,4.61,0,0,0,1.509,3.589,5.424,5.424,0,0,0,3.6,1.2,6.128,6.128,0,0,0,2.139-.4,5.578,5.578,0,0,0,1.919-1.2.964.964,0,0,1,.6-.249.529.529,0,0,1,.425.19.68.68,0,0,1,.161.454.911.911,0,0,1-.264.615,4.389,4.389,0,0,1-1.392.981,8.582,8.582,0,0,1-1.78.6A7.92,7.92,0,0,1,187.069,25.249Zm-5.186-7.061h9.053a7.593,7.593,0,0,0-.176-1.208,3.831,3.831,0,0,0-.549-1.282,2.978,2.978,0,0,0-1.187-1.011,4.662,4.662,0,0,0-2.087-.4,5.561,5.561,0,0,0-3.464,1.011A4.191,4.191,0,0,0,181.884,18.188ZM198.334,25a.627.627,0,0,1-.505-.2.653.653,0,0,1-.168-.432.566.566,0,0,1,.615-.571h1.582V14.614l-1.582.322a1.015,1.015,0,0,1-.293.044.537.537,0,0,1-.417-.168.559.559,0,0,1-.154-.388.7.7,0,0,1,.11-.359.547.547,0,0,1,.374-.242l2.4-.483a2.507,2.507,0,0,1,.264-.029.521.521,0,0,1,.571.571l.073,1.758a4.462,4.462,0,0,1,1.853-1.816,5.636,5.636,0,0,1,2.82-.732A4.03,4.03,0,0,1,209,14.182a4.3,4.3,0,0,1,1,3.01V23.8h1.6a.529.529,0,0,1,.439.183.63.63,0,0,1,.146.4.659.659,0,0,1-.154.425.558.558,0,0,1-.461.19h-5.054a.627.627,0,0,1-.505-.2.653.653,0,0,1-.168-.432.566.566,0,0,1,.615-.571h2.139V17.09a3.014,3.014,0,0,0-.652-2.051,2.5,2.5,0,0,0-1.985-.747,5.437,5.437,0,0,0-2.461.527,4.6,4.6,0,0,0-1.641,1.3,2.508,2.508,0,0,0-.586,1.516V23.8H202.8a.7.7,0,0,1,.527.183.571.571,0,0,1,.176.4.6.6,0,0,1-.183.425.729.729,0,0,1-.549.19Zm25.093.249a4.675,4.675,0,0,1-1.875-.374,3.652,3.652,0,0,1-1.384-1,2.071,2.071,0,0,1-.52-1.355V14.863h-2.095a.627.627,0,0,1-.505-.2.653.653,0,0,1-.168-.432.566.566,0,0,1,.615-.571h2.153a29.847,29.847,0,0,1,.117-3.259q.117-.9.762-.9.366,0,.447.2a1.217,1.217,0,0,1,.081.461v3.5H226.5a.5.5,0,0,1,.432.19.682.682,0,0,1,.139.41.65.65,0,0,1-.146.417.529.529,0,0,1-.439.183h-5.435v7.148a1.7,1.7,0,0,0,.747,1.575,3.305,3.305,0,0,0,1.772.461,6.877,6.877,0,0,0,2.153-.366,6.094,6.094,0,0,0,1.787-.879.218.218,0,0,1,.161-.059.559.559,0,0,1,.41.249.785.785,0,0,1,.205.5.371.371,0,0,1-.073.22,3.133,3.133,0,0,1-1.04.71,8.587,8.587,0,0,1-1.736.593A8.7,8.7,0,0,1,223.427,25.249Zm16.611,0a4.216,4.216,0,0,1-3.142-1.135,4.021,4.021,0,0,1-1.121-2.952v-6.5l-1.494.293a.666.666,0,0,1-.659-.139.69.69,0,0,1-.205-.461q0-.454.527-.557l2.563-.513a.494.494,0,0,1,.674.469v7.456a2.991,2.991,0,0,0,.7,2.029,2.714,2.714,0,0,0,2.168.813,5.221,5.221,0,0,0,1.765-.322,6.163,6.163,0,0,0,1.633-.872,3.328,3.328,0,0,0,1.055-1.238V14.658L243,14.966a.662.662,0,0,1-.652-.139.679.679,0,0,1-.212-.461q0-.469.557-.571l2.637-.527a.43.43,0,0,1,.439.11.556.556,0,0,1,.146.374v10l2.256-.161a.576.576,0,0,1,.447.154.518.518,0,0,1,.139.359.726.726,0,0,1-.139.41.545.545,0,0,1-.417.234l-2.827.293q-.645,0-.688-.732l-.073-1.274a4.826,4.826,0,0,1-1.9,1.575A5.873,5.873,0,0,1,240.038,25.249ZM253.866,25a.64.64,0,0,1-.505-.19.626.626,0,0,1-.168-.425.612.612,0,0,1,.154-.4.569.569,0,0,1,.461-.183h2.681V14.614l-1.787.366a.781.781,0,0,1-.176.015.529.529,0,0,1-.439-.183.63.63,0,0,1-.146-.4.505.505,0,0,1,.439-.557l2.5-.5a1.674,1.674,0,0,1,.337-.044q.352,0,.447.227a1.736,1.736,0,0,1,.11.593l.059,1.523a5.256,5.256,0,0,1,2.183-1.882,8.159,8.159,0,0,1,3.56-.681,1.654,1.654,0,0,1,1.011.227.793.793,0,0,1,.278.652v2.021a.8.8,0,0,1-.22.615.7.7,0,0,1-1.187-.557V14.292a7.819,7.819,0,0,0-3.42.74,4.123,4.123,0,0,0-2.146,2.263v6.5h4.922a.529.529,0,0,1,.439.183.65.65,0,0,1,.146.417.641.641,0,0,1-.154.41.541.541,0,0,1-.447.19Z" transform="translate(84 56)" fill="#fff"/>
  </g>
</svg>
