<?xml version="1.0" encoding="UTF-8"?>
<svg id="Ebene_5" data-name="Ebene 5" xmlns="http://www.w3.org/2000/svg" viewBox="0 0 374.6 57.2534">
  <defs>
    <style>
      .cls-1 {
        fill: #4b2b15;
      }
    </style>
  </defs>
  <g>
    <path class="cls-1" d="M.0013,29.1593C.0506,24.4229.0013,11.547.0013,4.838.0013-.5898,2.5179.1505,6.12.1505h15.9351c5.3784,0,9.0273,3.4541,8.978,10.7549-.0493,7.8428-4.6875,10.2607-13.0239,10.2607-4.8848,0-7.2017.4443-7.2017,7.1025,0,5.7734.5918,6.4619-5.1318,6.4619C1.284,34.7306-.048,35.4708.0013,29.1554v.0039ZM21.9539,11.1026c-.0493-2.9609-2.8618-3.7012-6.3628-3.7012-3.5527.0498-5.6743.79-5.7236,3.7012-.1479,2.96,2.4673,3.207,5.8223,3.207,3.1582,0,6.1187-.2471,6.2666-3.207h-.0024Z"/>
    <path class="cls-1" d="M61.8778,12.2374c3.207,8.6328,3.1084,8.04,6.9053,19.4854,1.1353,3.0107-.8882,3.0107-4.2432,3.0107-5.4771,0-4.0464.3447-7.0044-5.4775-.5923-1.6279-3.4048-1.7764-6.4619-1.7764s-5.8716.1484-6.4614,1.7764c-2.9604,5.8223-1.5298,5.4775-7.0044,5.4775-3.355,0-5.3784,0-4.2432-3.0107,3.7993-11.4453,3.7007-10.8525,6.9053-19.4854C45.5472-1.2802,43.327.2989,51.0736.2989s5.5269-1.5791,10.8042,11.9385ZM54.6244,18.502c-1.3325-5.3789-1.5298-6.709-3.5527-6.709s-2.2207,1.332-3.5527,6.709c-.395,1.5781,1.875,1.6768,3.5527,1.6768s3.9473-.0986,3.5527-1.6768Z"/>
    <path class="cls-1" d="M97.5418.2491c2.5166,0,3.2075,1.0859,3.2568,3.4053.1479,6.4121.8389,12.1846-.0493,18.6982-.9375,6.9551-5.5757,12.7285-13.0737,12.7285-8.1392,0-12.3335-6.168-13.3203-11.3467-.4932-2.5664,1.6284-2.8623,3.6021-2.9111,2.8125-.0986,3.6514.1973,4.5889,1.4795,1.1353,1.5303,1.2832,3.0596,4.2437,3.3555,5.3291.543,5.7729-6.9551,5.3291-12.9746-.1479-1.8252-.8882-3.3057-2.7139-3.3057l-10.5078-.2471c-2.6152,0-3.2563-.9375-2.9604-4.9834.2466-3.4043.2466-3.8984,2.9111-3.8984h18.6938Z"/>
    <path class="cls-1" d="M118.7708,5.4308c-.0493,14.6523.8882,19.1396,6.2173,19.1895,5.7236-.0498,6.3628-4.5889,6.2173-19.1406-.0493-5.082.9375-5.1318,4.9341-5.1318,3.4048,0,4.5889.0498,4.5889,5.1318,0,8.5342.7896,16.9717-2.4668,22.5947-3.2075,5.5264-7.7939,7.1025-13.271,7.1025s-10.0635-1.6279-13.271-7.1523c-3.2568-5.625-2.418-14.0605-2.418-22.5938,0-5.083,1.1353-5.1318,4.5396-5.1318,3.9971,0,4.9346.0488,4.9346,5.1318h-.0049Z"/>
    <path class="cls-1" d="M149.5116,29.1593c.0493-4.7363,0-17.6123,0-24.3213,0-5.4277,2.5166-4.6875,6.1187-4.6875h15.9355c5.3784,0,9.0273,3.4541,8.978,10.7549-.0493,4.2432-2.0723,6.5596-4.9346,8.3359-1.2334.7402-1.2334,2.0234-.7891,2.8623.8882,1.7266,6.4121,8.9785,6.8066,10.458.395,1.5303-1.7271,2.1719-4.4902,2.1719-3.6514,0-4.7368-.1484-5.8223-1.7275l-4.5396-7.0537c-1.5298-2.0723-3.2075-4.3418-5.4771-3.7002-1.1841.3447-.9868,3.7002-.9868,6.0195,0,5.7734.5918,6.4619-5.1318,6.4619-4.3916,0-5.7236.7393-5.6743-5.5762l.0068.002ZM171.3187,11.1026c-.0493-2.8125-2.7632-3.5527-6.1675-3.5527-3.5034.0986-5.5757.7402-5.6255,3.5527-.1479,2.8125,2.418,3.0596,5.6748,3.0596,3.0591,0,5.9702-.2471,6.1182-3.0596Z"/>
    <path class="cls-1" d="M215.7718,12.2374c3.207,8.6328,3.1084,8.04,6.9053,19.4854,1.1353,3.0107-.8882,3.0107-4.2432,3.0107-5.4771,0-4.0464.3447-7.0044-5.4775-.5923-1.6279-3.4048-1.7764-6.4614-1.7764s-5.8721.1484-6.4619,1.7764c-2.9604,5.8223-1.5293,5.4775-7.0044,5.4775-3.355,0-5.3784,0-4.2432-3.0107,3.7993-11.4453,3.7007-10.8525,6.9053-19.4854,5.2773-13.5176,3.0571-11.9385,10.8042-11.9385s5.5264-1.5791,10.8037,11.9385ZM208.5184,18.502c-1.3325-5.3789-1.5298-6.709-3.5527-6.709s-2.2207,1.332-3.5527,6.709c-.395,1.5781,1.875,1.6768,3.5527,1.6768s3.9473-.0986,3.5527-1.6768Z"/>
    <path class="cls-1" d="M229.41,29.2579l1.1348-24.3213c.1973-4.6377.8389-4.6875,7.0537-4.6875,5.0332,0,6.3628.0986,7.9419,4.4902,2.3687,6.6592,3.8486,9.916,4.5889,9.916.8389,0,3.0098-5.8721,4.4902-9.916,1.6284-4.3916,3.3555-4.4902,7.9912-4.4902,6.2173,0,6.8071.2959,7.0044,4.6875l1.1348,24.3213c.2466,5.3291-.5923,5.5762-4.5889,5.5762-3.4541.0498-4.5396-.1484-4.7368-5.2793-.0493-1.4805-.0493-5.3291-.2466-8.2881-.0991-1.5293,0-2.8125-1.0366-2.7627-1.2827.0488-3.1084,5.7236-5.3779,11.1982-1.5791,3.75-2.3193,4.5889-4.5894,4.5889-2.3188,0-3.3057-1.2832-4.8848-4.8848-2.5659-5.8721-3.9473-10.8535-5.2305-10.9023-1.0361-.0498-1.1348,1.1846-1.2334,2.7139-.1479,2.9609-.0493,6.8564-.0986,8.3369-.1973,5.1309-1.2832,5.3291-4.7368,5.2793-3.9971,0-4.8359-.2471-4.5889-5.5762h.0093Z"/>
    <path class="cls-1" d="M305.9876,12.2374c3.207,8.6328,3.1084,8.04,6.9053,19.4854,1.1353,3.0107-.8882,3.0107-4.2432,3.0107-5.4771,0-4.0464.3447-7.0044-5.4775-.5923-1.6279-3.4048-1.7764-6.4614-1.7764s-5.8721.1484-6.4619,1.7764c-2.9604,5.8223-1.5293,5.4775-7.0044,5.4775-3.355,0-5.3784,0-4.2432-3.0107,3.7993-11.4453,3.7007-10.8525,6.9053-19.4854,5.2773-13.5176,3.0571-11.9385,10.8042-11.9385s5.5264-1.5791,10.8037,11.9385ZM298.7342,18.502c-1.3325-5.3789-1.5298-6.709-3.5527-6.709s-2.2207,1.332-3.5527,6.709c-.395,1.5781,1.875,1.6768,3.5527,1.6768s3.9473-.0986,3.5527-1.6768Z"/>
  </g>
  <g>
    <g>
      <path class="cls-1" d="M97.7456,55.6287c-.012.0578-.0289.1385-.053.2421-.0795.2758-.1373.4636-.1734.5612-.0337.0975-.1036.1927-.2071.2842-.1036.0927-.2216.1445-.3516.1553-.1325.012-.3492.0241-.6479.0349-.4841.0229-.843-.0783-1.079-.3023s-.4239-.5552-.5612-.9923c-.7707-2.4518-1.1994-3.7777-1.2861-3.98-.0867-.2011-.236-.3251-.4504-.3709-.2119-.0458-.4287.0458-.6455.277-.2433.3336-.4215.696-.5371,1.0874-.1132.3215-.3251.8719-.6286,1.6486-.3059.7767-.5226,1.3776-.6479,1.8039-.1734.5407-.5347.8117-1.0886.8117-.46-.012-.92-.0518-1.3801-.1216-.1373-.0229-.2529-.0795-.3444-.1722-.0939-.0915-.1541-.1818-.183-.2673-.0289-.0867-.0602-.2047-.0939-.354-.6334-2.5662-1.433-5.2372-2.3988-8.0106-.1517-.4263-.4167-1.0934-.7948-2.0026-.2529-.6334-.053-.9899.6045-1.0706.2987-.0229.5973-.0289.896-.0169.5539,0,.9056.2987,1.0549.8972.725,3.0275,1.3102,5.0698,1.7606,6.1296.0458.1373.1252.2469.2408.3276s.2481.1204.3974.1204c.2866,0,.5178-.1602.6912-.4829.5058-1.0019,1.0983-2.6698,1.7775-5.0072.1734-.5973.5804-.8851,1.2259-.8622.3805.0108.6479.0747.802.1891.1566.1156.2746.3516.354.7081.2649,1.2319.7779,2.7276,1.5366,4.4882.0698.1614.1493.3119.2433.4492.3107.4263.6142.4203.9128-.0169.2312-.3565.3974-.7478.501-1.1741.0698-.2649.2601-1.0043.5708-2.2182s.5058-1.9653.5877-2.2531c.0096-.0349.0217-.0807.0337-.1385.0337-.1144.0602-.2011.0771-.2589.0169-.0566.0434-.1349.0771-.2324.0361-.0975.0723-.1698.1132-.2156.0409-.047.0939-.1012.1638-.165.0698-.0626.1469-.106.2336-.1289s.1855-.0494.3011-.0783c.1156-.0277.2505-.0397.407-.0337.1541.006.3251.0193.5082.0421.3565.0807.5178.3288.4841.743-.0337.2878-.1036.5756-.2071.8634-.3565.9092-.7225,1.9617-1.0959,3.1587-.3757,1.197-.6455,2.0918-.8117,2.6842-.1662.5937-.4648,1.6667-.8887,3.2201Z"/>
      <path class="cls-1" d="M103.6681,55.2662c-.012-.2421-.0193-1.7317-.0193-4.4713,0-1.1513-.0458-2.7445-.1373-4.782-.012-.4492.0265-.7225.1132-.8201.0843-.0975.3468-.1529.7852-.1638.9441-.0229,2.1845-.0349,3.7187-.0349,1.5366,0,2.777-.006,3.7211-.0169.5178,0,.8695.1012,1.0525.3023.1855.2011.2818.5431.2938,1.0272.012.3336-.0915.5756-.3107.725s-.5058.1951-.8622.1373c-.2529-.0337-.4889-.0602-.7081-.0771s-.4624-.0265-.7346-.0265h-.6045c-.1325,0-.3757.006-.7322.0181-.3565.0108-.5925.0229-.7081.0337-.5515.012-1.1464.0578-1.7775.1385-.2649.0349-.4721.1096-.6214.2252-.1517.1144-.2312.3107-.2433.5865-.0337.5756-.0193.9357.0434,1.079.0626.1445.2673.2854.6142.4227.2408.0927.4961.1469.7683.1638.2697.0181.5925.0145.9658-.0084s.6358-.0337.7852-.0337c.4383,0,.7057.0458.802.1373.0987.0927.1373.3456.1132.7599-.0337.5636-.1204.9068-.2577,1.0272-.1397.1204-.4841.159-1.0381.112-.6792-.0578-1.356-.0337-2.0352.0698-.3685.0566-.5708.2649-.6045.6214,0,.0686-.012.1806-.0361.336-.0217.1553-.0385.2794-.0506.3709-.0241.3914.0578.7141.2408.967.1855.2541.4721.4094.8646.466.3324.0578.7129.0927,1.1392.1036.4239.012.8068.012,1.1464,0,.3396-.0108.7225-.0108,1.1488,0,.3565.0349.7683.0409,1.2355.0181.4648-.0229.8719-.1036,1.2163-.2421.2408-.1036.4359-.0951.5877.0253.1493.1216.2119.3083.1879.5612-.0096.3914-.0795.7659-.2071,1.1223-.0554.2312-.183.4118-.3781.5443-.1975.1325-.4094.1927-.6382.1806-.749,0-1.9268.006-3.5308.0181-1.6065.0108-2.83.0169-3.6681.0169-.289,0-.5106-.006-.6647-.0169-.1566-.012-.3035-.0373-.4408-.0783-.1397-.0397-.236-.0915-.2938-.1553-.0578-.0626-.1108-.1638-.1566-.3023-.0458-.1373-.0723-.2842-.0771-.4395s-.0072-.3721-.0072-.6479Z"/>
      <path class="cls-1" d="M116.5799,53.3154c0-.2987-.0265-1.0152-.0771-2.1496-.053-1.1332-.0795-1.775-.0795-1.9244v-2.7625c0-.5287.1012-.9261.3035-1.191.1999-.2649.5901-.3914,1.1657-.3805.725.012,1.2524.0181,1.5872.0181s.8671-.0024,1.5968-.0084c.7322-.006,1.2644-.0145,1.5968-.0265.2433,0,.4552.012.6382.0349,1.8762.1493,2.7914,1.1681,2.7457,3.0551-.0241.7828-.1951,1.4102-.5178,1.8822-.1156.1963-.1614.3516-.1373.466.0217.1156.1204.236.2938.3625,1.0814.7936,1.5125,1.8762,1.2934,3.2454-.1036.7021-.4432,1.3102-1.0188,1.822s-1.2355.808-1.9846.8887c-1.9918.2071-3.9884.2878-5.9899.2421-.566-.012-.9321-.1012-1.1055-.2685-.1734-.1662-.2649-.5263-.277-1.079-.0217-.6322-.0337-1.374-.0337-2.2266ZM121.3439,54.817c1.4162-.1264,2.17-.1951,2.2616-.2071.6912-.0686,1.1175-.442,1.2789-1.1223.1036-.46.0096-.8767-.277-1.2512-.289-.3733-.696-.5841-1.2259-.6298-1.0236-.0927-2.3651-.0578-4.0222.1036-.5299.0458-.7779.3276-.7418.8454.0578.6912.1036,1.2199.1373,1.5884.0337.3577.2312.5696.5877.6394.3324.0578.9995.0686,2.0014.0337ZM121.0163,49.8977c.183-.012.3516-.0145.501-.0096.1493.006.3203.0036.5082-.0084.1903-.0108.3613-.0337.5106-.0686.4841-.1156.8574-.3601,1.1223-.7334.2649-.3745.3613-.8092.2938-1.3042-.0819-.5058-.3589-.7828-.8285-.8285-.0482,0-.2119-.0145-.4937-.0434-.2818-.0277-.4721-.0458-.5684-.0518-.0987-.0048-.2529-.0145-.4672-.0253-.2119-.012-.4022-.0145-.5684-.0084-.1686.006-.3324.0145-.4937.0253-.2866.0349-.5058.0602-.6551.0783-.1493.0169-.3059.0458-.4672.0855-.1614.0409-.2722.0662-.3348.0783-.065.0108-.1373.0518-.2168.1204-.0795.0698-.1228.124-.1301.1638-.0048.0409-.0193.124-.0434.2505-.0217.1276-.0289.2312-.0169.3107.012.0807.0193.2192.0265.4143.0048.1963.0096.3745.0096.5359.0096.448.2529.7478.725.8972.159.047.3251.0759.4913.0867.1662.012.3709.0169.6118.0169.2433,0,.4046.006.4841.0181Z"/>
    </g>
    <g>
      <path class="cls-1" d="M171.2424,50.7158c.5636.0578,1.1296.0638,1.6932.0169h1.881c.4383,0,.6503.1794.6382.5359,0,.1036.0024.3504.0096.7418.0048.3914.0024.7165-.0096.9754-.0096.2589-.0458.5094-.1036.7514-.1132.5527-.342,1.0525-.6816,1.5017s-.7563.7996-1.25,1.0537c-1.486.8044-3.0106,1.0694-4.5761.7936-1.1272-.1951-2.0978-.6611-2.9094-1.3981s-1.3656-1.6426-1.6643-2.7192c-.3011-1.0766-.3059-2.1953-.0193-3.3574.2649-1.0019.737-1.8738,1.4162-2.6156.6792-.743,1.4499-1.2837,2.3145-1.6233.8622-.3396,1.8064-.454,2.83-.3456,1.0236.1096,1.9846.4757,2.8829,1.0971.289.1951.5467.3854.7779.5696.2746.2071.4287.3998.4576.578s-.0434.4179-.2168.7165c-.0217.0349-.0578.0867-.1036.1553-.2192.2999-.3878.5154-.5082.6479s-.2529.2011-.3974.2071-.2818-.0518-.4143-.1734c-.1325-.1204-.3083-.3191-.5275-.5949-.1493-.1842-.33-.3396-.5443-.466-.2119-.1264-.4022-.2168-.5684-.2685-.1686-.0518-.395-.106-.6816-.1638-1.9798-.4721-3.3454.2481-4.092,2.158-.4263,1.0826-.4769,2.1098-.1566,3.0816.3227.973.9562,1.6956,1.9003,2.1664.9778.4949,2.0303.5299,3.1599.1036.2625-.0915.4889-.2529.672-.4829.2649-.3565.3276-.6732.1903-.9501-.0698-.1602-.1903-.2553-.3637-.2842-.171-.0289-.3324-.0205-.4817.0253-.0241,0-.0867.0096-.1903.0265s-.1758.0253-.2168.0253c-.0385,0-.1036.0036-.1903.0096-.0843.0048-.1541,0-.2071-.0181-.0506-.0169-.1084-.0373-.171-.0602-.065-.0229-.118-.0602-.1638-.112s-.0867-.112-.1228-.1818c-.2408-.448-.2288-1.0645.0361-1.8473.0674-.2071.2938-.2987.672-.2758Z"/>
      <path class="cls-1" d="M178.186,52.3391c0-.1385-.0072-.5503-.0193-1.2343-.0096-.6852-.0169-1.0971-.0169-1.2343v-3.8162c.012-.4371.0723-.7105.1806-.8201.1108-.1084.3902-.1638.8381-.1638.6912-.0108,1.6956-.0193,3.013-.0253s2.0568-.0096,2.2182-.0096c.448.012.8911.0578,1.3295.1385,1.4258.2421,2.2953,1.0128,2.606,2.3133.289,1.2428-.1156,2.3651-1.2066,3.367-.1975.1614-.4046.3047-.6214.4311-.3131.2071-.4865.395-.5275.5612-.0409.1674.0313.4179.2144.7514.2312.4022.5684.9923,1.0116,1.769s.7683,1.3499.9754,1.7184c.2071.4022.2794.6527.2144.7502-.0626.0975-.3251.1698-.7852.2156-.6792.0807-1.2115.0241-1.5968-.1722-.3854-.1951-.6696-.6214-.855-1.2777-.2408-.8863-.7298-1.8533-1.4668-2.8998-.277-.4034-.696-.6647-1.2596-.7864-.5636-.1204-1.0525-.0602-1.4668.1818-.2071.1264-.33.3396-.3637.6382-.0241.277-.0434.5937-.0602.9501s-.0265.6274-.0265.8117.0024.5202.0096,1.0092c.0048.4901.0072.7743.0072.855.012.2758-.0385.4684-.1541.578s-.3107.1578-.5877.1469h-.725c-.1276,0-.2673-.0229-.4239-.0686-.1541-.0458-.2481-.0867-.2842-.1216-.0337-.0337-.0747-.1289-.1204-.2842s-.0674-.2962-.0602-.4227c.0048-.1276.0096-.3516.0096-.6744v-3.1756ZM185.2453,47.0898c-.2071-.1036-.4456-.1722-.7153-.2071-.2722-.0337-.5154-.0421-.7346-.0253s-.4648.0145-.7418-.0084h-.7587c-.2433.0108-.4118.0169-.5106.0169s-.2264.012-.3878.0349-.2649.0494-.3107.0771c-.0458.0289-.1156.0759-.2071.1385-.0939.0638-.1469.1349-.1638.2156-.0193.0807-.0482.1927-.0867.3372-.0409.1433-.065.2987-.0698.466-.0048.1662-.0072.3709-.0072.613-.012.5756.2697.8972.8454.967.92.1144,2.1411.0626,3.6585-.1553.5539-.0807.8646-.4781.9321-1.1922.0578-.5865-.1879-1.0128-.7418-1.2777Z"/>
      <path class="cls-1" d="M202.3719,55.8085c.2071.4949.2481.8285.1276,1.0019-.1204.1722-.4504.2469-.9923.224-.5877-.0229-.9634-.1036-1.1296-.2421-.1686-.1373-.3251-.4889-.4745-1.0525-.0939-.3685-.1614-.6419-.2095-.8201-.0458-.1782-.1204-.3601-.224-.5443s-.1927-.3047-.2673-.3625-.2095-.1144-.4046-.1722c-.1975-.0578-.3854-.0867-.5708-.0867h-.8285c-.183,0-.5058-.006-.9658-.0169h-1.6402c-.4143.0108-.7201.0891-.9152.2324-.1951.1445-.3565.4118-.4841.8032-.1614.4371-.2866.8803-.3805,1.3295-.0915.5527-.407.8454-.9489.8803-.1156.012-.236.0289-.3613.0518-.1614.0349-.3227.0518-.4841.0518-.2649.0108-.4841-.0807-.6551-.2758-.0939-.1156-.1421-.2445-.1469-.389-.0072-.1433.0096-.2589.0506-.3456.0409-.0855.1012-.2035.1806-.354.0578-.0915.1108-.183.1566-.2758.5178-1.2199,1.2428-3.078,2.1749-5.5756.5419-1.474.961-2.5903,1.2596-3.3502.0578-.1493.1325-.3504.2264-.6033.1036-.3227.2071-.5419.3107-.6563.1036-.1156.2722-.1987.5082-.2505s.6479-.0783,1.2355-.0783h.2408c.277,0,.4769.0036.6045.0096.1252.006.2649.0253.4143.0602.1493.0337.2481.0723.2938.112.0458.0409.1132.124.2071.2505.0915.1264.1614.2469.2071.3625s.1132.2999.2071.5527c.2071.5636.5226,1.415.9489,2.5542,1.1633,3.1202,2.0713,5.4444,2.7288,6.9749ZM198.3835,51.5094c.0578-.1493.0506-.2926-.0169-.4311-.0698-.1722-.1686-.4371-.2938-.7936-.2071-.5756-.3685-1.0079-.4841-1.2958-.1276-.3107-.2697-.5552-.4311-.7334s-.3757-.2673-.6382-.2673h-.0193c-.4359,0-.7876.3227-1.0525.967-.1252.2987-.2938.7478-.501,1.3463-.1373.3685-.2408.6382-.3107.8117-.0578.1264-.0578.2589,0,.3962.0915.1156.2192.1794.3805.1903.4721.0807.9562.1264,1.4499.1385.4263-.0229.9273-.0686,1.5029-.1385.2071-.0229.3444-.0867.4143-.1903Z"/>
      <path class="cls-1" d="M204.7732,55.3075v-4.4015c0-.967-.0482-2.5614-.1397-4.782-.012-.4263.0265-.6876.1132-.7864.0867-.0975.342-.1517.7683-.1638,3.3261-.1036,5.7659-.1614,7.3194-.1722.5515-.012.9562.0951,1.2091.3191s.3854.5732.3974,1.0441c.0096.3456-.0698.6045-.2433.7767-.171.1734-.4311.2481-.7755.2252-.1855-.012-.4552-.0494-.8117-.112-.3565-.0638-.6118-.1012-.7611-.1132-.3781-.0458-.7852-.0686-1.2163-.0686s-.9128.0084-1.4403.0265c-.5299.0169-.9393.0253-1.2259.0253-.4263,0-.725.2529-.8984.7599-.0241.0807-.0337.1674-.0337.2589-.0361.3227-.0578.5696-.0698.7418-.012.1734,0,.3396.0337.501.0361.1614.0819.2734.1397.3372.0554.0626.1638.118.3179.1638.1566.0458.3203.0723.4913.0771.1734.006.4215.0096.7442.0096.5515-.012,1.0983-.0747,1.6402-.1903.2746-.0578.4745-.0409.5949.0518.1204.0915.1879.2758.1975.5527,0,.2529-.0169.5058-.0506.7587-.0458.3348-.1373.5564-.277.6647-.1373.1096-.3733.1421-.7081.0951-.4022-.0578-1.1031-.0626-2.105-.0169-.2529.0229-.4383.0951-.5539.2156-.1132.1204-.171.3191-.171.5961-.0361,1.3463-.0169,2.5313.0506,3.5561.0241.3456-.0072.5636-.0939.6563-.0867.0915-.3035.1373-.6479.1373-.2987,0-.5347-.0024-.7081-.0084s-.3372-.0313-.4913-.0771c-.1566-.0458-.2625-.1012-.3203-.165-.0578-.0626-.1108-.1686-.1638-.3191-.0506-.1493-.0795-.3071-.0867-.4745-.0048-.1662-.0145-.3998-.0241-.6997Z"/>
      <path class="cls-1" d="M216.4422,55.7567v-1.1561c.1373-1.8882.1782-4.7772.1204-8.6669,0-.4143.0409-.6587.1204-.7334.0819-.0747.3348-.1132.7611-.1132.3902,0,.684.006.8791.0181.4022,0,.6671.0686.7948.2071.1252.1385.1662.4034.1204.7936-.0578.507-.1493,1.9509-.277,4.334-.1132,1.8642-.1084,3.7343.0193,5.6105.0217.4022-.0145.6587-.1132.7683s-.3492.1867-.7514.2324c-.0795,0-.183.006-.3107.0181-.5973.0229-.9778-.0434-1.1392-.1987s-.236-.5263-.224-1.1139Z"/>
      <path class="cls-1" d="M222.2587,51.0265h.0193c0-3.0491-.0072-4.8627-.0193-5.4383,0-.1722.0361-.3023.1036-.3878.0698-.0867.1903-.1361.3637-.1469.0337,0,.0891-.006.1638-.0181.0747-.0108.1228-.0169.1469-.0169.6334-.0578,1.0236-.0169,1.1729.1204.1493.1385.2144.519.1903,1.1404-.012.46,0,1.2078.0361,2.2435.0217.6792.3155.8345.8791.466.1156-.0795.224-.1578.3276-.2324s.2168-.1578.3372-.2505c.1204-.0915.2216-.1722.3035-.2421.0795-.0686.1855-.1602.3179-.2758.1325-.1144.2312-.1987.2938-.2505s.1686-.1469.3203-.2842c.1493-.1385.2433-.2252.2842-.2601.0409-.0337.1445-.1289.3107-.2842s.2625-.2445.2842-.2673c.1855-.1493.3516-.3167.501-.501.5636-.5058.9754-.8032,1.2355-.8887.2577-.0867.8478-.124,1.7678-.1132.5058.0578.6286.2999.3637.7262-.0578.1036-.1252.2035-.1999.3011-.0747.0987-.1686.2047-.2842.3203-.1156.1144-.1951.1951-.2408.2408-.0458.047-.1469.1445-.3035.2938-.1541.1493-.2433.23-.2673.2421-.9441.8743-1.4619,1.3524-1.5535,1.433-.1734.1373-.2746.2878-.3011.448-.0289.1614-.0048.3456.0771.5527.1036.2999.2264.6105.3709.9321.1445.3227.2697.5985.3805.8285.1084.2312.2649.5335.4648.9068.2023.3745.3492.6419.4408.8032s.2625.454.5082.8803c.2481.4263.407.696.4769.8117.5058.8972.7876,1.3981.8454,1.5017.2288.4143.1204.6334-.3276.6563-.0578.0108-.6118.0229-1.6594.0337-.1036,0-.1975-.0313-.2842-.0951-.0867-.0626-.1397-.1168-.1638-.1638-.0241-.0458-.0626-.1313-.1204-.2589-.1734-.3565-.4986-1.0296-.9754-2.0195s-.843-1.7546-1.0959-2.2965c-.2433-.4721-.4504-.7828-.6214-.9321-.1734-.1493-.3685-.1903-.5877-.1204-.2192.0686-.5467.2649-.9851.5865-.5636.4383-.9128.8755-1.0525,1.3126-.0217.0915-.0409.3396-.0506.7418-.012.4034-.0145.9405-.0096,1.6149.0048.6732.0096,1.0441.0096,1.1127,0,.2071-.0409.3601-.1204.4576-.0819.0975-.2192.1529-.4167.1638-.0554,0-.1662.0096-.3276.0265s-.2866.0253-.3781.0253c-.3926-.0108-.6479-.0831-.7683-.2156-.1228-.1325-.183-.3998-.183-.802v-5.1626Z"/>
    </g>
    <g>
      <path class="cls-1" d="M269.8069,55.3497v-4.4015c0-.967-.0458-2.5614-.1373-4.782-.012-.4263.0241-.6876.1108-.7864.0867-.0975.342-.1517.7683-.1638,3.3261-.1036,5.7659-.1614,7.3194-.1722.5539-.012.9562.0951,1.2091.3191s.3854.5732.3974,1.0441c.012.3456-.0698.6045-.2408.7767-.1734.1734-.4311.2481-.7779.2252-.183-.012-.4552-.0494-.8117-.112-.3565-.0638-.6093-.1012-.7587-.1132-.3805-.0458-.7852-.0686-1.2163-.0686-.4335,0-.9128.0084-1.4427.0265-.5299.0169-.9369.0253-1.2259.0253-.4263,0-.725.2529-.8984.7599-.0217.0807-.0337.1674-.0337.2589-.0337.3227-.0578.5696-.0698.7418-.0096.1734,0,.3396.0361.501.0337.1614.0795.2734.1373.3372.0578.0626.1638.118.3203.1638.1541.0458.3179.0723.4913.0771.1734.006.4191.0096.7418.0096.5539-.012,1.0983-.0747,1.6402-.1903.277-.0578.4745-.0409.5949.0518.1228.0915.1879.2758.1999.5527,0,.2529-.0169.5058-.053.7587-.0458.3348-.1373.5564-.2746.6647-.1397.1096-.3757.1421-.7081.0951-.4046-.0578-1.1055-.0626-2.1074-.0169-.2529.0229-.4359.0951-.5515.2156s-.1734.3191-.1734.5961c-.0337,1.3463-.0169,2.5313.053,3.5561.0217.3456-.0096.5636-.0963.6563-.0867.0915-.3011.1373-.6455.1373-.3011,0-.5371-.0024-.7081-.0084-.1734-.006-.3372-.0313-.4937-.0771-.1541-.0458-.2601-.1012-.3179-.165-.0578-.0626-.1132-.1686-.1638-.3191-.053-.1493-.0819-.3071-.0867-.4745-.0072-.1662-.0145-.3998-.0265-.6997Z"/>
      <path class="cls-1" d="M281.4783,55.7989v-1.1561c.1373-1.8882.1782-4.7772.1204-8.6669,0-.4143.0409-.6587.1204-.7334.0819-.0747.3348-.1132.7611-.1132.3902,0,.684.006.8791.0181.4022,0,.6671.0686.7948.2071.1252.1385.1662.4034.1204.7936-.0578.507-.1493,1.9509-.277,4.334-.1132,1.8642-.1084,3.7343.0193,5.6105.0217.4022-.0145.6587-.1132.7683s-.3492.1867-.7514.2324c-.0795,0-.183.006-.3107.0181-.5973.0229-.9778-.0434-1.1392-.1987s-.236-.5263-.224-1.1139Z"/>
      <path class="cls-1" d="M297.0491,52.1043c.0578.047.0939.124.1108.2336.0193.1096.0193.2469,0,.4143-.0169.1662-.0361.3312-.0602.4913-.0217.1614-.0506.3372-.0867.5275-.0337.1891-.0578.33-.0674.4227l-.3276,1.9159c-.0361.1156-.065.2192-.0867.3107-.1614.4383-.4889.6563-.9851.6563-.7129.012-1.4186.0169-2.1146.0169s-1.474.006-2.3314.0181c-.8574.0108-1.5607.0169-2.1146.0169h-.2577c-.6334-.0349-1.026-.1301-1.1753-.2854s-.224-.5371-.224-1.1476v-4.6616c-.012-1.0236-.0626-2.6409-.1541-4.8507-.012-.4251.0217-.6816.1036-.7683.0795-.0867.3396-.1409.7755-.1638.2529-.0229.4359-.0373.5443-.0434s.2384-.006.3878,0,.2457.012.2866.0169c.0385.006.0963.0325.171.0783s.1132.0831.1132.112.012.0951.0337.1987c.0241.1036.0289.1927.0169.2673-.0096.0747-.0193.1987-.0241.3709-.0072.1734-.0096.3288-.0096.466,0,2.2218.0048,4.4485.0169,6.6811,0,.8526.3974,1.3126,1.1922,1.3813.8165.0927,1.6402.1325,2.4687.1216.9321-.012,1.5077-.1963,1.7269-.5527.0915-.1493.2384-.4516.4383-.9068.2023-.454.3733-.7731.5106-.9574.1614-.23.3565-.3769.5877-.4408.2288-.0626.407-.0434.5347.0602Z"/>
      <path class="cls-1" d="M313.1739,51.0686h.0193c0,2.9805.0048,4.6845.0169,5.1108,0,.2529-.053.4432-.1566.5696s-.2818.1951-.5347.2071c-.277.0229-.4841.0373-.6214.0421-.1373.006-.289.0036-.448-.0084-.1614-.0108-.2746-.0193-.3372-.0253s-.1349-.0458-.2168-.1216c-.0795-.0747-.1301-.1349-.1469-.1806s-.0361-.1433-.0602-.2938c-.0217-.1493-.0313-.2782-.0265-.3878.0072-.1096.0096-.2914.0096-.5443v-.0686c0-1.4848-.0048-2.9696-.0169-4.4545.0217-.3914-.0289-.7707-.1566-1.1392-.1036-.2421-.2288-.3745-.3781-.3974-.1734-.0108-.3107.1036-.4143.3456-.3227.725-.5708,1.3114-.7442,1.7606-.1373.3456-.3757.9562-.7153,1.8304s-.6069,1.5535-.802,2.0364c-.2649.6684-.7033.9501-1.3126.8466-.2408-.0349-.4287-.1264-.5612-.277-.1325-.1493-.2505-.3504-.354-.6033-.1493-.3685-.4408-1.1103-.8719-2.2278-.4311-1.1163-.7683-1.9786-1.0092-2.5891-.1276-.3107-.2722-.6154-.4335-.9152-.0458-.1036-.118-.1806-.2144-.2324-.0987-.0518-.2047-.0662-.3203-.0434-.2288.0686-.3565.224-.3781.466-.0241.1951-.0289.3854-.0193.5696,0,.3336.0072,1.1561.0193,2.4687.0096,1.3126.0169,2.3194.0169,3.0214,0,.5299-.065.8574-.1903.9839-.1276.1264-.4552.1842-.9851.1722h-.1903c-.5515-.0108-.8815-.0771-.9923-.1987-.1084-.1204-.1638-.4624-.1638-1.0272.012-3.2105.0169-6.4222.0169-9.6327,0-.4263.0674-.7105.1999-.855.1325-.1433.4046-.2324.8189-.2673.4383-.0108.7514-.0145.9417-.0084s.501.0289.9321.0686c.4311.0409.7442.0662.9417.0783.1373,0,.2601.0458.3709.1385.1084.0915.183.1746.224.2493.0409.0759.0939.1987.1638.3721.1276.2758.3565.849.6912,1.7172.3324.8695.6142,1.5342.8454,1.9942.0241.0458.0698.1493.1373.3107.0698.1614.1276.2758.1734.3456.0458.0686.118.1373.2168.2071.0963.0686.2144.1036.354.1036.1493-.012.2601-.0662.3348-.165.0747-.0975.1421-.2493.1999-.4564s.0963-.3348.1204-.3805c.1493-.3456.3878-.967.7153-1.8642.33-.8984.6069-1.5824.8381-2.0544.1614-.3336.3733-.507.6382-.5178.2071-.012.513-.0373.9152-.0783.4022-.0397.7081-.0626.9152-.0686s.513-.0024.9152.0084c.4383.0349.725.124.8622.2673.1397.1445.2071.4347.2071.8719v4.9205Z"/>
    </g>
    <g>
      <path class="cls-1" d="M.3969,55.1681v-4.4015c0-.967-.0482-2.5614-.1397-4.782-.012-.4263.0265-.6876.1132-.7864.0867-.0975.342-.1517.7683-.1638,3.3261-.1036,5.7659-.1614,7.3194-.1722.5515-.012.9562.0951,1.2091.3191s.3854.5732.3974,1.0441c.0096.3456-.0698.6045-.2433.7767-.171.1734-.4311.2481-.7755.2252-.1855-.012-.4552-.0494-.8117-.112-.3565-.0638-.6118-.1012-.7611-.1132-.3781-.0458-.7852-.0686-1.2163-.0686s-.9128.0084-1.4403.0265c-.5299.0169-.9393.0253-1.2259.0253-.4263,0-.725.2529-.8984.7599-.0241.0807-.0337.1674-.0337.2589-.0361.3227-.0578.5696-.0698.7418-.012.1734,0,.3396.0337.501.0361.1614.0819.2734.1397.3372.0554.0626.1638.118.3179.1638.1566.0458.3203.0723.4913.0771.1734.006.4215.0096.7442.0096.5515-.012,1.0983-.0747,1.6402-.1903.2746-.0578.4745-.0409.5949.0518.1204.0915.1879.2758.1975.5527,0,.2529-.0169.5058-.0506.7587-.0458.3348-.1373.5564-.277.6647-.1373.1096-.3733.1421-.7081.0951-.4022-.0578-1.1031-.0626-2.105-.0169-.2529.0229-.4383.0951-.5539.2156-.1132.1204-.171.3191-.171.5961-.0361,1.3463-.0169,2.5313.0506,3.5561.0241.3456-.0072.5636-.0939.6563-.0867.0915-.3035.1373-.6479.1373-.2987,0-.5347-.0024-.7081-.0084s-.3372-.0313-.4913-.0771c-.1566-.0458-.2625-.1012-.3203-.165-.0578-.0626-.1108-.1686-.1638-.3191-.0506-.1493-.0795-.3071-.0867-.4745-.0048-.1662-.0145-.3998-.0241-.6997Z"/>
      <path class="cls-1" d="M15.7798,44.7069c1.4041-.2649,2.683-.1614,3.8415.3107,1.1561.4721,2.0665,1.2657,2.736,2.382.6671,1.1163.9995,2.4458.9995,3.9884-.0915,2.0364-.8213,3.591-2.1917,4.6616-.737.5756-1.6474.9465-2.736,1.1127-1.0886.1674-2.1604.1036-3.2201-.1891-1.0597-.2938-1.9171-.7743-2.5723-1.4427-.5973-.6093-1.0164-1.3114-1.2524-2.1062-.236-.7936-.354-1.6907-.354-2.6927-.0096-1.4499.4552-2.7565,1.3993-3.9186s2.0592-1.8654,3.3502-2.1062ZM13.2413,50.9738c0,1.2319.3637,2.2158,1.0886,2.9516.725.737,1.6859,1.1055,2.8829,1.1055,1.1609,0,2.1219-.3805,2.8829-1.1392.7587-.7599,1.1488-1.7269,1.1729-2.901.0241-1.2199-.3565-2.1977-1.1392-2.9347s-1.7558-1.1103-2.9167-1.1223c-1.197-.0108-2.1628.354-2.8926,1.0959-.7322.743-1.091,1.7245-1.079,2.9444Z"/>
      <path class="cls-1" d="M28.1738,54.3577c0-1.244-.0289-3.3381-.0867-6.2849-.012-.3673-.0771-.6069-.1975-.7165-.1228-.1084-.3709-.1638-.7514-.1638-.2529,0-.6142.0084-1.079.0265-.4672.0169-.7683.0253-.9056.0253-.5082.012-.7659-.2469-.7779-.7767-.012-.2421-.0193-.4251-.0265-.5527-.0048-.1264,0-.2589.0169-.3962.0193-.1385.0289-.2396.0361-.3023.0048-.0638.0361-.1264.0939-.1903.0578-.0626.1036-.1036.1373-.1204.0361-.0181.1108-.0325.2264-.0434.1132-.012.2095-.0181.2842-.0181s.2047.006.3878.0181c.1493.0108.2697.0169.3637.0169,1.0573.012,1.8015.0169,2.2254.0169.4263,0,1.1681-.0132,2.2278-.0421s1.8015-.0434,2.2278-.0434c.0458,0,.1036-.0024.171-.0084.0698-.006.1228-.0096.1566-.0096.7009-.0108,1.1344.0614,1.2958.2168.159.1553.2457.578.2577,1.2681,0,.3914-.0939.6732-.2842.8466-.1903.1722-.4865.236-.8887.1903-.6334-.0807-1.2669-.1156-1.9003-.1048-.3902.012-.6262.2083-.7081.5877-.1156.4829-.1541.973-.1204,1.4668.0241.5648.0458,1.5776.0698,3.0395.0217,1.4607.0674,2.5951.1373,3.4008.0458.5407-.0169.8923-.1903,1.0525-.171.1614-.5347.2252-1.0862.1903-.1397,0-.289-.0108-.4504-.0349-.4143-.0686-.6696-.1662-.7683-.2926-.0963-.1264-.1349-.4034-.1108-.8297.0096-.4143.0169-.8911.0169-1.4318Z"/>
      <path class="cls-1" d="M40.2427,44.7069c1.4041-.2649,2.683-.1614,3.8415.3107,1.1561.4721,2.0665,1.2657,2.736,2.382.6671,1.1163.9995,2.4458.9995,3.9884-.0915,2.0364-.8213,3.591-2.1917,4.6616-.737.5756-1.6474.9465-2.736,1.1127-1.0886.1674-2.1604.1036-3.2201-.1891-1.0597-.2938-1.9171-.7743-2.5723-1.4427-.5973-.6093-1.0164-1.3114-1.2524-2.1062-.236-.7936-.354-1.6907-.354-2.6927-.0096-1.4499.4552-2.7565,1.3993-3.9186s2.0592-1.8654,3.3502-2.1062ZM37.7042,50.9738c0,1.2319.3637,2.2158,1.0886,2.9516.725.737,1.6859,1.1055,2.8829,1.1055,1.1609,0,2.1219-.3805,2.8829-1.1392.7587-.7599,1.1488-1.7269,1.1729-2.901.0241-1.2199-.3565-2.1977-1.1392-2.9347s-1.7558-1.1103-2.9167-1.1223c-1.197-.0108-2.1628.354-2.8926,1.0959-.7322.743-1.091,1.7245-1.079,2.9444Z"/>
    </g>
  </g>
  <g>
    <path class="cls-1" d="M370.0405,48.7511l1.6455,7.8391c.0637.296.32.5028.6218.5028,0,0,.5061.0062.6301-.4606.124-.4672,1.6282-7.782,1.6282-7.782.0124-.0587.0017-.1166-.0017-.1753.0083-.06.0356-.1133.0356-.1753V1.3429c0-.7376-.6003-1.3379-1.3388-1.3379h-1.9068c-.7376,0-1.3379.6003-1.3379,1.3379v47.1568c0,.0707.0298.1319.0405.2001l-.0165.0513ZM371.0948,48.6238l.0248-.0017v.0017h-.0248ZM372.7569,54.3017l-.2067,1.0923c-.0232.1228-.1356.2274-.2431.2274-.1083,0-.22-.1046-.2439-.2274l-.2133-1.125c-.0149-.0794.0017-.1625.0455-.2257.0438-.0637.11-.1001.1794-.1001h.468c.1273,0,.2282.1199.2282.2679,0,.0314-.005.062-.0141.0905ZM370.8244,1.9979c0-.2828.1141-.5375.2985-.7235.0794-.0802.177-.1406.2795-.191.1381-.0686.2886-.1158.4531-.1158h.9046c.1646,0,.3142.0471.4523.1158.1042.0513.2018.1125.282.1943.1827.1852.2969.4391.2969.7202v45.8271c0,.2671-.1083.5052-.2754.6888-.0943.1025-.2042.1869-.3324.2456-.1298.0587-.2721.0959-.4234.0959h-.9046c-.1522,0-.2936-.0372-.4234-.0959-.1273-.0579-.2373-.1414-.3308-.2431-.1687-.1827-.277-.4225-.277-.6913V1.9979Z"/>
    <path class="cls-1" d="M329.0465,22.8458h36.2066c.9932,0,1.8007-.8092,1.8007-1.8024V1.8007c0-.9932-.8076-1.8007-1.8007-1.8007h-36.2066c-.9932,0-1.8007.8076-1.8007,1.8007v19.2427c0,.9932.8076,1.8024,1.8007,1.8024ZM328.5223,2.5113c0-.6905.5601-1.2506,1.2506-1.2506h34.7528c.6914,0,1.2515.5601,1.2515,1.2506v17.8107c0,.6905-.5601,1.2506-1.2515,1.2506h-34.7528c-.6905,0-1.2506-.5601-1.2506-1.2506V2.5113Z"/>
    <path class="cls-1" d="M330.5822,20.7809h33.1468c.6905,0,1.2506-.5601,1.2506-1.2515v-10.1581c0-.6905-.5601-1.2506-1.2506-1.2506h-33.1468c-.6905,0-1.2506.5601-1.2506,1.2506v10.1581c0,.6914.5601,1.2515,1.2506,1.2515ZM347.1957,9.7568c2.5849,0,4.6807,2.0758,4.6807,4.6364s-2.0958,4.6364-4.6807,4.6364-4.6807-2.0758-4.6807-4.6364,2.095-4.6364,4.6807-4.6364Z"/>
    <path class="cls-1" d="M347.1957,18.5154c2.2613,0,4.1005-1.8241,4.1005-4.0646,0-2.2421-1.8392-4.0662-4.1005-4.0662s-4.1005,1.8241-4.1005,4.0662c0,2.2404,1.8392,4.0646,4.1005,4.0646ZM347.1957,11.4171c1.6594,0,3.0045,1.3326,3.0045,2.9761,0,1.6444-1.3451,2.9769-3.0045,2.9769-1.6603,0-3.0054-1.3326-3.0054-2.9769,0-1.6435,1.3451-2.9761,3.0054-2.9761Z"/>
    <rect class="cls-1" x="343.7822" y="50.1332" width="6.7765" height="5.1012" rx="1.2506" ry="1.2506"/>
    <path class="cls-1" d="M371.8564,1.4306h.9038c.3126,0,.5664.2538.5664.5664v45.8288c0,.3126-.2538.5664-.5664.5664h-.9038c-.3131,0-.5673-.2542-.5673-.5673V1.9979c0-.3131.2542-.5673.5673-.5673Z"/>
    <rect class="cls-1" x="329.3315" y="2.0732" width="35.6481" height="5.2876" rx="1.2506" ry="1.2506"/>
    <path class="cls-1" d="M329.0681,49.3884h12.8733v5.8653c0,1.0015.8143,1.8158,1.8149,1.8158h6.8283c1.0015,0,1.8158-.8143,1.8158-1.8158v-5.8653h12.8733c.9932,0,1.8007-.8076,1.8007-1.8007v-19.7276c0-.9932-.8076-1.8007-1.8007-1.8007h-36.2057c-.9932,0-1.8015.8076-1.8015,1.8007v19.7276c0,.9932.8084,1.8007,1.8015,1.8007ZM351.3387,54.7278c0,.1179-.0359.2249-.0669.3336-.1304.4615-.5066.7984-.9873.8778-.066.0109-.1262.0393-.1965.0393h-5.8352c-.0702,0-.1304-.0284-.1965-.0393-.4799-.0794-.856-.4155-.9865-.8761-.0309-.1087-.0677-.2165-.0677-.3352v-4.088c0-.1187.0368-.2257.0677-.3352.1488-.5242.6111-.9154,1.1829-.9154h5.8352c.5727,0,1.035.3921,1.1838.9171.0309.1087.0669.2157.0669.3336v4.088ZM328.5447,28.9786c0-.8895.7248-1.6135,1.6143-1.6135h34.1199c.8895,0,1.6143.724,1.6143,1.6135v17.5156c0,.8895-.7248,1.6135-1.6143,1.6135h-34.1199c-.8895,0-1.6143-.724-1.6143-1.6135v-17.5156Z"/>
    <path class="cls-1" d="M330.5402,47.382c.0134,0,.0251.0075.0385.0075h33.2839c.0134,0,.0251-.0075.0385-.0075.6721-.0217,1.2122-.566,1.2122-1.2431v-16.769c0-.6914-.5601-1.2506-1.2506-1.2506h-33.2839c-.6905,0-1.2506.5593-1.2506,1.2506v16.769c0,.6771.54,1.2214,1.2122,1.2431Z"/>
    <polygon class="cls-1" points="371.0948 48.6238 371.1196 48.6238 371.1196 48.6221 371.0948 48.6238"/>
  </g>
</svg>