<?xml version="1.0" encoding="UTF-8"?>
<svg id="Ebene_1" data-name="Ebene 1" xmlns="http://www.w3.org/2000/svg" viewBox="0 0 50.9293 23.4955">
  <defs>
    <style>
      .cls-1 {
        fill: #303e72;
      }
    </style>
  </defs>
  <path class="cls-1" d="M.1709,19.727c.1903-.7043.5709-1.4037,1.1418-2.0982s1.3467-1.3606,2.3261-1.9982c.9818-.6382,2.194-1.1752,3.6413-1.6128.7224-.2097,1.4788-.4479,2.2691-.714.7891-.2667,1.6121-.5806,2.4691-.9418.9709-1.5418,1.8849-3.1122,2.7406-4.711-.4946.5333-1.0037,1.0612-1.5273,1.5849s-1.0618.9849-1.6121,1.3843c-.5527.4-1.1055.714-1.6558.9424-.5527.2279-1.0958.3424-1.6279.3424h-.1152c-1.0267-.0382-1.6449-.2855-1.8546-.7424s-.3152-.8655-.3152-1.2273c0-.3612.1006-.8612.3006-1.4988s.6618-1.4418,1.3843-2.4128c.7236-.9703,1.5806-1.8455,2.5697-2.6261.9891-.78,1.9794-1.3655,2.9697-1.7558.9891-.3897,1.9031-.5855,2.7394-.5855.3055,0,.6085.0194.914.0576.4946.057.8655.2382,1.1127.5424.2861-.2861.5903-.4285.914-.4285.2097,0,.3903.057.543.1715.1515.1139.2618.257.3273.4279.0679.1715.1006.3333.1006.4855,0,.0764-.0145.2049-.0424.3855-.0291.1812-.1382.4139-.3285.6994-.8958,1.3897-1.8085,2.7503-2.7406,4.0825-.9333,1.3321-1.8837,2.674-2.8558,4.0249.1527-.057.3055-.1327.4582-.2279,1.2934-.6661,2.611-1.4703,3.954-2.4128,1.3406-.9418,2.6691-2.0982,3.9819-3.4685l.743.714c-1.4667,1.5224-3.0607,2.874-4.7831,4.054-1.7225,1.18-3.5637,2.1788-5.5237,2.997l-1.0279,1.4564c-.2097.323-.3855.5849-.5273.7849-.143.2-.2812.4042-.4146.6139-.2667.3806-.5188.7515-.7564,1.1134-.2376.3612-.4897.723-.7564,1.0849-1.3709,1.9218-2.6497,3.2831-3.8401,4.0825-1.1891.7994-2.2037,1.1988-3.04,1.1988-.6279,0-1.1467-.1764-1.5564-.5279-.4097-.3527-.657-.7188-.7418-1.0994-.0861-.3806-.1285-.6952-.1285-.9418,0-.3812.057-.7806.1709-1.1994ZM1.8267,20.2124c.0764.4.257.7279.5418.9849.2861.257.657.3855,1.114.3855.6097,0,1.3467-.2952,2.2122-.8849.8667-.5903,1.794-1.6085,2.7831-3.0546.4194-.5903.834-1.1849,1.2424-1.7843s.8133-1.2043,1.2134-1.8128c.0388-.0764.0861-.143.143-.2-.6279.2285-1.2327.4376-1.8134.6279s-1.1467.3612-1.6982.5139c-1.1418.2661-2.0934.6139-2.8546,1.0418-.7612.4285-1.3697.8855-1.8279,1.3703-.4558.4855-.7515.9376-.8849,1.3564-.1333.4182-.1988.7709-.1988,1.0564,0,.1327.0097.2661.0279.3994ZM9.0777,9.9353h.2c.4752,0,1.0182-.1715,1.6267-.5139.6097-.3424,1.2424-.78,1.8994-1.3134.6558-.5327,1.2788-1.094,1.8703-1.6843.5891-.5897,1.074-1.0655,1.4546-1.4273.2097-.3806.4049-.7515.5867-1.1134.1794-.3618.3758-.7327.5843-1.1134,0-.1715-.0339-.3146-.0994-.4285-.0679-.1139-.2049-.1903-.4146-.2285h-.257c-.5333,0-1.1418.1667-1.8267.5-.6849.3327-1.3758.7806-2.0691,1.3412-.6958.5618-1.3479,1.1806-1.9564,1.8558-.6085.6758-1.0946,1.3134-1.4558,1.9128-.3624.5994-.5612,1.0182-.6,1.2564-.0376.2382-.0558.3855-.0558.4424,0,.3042.1697.4758.5127.5139Z"/>
  <path class="cls-1" d="M20.3252,10.5347c.0194-.4758.1382-1.023.3576-1.6418.2194-.6182.4861-1.2655.7988-1.9412.3152-.6752.6667-1.3461,1.057-2.0128.3903-.6655.7612-1.2843,1.1127-1.8552s.6667-1.0709.943-1.4988c.2752-.4285.4606-.7279.5564-.8994.1515-.2473.3188-.423.4994-.5279s.3661-.1576.5564-.1576c.2279,0,.4388.0624.6279.1861.1903.1236.3188.257.3855.3994.0667.143.1006.2812.1006.4139,0,.0958-.0194.2242-.057.3855-.0388.1618-.1915.357-.457.5855-.1709.1333-.4618.4042-.8715.8133-.4097.4097-.8412.8806-1.2982,1.4134-.457.5327-.9043,1.0988-1.3418,1.6982-.4388.6-.7612,1.1473-.9709,1.6418-.2097.4952-.3139.9133-.3139,1.2564,0,.1139.0194.2994.0582.5564.0364.257.3127.4709.8267.6424.0582.0194.1139.0285.1721.0285.1891,0,.4412-.0903.7564-.2709.3139-.1812.68-.4473,1.0982-.7994.4194-.3521.8424-.7612,1.2703-1.2279.4291-.4661.8327-.9279,1.2146-1.3843.3224-.6091.6606-1.2085,1.0133-1.7988.3515-.5897.6885-1.1224,1.0133-1.5988.3224-.4752.6085-.8849.8558-1.2273.2473-.343.4194-.5709.5139-.6855.2097-.2661.4291-.4564.657-.5709.2279-.1139.4461-.1709.657-.1709.2473,0,.4703.0709.6703.2139.2.1424.3382.3042.4133.4855.0764.1806.1139.3564.1139.5279,0,.0764-.0133.2049-.0412.3855-.0291.1812-.1576.3855-.3855.6139-.097.0952-.2909.2758-.5867.5424-.2946.2667-.6424.5897-1.0412.9703-.3988.3812-.8182.8043-1.257,1.2703-.4364.4667-.8412.9327-1.2121,1.3988-.3709.4667-.6861.9188-.943,1.3564-.257.4382-.3903.7473-.3988.9279-.0109.1812-.0145.2806-.0145.2994,0,.3242.1285.5855.3855.7855.257.1994.7188.3091,1.3855.3279.3224,0,.6885-.0897,1.0982-.2709.4097-.1806.8364-.4236,1.2849-.7279.4461-.3042.8946-.6424,1.3418-1.0133.4473-.3715.8703-.7424,1.2703-1.114.3988-.3709.7649-.7182,1.0994-1.0418.3321-.323.6036-.5897.8133-.7994l.7418.657c-.4182.4952-.9806,1.0897-1.6837,1.7843-.7055.6946-1.4618,1.3606-2.2703,1.9982s-1.6376,1.18-2.4837,1.6273c-.8461.4473-1.6218.6709-2.3273.6709-.8946-.0188-1.4449-.2327-1.6558-.6424-.2085-.4091-.3127-.823-.3127-1.2418,0-.2473.0279-.5139.0848-.7994-.6279.7043-1.3043,1.3085-2.0267,1.8128-.7236.5049-1.5031.7667-2.3406.7849h-.1152c-.5139,0-.8752-.1327-1.0837-.3994-.2097-.2661-.3152-.6091-.3152-1.0279v-.1139Z"/>
  <path class="cls-1" d="M28.0053,19.727c.1903-.7043.5709-1.4037,1.1418-2.0982s1.3467-1.3606,2.3273-1.9982c.9794-.6382,2.194-1.1752,3.6388-1.6128.7236-.2097,1.48-.4479,2.2703-.714.7891-.2667,1.6134-.5806,2.4691-.9418.9709-1.5418,1.8837-3.1122,2.7406-4.711-.4958.5333-1.0049,1.0612-1.5273,1.5849-.5236.5236-1.0606.9849-1.6134,1.3843-.5515.4-1.103.714-1.6558.9424-.5515.2279-1.0934.3424-1.6267.3424h-.1139c-1.0279-.0382-1.6461-.2855-1.8558-.7424s-.3139-.8655-.3139-1.2273c0-.3612.0994-.8612.2994-1.4988s.6618-1.4418,1.3855-2.4128c.7224-.9703,1.5782-1.8455,2.5685-2.6261.9891-.78,1.9794-1.3655,2.9685-1.7558.9891-.3897,1.9031-.5855,2.7419-.5855.303,0,.6085.0194.9127.0576.4946.057.8667.2382,1.114.5424.2849-.2861.5891-.4285.9127-.4285.2097,0,.3903.057.5418.1715.1527.1139.2618.257.3297.4279.0655.1715.0994.3333.0994.4855,0,.0764-.0145.2049-.0436.3855-.0279.1812-.1382.4139-.3273.6994-.8946,1.3897-1.8085,2.7503-2.7406,4.0825-.9321,1.3321-1.8849,2.674-2.8546,4.0249.1515-.057.303-.1327.4558-.2279,1.2946-.6661,2.6134-1.4703,3.954-2.4128,1.3431-.9418,2.6691-2.0982,3.9831-3.4685l.7418.714c-1.4655,1.5224-3.0594,2.874-4.7807,4.054-1.7237,1.18-3.5649,2.1788-5.5249,2.997l-1.0279,1.4564c-.2097.323-.3855.5849-.5285.7849s-.2812.4042-.4133.6139c-.2667.3806-.5188.7515-.7564,1.1134-.2388.3612-.4909.723-.7576,1.0849-1.3697,1.9218-2.6497,3.2831-3.8388,4.0825s-2.2025,1.1988-3.0413,1.1988c-.6279,0-1.1455-.1764-1.5552-.5279-.4085-.3527-.6558-.7188-.743-1.0994-.0848-.3806-.1285-.6952-.1285-.9418,0-.3812.0582-.7806.1721-1.1994ZM29.6611,20.2124c.0764.4.257.7279.543.9849.2849.257.6558.3855,1.1127.3855.6085,0,1.3467-.2952,2.2134-.8849.8655-.5903,1.794-1.6085,2.7831-3.0546.4182-.5903.8315-1.1849,1.2412-1.7843s.8146-1.2043,1.2134-1.8128c.0376-.0764.0861-.143.143-.2-.6291.2285-1.2327.4376-1.8121.6279-.5818.1903-1.1479.3612-1.6994.5139-1.1418.2661-2.0934.6139-2.8546,1.0418-.7612.4285-1.3709.8855-1.8267,1.3703-.4582.4855-.7515.9376-.8849,1.3564-.1333.4182-.2012.7709-.2012,1.0564,0,.1327.0097.2661.0291.3994ZM36.9121,9.9353h.2c.4764,0,1.0182-.1715,1.6279-.5139.6085-.3424,1.2412-.78,1.8982-1.3134.657-.5327,1.28-1.094,1.8691-1.6843.5903-.5897,1.0764-1.0655,1.457-1.4273.2085-.3806.4036-.7515.5843-1.1134.1818-.3618.3758-.7327.5855-1.1134,0-.1715-.0327-.3146-.0994-.4285s-.2049-.1903-.4133-.2285h-.257c-.5333,0-1.143.1667-1.8279.5-.6861.3327-1.3746.7806-2.0703,1.3412-.6946.5618-1.3455,1.1806-1.9552,1.8558-.6097.6758-1.0946,1.3134-1.4558,1.9128s-.5624,1.0182-.5988,1.2564c-.0388.2382-.0582.3855-.0582.4424,0,.3042.1721.4758.5139.5139Z"/>
</svg>