<?xml version="1.0" encoding="UTF-8"?>
<svg id="Ebene_1" data-name="Ebene 1" xmlns="http://www.w3.org/2000/svg" viewBox="0 0 181.7072 32.4129">
  <defs>
    <style>
      .cls-1 {
        fill: #51381b;
      }
    </style>
  </defs>
  <g>
    <path class="cls-1" d="M67.6416,13.0228c.8887.8589,1.2725,1.9702,1.1494,3.335-.1221,1.3647-.6357,2.3691-1.541,3.0132-.9658.644-1.7861.9814-2.4609,1.0117-2.2539.123-4.2852.1152-6.0947-.0229-.4443-.0303-.7441-.1416-.8965-.3335-.1543-.1914-.2002-.502-.1387-.9316.1387-1.2568.123-2.7676-.0459-4.5308-.0459-.4448-.0303-1.6177.0459-3.519.0312-.5669.0459-2.2998.0459-5.1982v-.46c.0156-.3828.0957-.6396.2422-.7705.1455-.1299.4102-.1953.793-.1953,2.7295.0459,4.3086.0845,4.7383.1152,1.0117.0918,1.7627.23,2.2539.4136.9961.3379,1.7627,1.0889,2.2998,2.2544.7363,1.5791.4443,3.0356-.874,4.3696l-.3213.3223c-.0156.0151-.0547.0459-.1152.0918-.0615.0459-.1074.0884-.1387.1265-.0303.0386-.0459.0884-.0459.1494.0615.0464.2305.1538.5059.3223.2764.1689.4756.3145.5986.437ZM65.5713,16.9559c.291-.6592.2266-1.3608-.1953-2.1045s-.9932-1.1538-1.7139-1.2305c-.3984-.0151-.6973-.019-.8965-.0117-.1992.0078-.4951.0308-.8857.0688-.3906.0386-.6865.0654-.8857.0806-.4902.0459-.7207.3145-.6895.8052,0,1.1196.0225,1.8706.0684,2.2539.0615.4448.1992.7554.4141.9316s.5596.2798,1.0352.3105c.1074,0,.46-.0078,1.0586-.0229.5977-.0151.958-.0234,1.0811-.0234.7197,0,1.2568-.3525,1.6094-1.0576ZM61.2246,6.8817c-.4756-.0459-.7129.1689-.7129.644,0,1.1812.0762,2.1084.2295,2.7832.1074.4292.3525.667.7363.7129.9814.1377,1.8242.1377,2.5303,0,.5059-.1226.835-.4141.9883-.874.1992-.5366.2383-1.104.1152-1.7021-.1689-.8428-.6592-1.3184-1.4717-1.4258-.7676-.0923-1.5723-.1382-2.415-.1382Z"/>
    <path class="cls-1" d="M89.3535,19.5545c.1074.4297-.0537.6826-.4834.7593-.7969.1533-1.2646.2222-1.4023.207-.7822.0615-1.4189-.2681-1.9092-.9893-.2607-.3828-.4375-.7129-.5293-.9888-.2295-.7666-.7822-1.1499-1.6562-1.1499-.8887-.0151-2.2227-.0229-4.002-.0229-.6895.0308-1.165.3677-1.4258,1.0117-.0312.0771-.0996.2725-.207.5864-.1074.3145-.1992.5483-.2764.7017-.2451.5059-.7354.8394-1.4717,1.0005s-1.3184.0654-1.748-.2876c-.2295-.1841-.3145-.4673-.2529-.8511.0303-.3677.1758-.8047.4375-1.311.5664-1.1958,1.0342-2.3379,1.4023-3.4268.3682-1.0425.8975-2.1851,1.5869-3.4272.7363-1.2876,1.5186-2.9668,2.3467-5.0366.0146-.0767.0537-.1919.1143-.3452.2305-.644.5068-1.0615.8281-1.2534.3223-.1914.8203-.2261,1.4951-.1035.3828.0615.6592.2759.8281.644.1377.2915.4287.8818.874,1.771.4443.8892.7705,1.5562.9775,2.001s.4521,1.0273.7363,1.748c.2832.7207.5176,1.3955.7012,2.0239.1689.583.5518,1.3877,1.1504,2.415.168.2759.3369.5864.5059.9316.168.3447.3027.6362.4023.874s.2373.5674.4141.9888c.1758.4219.3027.7246.3789.9087.0928.1992.1533.4062.1846.6206ZM78.8428,2.7186c-.3682,0-.6826-.1338-.9434-.4023-.2607-.2681-.3906-.5864-.3906-.9546.0146-.3828.1523-.709.4141-.9775.2598-.2681.5664-.3945.9199-.3794.3672,0,.7012.1421,1,.4253.2988.2842.4482.5947.4482.9316-.0146.353-.1719.667-.4707.9429-.2998.2764-.625.4141-.9775.4141ZM83.166,14.6097c.2607-.0303.4453-.1187.5527-.2646.1064-.1455.1221-.3335.0459-.5635-.0615-.1528-.1885-.4712-.3799-.9541-.1914-.4834-.333-.8398-.4258-1.0698-.0918-.23-.2256-.5288-.4023-.897-.1758-.3682-.3564-.6973-.54-.9888-.2764-.4907-.5215-.4751-.7363.0459-.7363,1.6558-1.2803,2.8979-1.6328,3.7261-.123.2607-.1494.4482-.0811.5635.0693.1147.25.2031.541.2642.2295.0312.7285.0771,1.4951.1382h1.5635ZM84.9141,2.2933c-.2295.2222-.5439.3335-.9424.3335-.3994,0-.7246-.1265-.9775-.3794s-.3877-.5786-.4023-.9775c-.0156-.3374.0996-.6401.3447-.9087.2451-.2681.5205-.3872.8281-.3564.9805.0771,1.4795.5288,1.4951,1.3569,0,.3989-.1152.7095-.3457.9316Z"/>
    <path class="cls-1" d="M107.707,16.7259c.583.4907.874.8662.874,1.127s-.3066.6289-.9199,1.104c-1.3643,1.0273-2.9824,1.5562-4.8525,1.5869-3.1279,0-5.4746-1.2954-7.0381-3.8872-.6904-1.1499-1.0928-2.3687-1.208-3.6567-.1143-1.2881.1035-2.5415.6562-3.7607.5518-1.2188,1.4023-2.2344,2.5527-3.0474,2.9746-2.0698,6.0107-2.3379,9.1074-.8052.5068.2456.9277.5522,1.2656.9204.2295.2607.3447.4751.3447.6436.0156.23-.0225.4258-.1152.5869-.0918.1606-.2607.3447-.5059.5518s-.3906.3335-.4365.3794c-.2607.2915-.5986.3145-1.0127.0693-.1533-.0767-.3906-.207-.7129-.3911-.3213-.1841-.5674-.3223-.7354-.4141-1.626-.8892-3.2588-.751-4.8994.4141-.5059.353-.9434.7974-1.3105,1.334-.4912.7207-.7861,1.5293-.8857,2.4263s-.0195,1.6758.2412,2.3345c.1533.4604.3604.8896.6211,1.2881.5215.7671,1.0732,1.2959,1.6562,1.5869.3525.1997.6816.3452.9893.437.7354.2456,1.4941.2842,2.2764.1152.6445-.1382,1.4033-.4907,2.2773-1.0581.4443-.2759.7549-.4062.9316-.3911.1758.0156.4561.1841.8389.5063Z"/>
    <path class="cls-1" d="M124.6582,18.6346c.0156.0156.0654.0693.1494.1611s.1387.1494.1611.1724c.0234.0229.0693.0771.1387.1611.0684.0845.1104.1533.126.207s.0381.1191.0693.1953c.0303.0771.042.1538.0342.23-.0078.0771-.0273.1538-.0576.23-.0459.123-.1113.2227-.1953.2993s-.1768.1304-.2764.1611-.2031.0498-.3105.0571c-.1074.0078-.2178.0078-.333,0-.1152-.0073-.2266-.0034-.334.0117-.8271.0615-1.4873-.2607-1.9775-.9663-.3223-.4751-.8506-1.0884-1.5869-1.8398-.7363-.751-1.2119-1.2651-1.4258-1.541-.1846-.23-.6445-.728-1.3809-1.4951-.4131-.4443-.7891-.728-1.127-.8506-.0459.9814-.0303,1.8247.0469,2.5298.0303.3071.0488.6323.0566.9775.0078.3447.0117.7207.0117,1.127v.9546c0,.3066-.0615.5254-.1836.6553-.123.1304-.3379.2188-.6445.2646-.0615.0156-.1533.0229-.2754.0229-.6289.0459-1.0312-.0151-1.208-.1841-.1758-.1685-.2871-.5825-.333-1.2417-.0771-1.2266-.0732-2.9937.0117-5.3018.084-2.3076.1104-3.9673.0801-4.9795-.0459-.874-.0693-1.7402-.0693-2.5991-.0156-.4751.0537-.7852.207-.9312.1533-.1455.46-.2109.9199-.1958.751.0156,1.2002.0962,1.3457.2417.1455.146.2109.5942.1953,1.3452,0,.3223-.0039.667-.0107,1.0352-.0088.3682-.0195.7783-.0352,1.2305-.0156.4526-.0225.8091-.0225,1.0698l-.0234.1147v.2417c0,.0845.0078.1724.0234.2642.0459.2456.1064.4526.1836.6211,1.8555-1.855,3.1279-3.1968,3.8184-4.0249.1523-.1992.3027-.3716.4482-.5176.1455-.1455.333-.3179.5635-.5176.2305-.1987.4219-.3755.5752-.5288.5518-.5522,1.3564-.7051,2.415-.46.6133.1377.7354.4829.3682,1.0352-.2617.3677-.7139.8735-1.3574,1.5176-.2607.2456-.6592.6099-1.1963,1.0928-.5361.4829-1.0078.9238-1.4141,1.3223-.4062.3989-.7705.7974-1.0928,1.1963-.3984.4907-.6016.8164-.6094.9775-.0078.1606.165.5024.5176,1.0234.3525.4907.9277,1.0889,1.7246,1.7939.8125.6748,1.418,1.334,1.8174,1.978.1221.1992.2607.3872.4141.5635s.3408.376.5635.5981c.2217.2222.3867.3872.4941.4941Z"/>
    <path class="cls-1" d="M139.3779,17.7606c.6289.0156,1.0586.2266,1.2881.6328.2305.4062.1914.8931-.1152,1.4604-.1689.2915-.4824.46-.9424.5059-.292.0459-.9395.0537-1.9434.0229-1.0049-.0303-1.6533-.0459-1.9443-.0459h-3.6338c-.5215,0-.8818-.1226-1.0811-.3682-.1992-.2144-.2754-.4751-.2295-.7817.0762-.5981.0684-1.5791-.0234-2.9443-.0156-.2144-.0225-1.5176-.0225-3.9097,0-2.7603-.0693-4.8301-.207-6.21-.0615-.5063-.0078-.8545.1602-1.0469.1689-.1914.5215-.3022,1.0586-.3335,1.6406-.1226,2.9355-.1377,3.8867-.0459.5215.0156.874.0229,1.0586.0229.1836,0,.5322-.0151,1.0459-.0459.5137-.0303.8623-.0537,1.0469-.0688.0762-.0151.1992-.0229.3682-.0229.168,0,.2988-.0078.3906-.0229.2305,0,.4062.0459.5293.1377.1221.0771.2217.165.2988.2646.0762.1001.126.2148.1494.3452s.0381.2412.0459.3335c.0078.0918.0117.2183.0117.3794v.3564c.0146.4448-.2607.7207-.8281.8281-.3682.1074-.7051.1377-1.0117.0918-.3838-.0308-.7861-.0498-1.208-.0576-.4219-.0073-.9082-.0034-1.46.0117-.5527.0151-.959.0229-1.2197.0229-.6289,0-1.0195.0806-1.1729.2417-.1533.1606-.2148.5483-.1836,1.1611.0303.7056.0303,1.2271,0,1.564-.0312.3223,0,.5332.0918.6328s.291.1572.5977.1724c0,.0156.3994.0229,1.1963.0229l1.2188-.0229c.8281,0,1.4492.0078,1.8633.0229.3828.0156.6553.1001.8164.2529.1611.1533.2646.4219.3105.8052.0303.1841.0381.3374.0234.46,0,.3374-.0547.5674-.1611.6899-.1074.123-.3301.2148-.667.2759-.3535.0615-.752.0923-1.1963.0923-.6895.0151-1.71.0229-3.0586.0229-.4912,0-.8164.0845-.9775.2529-.1611.1689-.2266.4907-.1953.9658.0146.3989.0527.9814.1143,1.748.0459.4297.2305.7441.5527.9434.1982.1074.4053.1606.6201.1606.9971,0,1.9551.0195,2.875.0576.9209.0386,1.4189.0269,1.4951-.0347h.3682Z"/>
    <path class="cls-1" d="M154.7871,14.0345c-.0605.0312-.1455.0845-.2529.1611-.1074.0771-.1758.123-.207.1382-.0303.0151-.0762.0498-.1377.1035s-.0957.0845-.1035.0918c-.0078.0078-.0195.0425-.0342.1035-.0156.0615-.0156.1035,0,.1265.0146.0229.0381.0732.0684.1494.0312.0771.0615.1421.0928.1958.0303.0537.0762.1421.1377.2646.2305.4292.7324,1.0542,1.5068,1.874.7734.8208,1.2764,1.4146,1.5059,1.7827.123.2148.207.3833.2529.5059.3682.874.0771,1.3267-.874,1.3569-1.0273,0-1.667-.0688-1.9199-.2065-.2529-.1382-.5947-.644-1.0234-1.5181-.2148-.46-.6787-1.1924-1.3916-2.1968-.7129-1.0039-1.1387-1.6289-1.2764-1.8745-.2305-.3828-.6064-.6016-1.127-.6553-.5215-.0537-.8057.0576-.8516.3335-.0615.2915-.0918.5903-.0918.897l-.0234,1.7939c-.0146,1.1958.0156,1.7939.0928,1.7939.0762.5674.0225.9468-.1611,1.1387-.1846.1919-.5752.2876-1.1729.2876h-.0693l-.0234.0229c-.6592,0-1.0918-.0957-1.2988-.2876-.207-.1914-.3184-.6172-.334-1.2764,0-.0151-.0225-1.71-.0684-5.083v-1.4951h-.0234v-5.9341c0-.2759.0078-.4907.0234-.644.0303-.3828.1221-.6514.2754-.8052.1533-.1528.4219-.2603.8057-.3218.2139-.0308.3672-.0459.46-.0459.6895.0615,1.6631.0845,2.9209.0688,1.2568-.0151,2.2305-.0073,2.9209.0229,1.5488.0923,2.7217.7822,3.5186,2.0703.8438,1.395,1.1885,2.6528,1.0352,3.772-.1689,1.1807-1.1426,2.2388-2.9209,3.1738-.0771.0308-.1533.0688-.2305.1147ZM152.7861,12.1488c.5986-.0151,1.1084-.2681,1.5303-.7588.4209-.4907.6172-1.0581.5859-1.7021-.0303-.521-.2451-.9546-.6436-1.2998-.3994-.3447-.9053-.5249-1.5186-.54h-1.46c-.6523,0-1.1465-.0078-1.4834-.0234-.2461,0-.4141.0464-.5059.1382-.0928.1074-.1387.2837-.1387.5288,0,.123-.0039.2573-.0117.4028-.0078.146-.0186.3105-.0342.4941-.0156.1841-.0225.3223-.0225.4141,0,.0615-.0117.3564-.0352.8857-.0225.5288-.0195.8394.0117.9316,0,.2148.0693.3755.207.4829.0615.0615.1533.0918.2764.0918.7666.0308,1.2725.0459,1.5176.0459s.5898-.0151,1.0352-.0459c.4443-.0303.6748-.0459.6895-.0459Z"/>
    <path class="cls-1" d="M172.0146,17.7606c.6279.0156,1.0576.2266,1.2881.6328.2295.4062.1914.8931-.1152,1.4604-.1689.2915-.4834.46-.9434.5059-.291.0459-.9395.0537-1.9434.0229-1.0049-.0303-1.6523-.0459-1.9434-.0459h-3.6338c-.5215,0-.8818-.1226-1.0811-.3682-.2002-.2144-.2764-.4751-.2305-.7817.0771-.5981.0693-1.5791-.0225-2.9443-.0156-.2144-.0234-1.5176-.0234-3.9097,0-2.7603-.0693-4.8301-.207-6.21-.0615-.5063-.0078-.8545.1611-1.0469.1689-.1914.5215-.3022,1.0576-.3335,1.6406-.1226,2.9365-.1377,3.8877-.0459.5205.0156.874.0229,1.0576.0229s.5322-.0151,1.0469-.0459c.5137-.0303.8623-.0537,1.0459-.0688.0771-.0151.1992-.0229.3682-.0229s.2988-.0078.3916-.0229c.2295,0,.4053.0459.5283.1377.123.0771.2227.165.2988.2646.0771.1001.127.2148.1494.3452.0234.1304.0381.2412.0469.3335.0068.0918.0107.2183.0107.3794v.3564c.0156.4448-.2607.7207-.8281.8281-.3672.1074-.7051.1377-1.0117.0918-.3828-.0308-.7861-.0498-1.207-.0576-.4219-.0073-.9092-.0034-1.4609.0117s-.958.0229-1.2188.0229c-.6289,0-1.0195.0806-1.1729.2417-.1533.1606-.2148.5483-.1846,1.1611.0312.7056.0312,1.2271,0,1.564-.0303.3223,0,.5332.0928.6328.0918.0996.291.1572.5977.1724,0,.0156.3984.0229,1.1963.0229l1.2188-.0229c.8281,0,1.4492.0078,1.8633.0229.3828.0156.6553.1001.8164.2529.1611.1533.2646.4219.3105.8052.0303.1841.0381.3374.0225.46,0,.3374-.0537.5674-.1611.6899-.1074.123-.3301.2148-.667.2759-.3525.0615-.751.0923-1.1953.0923-.6904.0151-1.71.0229-3.0596.0229-.4912,0-.8164.0845-.9775.2529-.1611.1689-.2266.4907-.1953.9658.0146.3989.0537.9814.1152,1.748.0459.4297.2295.7441.5518.9434.1992.1074.4062.1606.6211.1606.9961,0,1.9551.0195,2.875.0576.9199.0386,1.418.0269,1.4951-.0347h.3682Z"/>
    <path class="cls-1" d="M181.582,5.3407c.1064.3071.1455.6826.1152,1.127-.1387,1.2729-.1924,3.0518-.1611,5.3359.0303,2.2852.0146,4.0791-.0459,5.3823-.0156.1533-.0156.5557,0,1.2075.0146.6519-.0088,1.0542-.0693,1.2075-.0615.3218-.1416.5327-.2412.6323-.1006.1001-.3105.1724-.6328.2188h-.2764c-.6133.0308-1.0273-.0615-1.2412-.2764-.2002-.2144-.2764-.5977-.2305-1.1499.0459-.521.0654-1.2495.0576-2.1851-.0078-.9351.0039-1.6636.0342-2.1851.0156-.4751.0234-1.3027.0234-2.4839-.0156-1.1958-.0918-3.0513-.2305-5.5659,0-.0151-.0225-.3223-.0684-.9199-.0312-.2451.0527-.4678.2529-.667.1836-.2148.5859-.3452,1.207-.3911s1.0391.0308,1.2539.23c.1064.0918.1914.2529.2529.4829Z"/>
  </g>
  <g>
    <path class="cls-1" d="M.1709,28.5091c.1903-.7043.5709-1.4037,1.1418-2.0982s1.3467-1.3606,2.3261-1.9982c.9818-.6382,2.194-1.1752,3.6413-1.6128.7224-.2097,1.4788-.4479,2.2691-.714.7891-.2667,1.6121-.5806,2.4691-.9418.9709-1.5418,1.8849-3.1122,2.7406-4.711-.4946.5333-1.0037,1.0612-1.5273,1.5849s-1.0618.9849-1.6121,1.3843c-.5527.4-1.1055.714-1.6558.9424-.5527.2279-1.0958.3424-1.6279.3424h-.1152c-1.0267-.0382-1.6449-.2855-1.8546-.7424s-.3152-.8655-.3152-1.2273c0-.3612.1006-.8612.3006-1.4988s.6618-1.4418,1.3843-2.4128c.7236-.9703,1.5806-1.8455,2.5697-2.6261.9891-.78,1.9794-1.3655,2.9697-1.7558.9891-.3897,1.9031-.5855,2.7394-.5855.3055,0,.6085.0194.914.0576.4946.057.8655.2382,1.1127.5424.2861-.2861.5903-.4285.914-.4285.2097,0,.3903.057.543.1715.1515.1139.2618.257.3273.4279.0679.1715.1006.3333.1006.4855,0,.0764-.0145.2049-.0424.3855-.0291.1812-.1382.4139-.3285.6994-.8958,1.3897-1.8085,2.7503-2.7406,4.0825-.9333,1.3321-1.8837,2.674-2.8558,4.0249.1527-.057.3055-.1327.4582-.2279,1.2934-.6661,2.611-1.4703,3.954-2.4128,1.3406-.9418,2.6691-2.0982,3.9819-3.4685l.743.714c-1.4667,1.5224-3.0607,2.874-4.7831,4.054-1.7225,1.18-3.5637,2.1788-5.5237,2.997l-1.0279,1.4564c-.2097.323-.3855.5849-.5273.7849-.143.2-.2812.4042-.4146.6139-.2667.3806-.5188.7515-.7564,1.1134-.2376.3612-.4897.723-.7564,1.0849-1.3709,1.9218-2.6497,3.2831-3.8401,4.0825-1.1891.7994-2.2037,1.1988-3.04,1.1988-.6279,0-1.1467-.1764-1.5564-.5279-.4097-.3527-.657-.7188-.7418-1.0994-.0861-.3806-.1285-.6952-.1285-.9418,0-.3812.057-.7806.1709-1.1994ZM1.8267,28.9946c.0764.4.257.7279.5418.9849.2861.257.657.3855,1.114.3855.6097,0,1.3467-.2952,2.2122-.8849.8667-.5903,1.794-1.6085,2.7831-3.0546.4194-.5903.834-1.1849,1.2424-1.7843s.8133-1.2043,1.2134-1.8128c.0388-.0764.0861-.143.143-.2-.6279.2285-1.2327.4376-1.8134.6279s-1.1467.3612-1.6982.5139c-1.1418.2661-2.0934.6139-2.8546,1.0418-.7612.4285-1.3697.8855-1.8279,1.3703-.4558.4855-.7515.9376-.8849,1.3564-.1333.4182-.1988.7709-.1988,1.0564,0,.1327.0097.2661.0279.3994ZM9.0777,18.7174h.2c.4752,0,1.0182-.1715,1.6267-.5139.6097-.3424,1.2424-.78,1.8994-1.3134.6558-.5327,1.2788-1.094,1.8703-1.6843.5891-.5897,1.074-1.0655,1.4546-1.4273.2097-.3806.4049-.7515.5867-1.1134.1794-.3618.3758-.7327.5843-1.1134,0-.1715-.0339-.3146-.0994-.4285-.0679-.1139-.2049-.1903-.4146-.2285h-.257c-.5333,0-1.1418.1667-1.8267.5-.6849.3327-1.3758.7806-2.0691,1.3412-.6958.5618-1.3479,1.1806-1.9564,1.8558-.6085.6758-1.0946,1.3134-1.4558,1.9128-.3624.5994-.5612,1.0182-.6,1.2564-.0376.2382-.0558.3855-.0558.4424,0,.3042.1697.4758.5127.5139Z"/>
    <path class="cls-1" d="M20.3252,19.3168c.0194-.4758.1382-1.023.3576-1.6418.2194-.6182.4861-1.2655.7988-1.9412.3152-.6752.6667-1.3461,1.057-2.0128.3903-.6655.7612-1.2843,1.1127-1.8552s.6667-1.0709.943-1.4988c.2752-.4285.4606-.7279.5564-.8994.1515-.2473.3188-.423.4994-.5279s.3661-.1576.5564-.1576c.2279,0,.4388.0624.6279.1861.1903.1236.3188.257.3855.3994.0667.143.1006.2812.1006.4139,0,.0958-.0194.2242-.057.3855-.0388.1618-.1915.357-.457.5855-.1709.1333-.4618.4042-.8715.8133-.4097.4097-.8412.8806-1.2982,1.4134s-.9043,1.0988-1.3418,1.6982c-.4388.6-.7612,1.1473-.9709,1.6418-.2097.4952-.3139.9133-.3139,1.2564,0,.1139.0194.2994.0582.5564.0364.257.3127.4709.8267.6424.0582.0194.1139.0285.1721.0285.1891,0,.4412-.0903.7564-.2709.3139-.1812.68-.4473,1.0982-.7994.4194-.3521.8424-.7612,1.2703-1.2279.4291-.4661.8327-.9279,1.2146-1.3843.3224-.6091.6606-1.2085,1.0133-1.7988.3515-.5897.6885-1.1224,1.0133-1.5988.3224-.4752.6085-.8849.8558-1.2273.2473-.343.4194-.5709.5139-.6855.2097-.2661.4291-.4564.657-.5709.2279-.1139.4461-.1709.657-.1709.2473,0,.4703.0709.6703.2139.2.1424.3382.3042.4133.4855.0764.1806.1139.3564.1139.5279,0,.0764-.0133.2049-.0412.3855-.0291.1812-.1576.3855-.3855.6139-.097.0952-.2909.2758-.5867.5424-.2946.2667-.6424.5897-1.0412.9703-.3988.3812-.8182.8043-1.257,1.2703-.4364.4667-.8412.9327-1.2121,1.3988-.3709.4667-.6861.9188-.943,1.3564-.257.4382-.3903.7473-.3988.9279-.0109.1812-.0145.2806-.0145.2994,0,.3242.1285.5855.3855.7855.257.1994.7188.3091,1.3855.3279.3224,0,.6885-.0897,1.0982-.2709.4097-.1806.8364-.4236,1.2849-.7279.4461-.3042.8946-.6424,1.3418-1.0133.4473-.3715.8703-.7424,1.2703-1.114.3988-.3709.7649-.7182,1.0994-1.0418.3321-.323.6036-.5897.8133-.7994l.7418.657c-.4182.4952-.9806,1.0897-1.6837,1.7843-.7055.6946-1.4618,1.3606-2.2703,1.9982s-1.6376,1.18-2.4837,1.6273c-.8461.4473-1.6218.6709-2.3273.6709-.8946-.0188-1.4449-.2327-1.6558-.6424-.2085-.4091-.3127-.823-.3127-1.2418,0-.2473.0279-.5139.0848-.7994-.6279.7043-1.3043,1.3085-2.0267,1.8128-.7236.5049-1.5031.7667-2.3406.7849h-.1152c-.5139,0-.8752-.1327-1.0837-.3994-.2097-.2661-.3152-.6091-.3152-1.0279v-.1139Z"/>
    <path class="cls-1" d="M28.0053,28.5091c.1903-.7043.5709-1.4037,1.1418-2.0982s1.3467-1.3606,2.3273-1.9982c.9794-.6382,2.194-1.1752,3.6388-1.6128.7236-.2097,1.48-.4479,2.2703-.714.7891-.2667,1.6134-.5806,2.4691-.9418.9709-1.5418,1.8837-3.1122,2.7406-4.711-.4958.5333-1.0049,1.0612-1.5273,1.5849-.5236.5236-1.0606.9849-1.6134,1.3843-.5515.4-1.103.714-1.6558.9424-.5515.2279-1.0934.3424-1.6267.3424h-.1139c-1.0279-.0382-1.6461-.2855-1.8558-.7424s-.3139-.8655-.3139-1.2273c0-.3612.0994-.8612.2994-1.4988s.6618-1.4418,1.3855-2.4128c.7224-.9703,1.5782-1.8455,2.5685-2.6261.9891-.78,1.9794-1.3655,2.9685-1.7558.9891-.3897,1.9031-.5855,2.7419-.5855.303,0,.6085.0194.9127.0576.4946.057.8667.2382,1.114.5424.2849-.2861.5891-.4285.9127-.4285.2097,0,.3903.057.5418.1715.1527.1139.2618.257.3297.4279.0655.1715.0994.3333.0994.4855,0,.0764-.0145.2049-.0436.3855-.0279.1812-.1382.4139-.3273.6994-.8946,1.3897-1.8085,2.7503-2.7406,4.0825-.9321,1.3321-1.8849,2.674-2.8546,4.0249.1515-.057.303-.1327.4558-.2279,1.2946-.6661,2.6134-1.4703,3.954-2.4128,1.3431-.9418,2.6691-2.0982,3.9831-3.4685l.7418.714c-1.4655,1.5224-3.0594,2.874-4.7807,4.054-1.7237,1.18-3.5649,2.1788-5.5249,2.997l-1.0279,1.4564c-.2097.323-.3855.5849-.5285.7849s-.2812.4042-.4133.6139c-.2667.3806-.5188.7515-.7564,1.1134-.2388.3612-.4909.723-.7576,1.0849-1.3697,1.9218-2.6497,3.2831-3.8388,4.0825s-2.2025,1.1988-3.0413,1.1988c-.6279,0-1.1455-.1764-1.5552-.5279-.4085-.3527-.6558-.7188-.743-1.0994-.0848-.3806-.1285-.6952-.1285-.9418,0-.3812.0582-.7806.1721-1.1994ZM29.6611,28.9946c.0764.4.257.7279.543.9849.2849.257.6558.3855,1.1127.3855.6085,0,1.3467-.2952,2.2134-.8849.8655-.5903,1.794-1.6085,2.7831-3.0546.4182-.5903.8315-1.1849,1.2412-1.7843s.8146-1.2043,1.2134-1.8128c.0376-.0764.0861-.143.143-.2-.6291.2285-1.2327.4376-1.8121.6279-.5818.1903-1.1479.3612-1.6994.5139-1.1418.2661-2.0934.6139-2.8546,1.0418-.7612.4285-1.3709.8855-1.8267,1.3703-.4582.4855-.7515.9376-.8849,1.3564-.1333.4182-.2012.7709-.2012,1.0564,0,.1327.0097.2661.0291.3994ZM36.9121,18.7174h.2c.4764,0,1.0182-.1715,1.6279-.5139.6085-.3424,1.2412-.78,1.8982-1.3134.657-.5327,1.28-1.094,1.8691-1.6843.5903-.5897,1.0764-1.0655,1.457-1.4273.2085-.3806.4036-.7515.5843-1.1134.1818-.3618.3758-.7327.5855-1.1134,0-.1715-.0327-.3146-.0994-.4285s-.2049-.1903-.4133-.2285h-.257c-.5333,0-1.143.1667-1.8279.5-.6861.3327-1.3746.7806-2.0703,1.3412-.6946.5618-1.3455,1.1806-1.9552,1.8558-.6097.6758-1.0946,1.3134-1.4558,1.9128-.3612.5994-.5624,1.0182-.5988,1.2564-.0388.2382-.0582.3855-.0582.4424,0,.3042.1721.4758.5139.5139Z"/>
  </g>
  <g>
    <path class="cls-1" d="M49.2155,30.1443c.0518.3281-.0723.5527-.3721.6719-.6523.2715-1.2559.2988-1.8115.0781-.4404-.168-.8262-.4629-1.1582-.8887-.0879-.1152-.1543-.2871-.1982-.5156-.0039-.0234-.0117-.0742-.0244-.1504-.0117-.0742-.0195-.1289-.0234-.1621-.0039-.0312-.0098-.0801-.0186-.1465-.0078-.0664-.0117-.1191-.0117-.1621,0-.041.0029-.0898.0088-.1465s.0156-.1094.0273-.1621c.1318-.541.4023-.9658.8096-1.2773.4082-.3125.876-.4648,1.4043-.457.1484.0039.3262.0469.5342.127.1084.043.3037.1562.5879.3359.0918.0557.1426.1152.1533.1768.0098.0615-.0176.1367-.0811.2256-.0479.0703-.0879.1211-.1201.1484-.0801.0918-.1738.1094-.2822.0488-.0283-.0156-.0752-.043-.1406-.082-.0664-.0371-.1172-.0645-.1533-.0801-.332-.1719-.6807-.2012-1.0469-.0898s-.6387.3301-.8193.6543c-.1113.1992-.1494.4414-.1133.7227.0352.2812.1318.5117.2871.6875.2324.2637.498.4512.7988.5645.2314.0879.5078.0977.8271.0293.1006-.0234.1719-.1016.2139-.2344s.0322-.2402-.0273-.3242c-.0361-.0391-.0781-.0605-.126-.0605-.0439-.0039-.1084-.0059-.1924-.0059-.1074-.0039-.1836-.0254-.2275-.0645-.0439-.041-.0742-.1133-.0898-.2168-.0205-.1523-.001-.2598.0566-.3203.0576-.0625.165-.0918.3213-.0879.0273,0,.0791.0039.1523.0098.0742.0059.1338.0098.1777.0137h.3955c.0918.0098.1553.0293.1895.0645.0332.0332.0547.0957.0625.1875.0078.0977.0078.1934,0,.2891-.0156.1953-.0059.3965.0303.5996Z"/>
    <path class="cls-1" d="M52.8933,30.2713c.1641.0039.2754.0586.3359.1641.0596.1055.0498.2324-.0303.3809-.0439.0762-.126.1211-.2461.1328-.0762.0117-.2451.0137-.5068.0059s-.4307-.0117-.5068-.0117h-.9482c-.1357,0-.2305-.0332-.2822-.0957-.0518-.0566-.0713-.125-.0596-.2051.0195-.1562.0176-.4121-.0059-.7676-.0039-.0566-.0059-.3965-.0059-1.0195,0-.7207-.0186-1.2607-.0547-1.6211-.0156-.1318-.002-.2227.042-.2725s.1357-.0791.2764-.0869c.4277-.0322.7656-.0361,1.0137-.0117.1357.0039.2285.0059.2764.0059s.1387-.0039.2725-.0117c.1348-.0088.2256-.0146.2734-.0186.0195-.0039.0518-.0068.0957-.0068s.0781-.002.1025-.0059c.0596,0,.1055.0127.1377.0371.0322.0195.0576.043.0781.0684.0195.0254.0332.0566.0391.0898.0059.0342.0098.0625.0117.0879.002.0234.0029.0566.0029.0977v.0938c.0039.1162-.0674.1875-.2158.2158-.0957.0283-.1836.0361-.2637.0244-.1006-.0078-.2051-.0137-.3154-.0156s-.2373,0-.3809.0039-.25.0059-.3184.0059c-.1641,0-.2656.0205-.3057.0625s-.0557.1426-.0479.3027c.0078.1836.0078.3203,0,.4082-.0078.084,0,.1387.0234.166.0244.0254.0762.041.1562.0449,0,.0039.1045.0059.3125.0059l.3174-.0059c.2158,0,.3779.002.4863.0059.0996.0039.1709.0254.2129.0645.042.041.0693.1113.0811.2109.0078.0488.0098.0879.0059.1191,0,.0879-.0137.1484-.042.1816-.0283.0312-.0859.0547-.1738.0703-.0918.0176-.1963.0254-.3125.0254-.1797.0039-.4453.0059-.7979.0059-.1279,0-.2129.0215-.2549.0664-.042.043-.0586.127-.0508.252.0039.1035.0137.2559.0303.4551.0117.1113.0596.1934.1436.2461.0518.0273.1064.043.1621.043.2598,0,.5098.0039.75.0137s.3701.0078.3896-.0078h.0967Z"/>
    <path class="cls-1" d="M58.1667,29.0877c-.0039.1172,0,.3242.0127.6211.0117.2988.0117.5293,0,.6934-.0166.209-.0322.3613-.0479.457-.0205.1465-.0732.2422-.1592.2812s-.1914.0195-.3154-.0605c-.0596-.0312-.126-.0918-.1982-.1797-.0918-.1074-.2695-.3203-.5332-.6348-.2646-.3164-.4688-.5605-.6123-.7324-.3398-.3965-.5537-.6602-.6426-.793-.0195-.0234-.042-.0449-.0654-.0664-.0723-.043-.124-.0566-.1562-.041-.0234.0156-.0361.0605-.0361.1328,0,.3789.0039.9453.0127,1.6973,0,.1309-.0068.2598-.0186.3848-.0078.0742-.0293.1289-.0625.1602-.0342.0332-.0918.0527-.1709.0605-.0244,0-.0605.002-.1084.0059s-.084.0059-.1084.0059c-.1074,0-.1855-.0195-.2334-.0625-.0479-.041-.0723-.1152-.0723-.2188,0-.1445-.0068-.3691-.0215-.6777-.0137-.3086-.0186-.543-.0146-.7031.0078-.2598.0137-.625.0186-1.0938.0039-.4707.0078-.7812.0117-.9336,0-.0078-.001-.0381-.0029-.0898-.002-.0527-.002-.0879,0-.1074.002-.0205.0117-.0449.0293-.0723.0186-.0283.0479-.0508.0879-.0664.1914-.0645.3477-.0293.4678.1016.168.168.3594.375.5762.6191.2754.2949.5039.5664.6836.8145.1602.2207.3496.4395.5703.6543.0635.0645.1055.1035.126.1152.04.0273.0762.0332.1074.0137.0322-.0176.0508-.0527.0547-.1035v-1.9326c0-.124.0156-.2021.0479-.2344s.1074-.0498.2275-.0537c.0166-.0039.04-.0059.0723-.0059.2119.0078.3418.0332.3896.0781.0488.043.0762.1777.084.4014v1.5654Z"/>
    <path class="cls-1" d="M62.8288,27.4451c-.0039.1875-.002.4355.0059.7461s.0117.5996.0098.8672c-.0029.2676-.0176.5176-.0459.75-.0674.5488-.3477.9336-.8398,1.1582-.4121.1953-.8262.2402-1.2422.1328-.4873-.1367-.834-.459-1.0371-.9668-.0605-.1523-.1025-.4199-.126-.8047-.0205-.2793-.0225-.5527-.0068-.8223v-1.0371c.0039-.0801.0088-.1465.0127-.1982s.0137-.0957.0293-.1318c.0166-.0361.0293-.0625.0391-.0811.0107-.0186.0322-.0303.0664-.0391.0342-.0078.0596-.0117.0781-.0117h.249c.1318,0,.2168.0186.2549.0566s.0566.126.0566.2607c0,.0762-.0029.3066-.0088.6895-.0059.3848-.0049.6152.0029.6914.0078.5312.0225.8594.042.9844.0283.1758.0938.3281.1982.4551.2119.2441.4502.3574.7139.3418.1562-.0117.2949-.0645.417-.1562s.2109-.1992.2666-.3242c.04-.0801.0605-.2207.0605-.4258v-.5566c0-.3047.0039-.5391.0117-.7031.0039-.0723.0098-.1875.0186-.3477.0078-.1602.0127-.2754.0146-.3447.002-.0703.001-.1846-.0029-.3447-.0039-.1084.0117-.1807.0479-.2168.0361-.0352.1104-.0576.2217-.0664.2119-.0117.3486.0078.4082.0576.0605.0498.0879.1787.084.3877Z"/>
    <path class="cls-1" d="M66.8727,29.658c.1006.3047.0605.623-.1201.957-.1797.334-.4678.5352-.8633.6035-.0322.0039-.1406.0156-.3242.0352-.5156-.0508-.9404-.2344-1.2725-.5508-.0117-.0039-.0234-.0156-.0352-.0371-.0449-.0547-.0557-.1191-.0332-.1875.0215-.0703.0811-.1719.1768-.3047.0879-.1113.1943-.1348.3184-.0703.04.0195.1016.0664.1855.1426s.1484.127.1924.1504c.2158.1035.4639.1055.7441.0059.1592-.0605.25-.1602.2695-.2988.0205-.1406-.0361-.2637-.168-.3672-.168-.1445-.3857-.2617-.6543-.3535-.3359-.1113-.5781-.252-.7256-.4199-.2959-.332-.3857-.7266-.2705-1.1816.0967-.4004.3389-.6582.7266-.7744.5596-.1641,1.0977-.0703,1.6143.2822.0957.0635.1172.1436.0654.2402-.0039.0078-.0137.0293-.0303.0654-.0156.0361-.0293.0635-.042.084-.0674.1279-.1318.2002-.1914.2178-.0605.0195-.1562-.0039-.2881-.0684s-.2578-.1152-.3779-.1553c-.2119-.0684-.4238-.0225-.6357.1377-.0723.0527-.1143.1074-.126.1641-.0127.0586-.0029.1328.0293.2207.0684.168.21.3008.4268.4023.0479.0234.291.1309.7314.3223.3398.1445.5664.3906.6777.7383Z"/>
    <path class="cls-1" d="M70.947,29.658c.1006.3047.0605.623-.1201.957-.1797.334-.4678.5352-.8633.6035-.0322.0039-.1406.0156-.3242.0352-.5156-.0508-.9404-.2344-1.2725-.5508-.0117-.0039-.0234-.0156-.0352-.0371-.0449-.0547-.0557-.1191-.0332-.1875.0215-.0703.0811-.1719.1768-.3047.0879-.1113.1943-.1348.3184-.0703.04.0195.1016.0664.1855.1426s.1484.127.1924.1504c.2158.1035.4639.1055.7441.0059.1592-.0605.25-.1602.2695-.2988.0205-.1406-.0361-.2637-.168-.3672-.168-.1445-.3857-.2617-.6543-.3535-.3359-.1113-.5781-.252-.7256-.4199-.2959-.332-.3857-.7266-.2705-1.1816.0967-.4004.3389-.6582.7266-.7744.5596-.1641,1.0977-.0703,1.6143.2822.0957.0635.1172.1436.0654.2402-.0039.0078-.0137.0293-.0303.0654-.0156.0361-.0293.0635-.042.084-.0674.1279-.1318.2002-.1914.2178-.0605.0195-.1562-.0039-.2881-.0684s-.2578-.1152-.3779-.1553c-.2119-.0684-.4238-.0225-.6357.1377-.0723.0527-.1143.1074-.126.1641-.0127.0586-.0029.1328.0293.2207.0684.168.21.3008.4268.4023.0479.0234.291.1309.7314.3223.3398.1445.5664.3906.6777.7383Z"/>
    <path class="cls-1" d="M76.0778,27.0066c.1719.0283.2275.126.168.2939-.0166.04-.0439.0996-.084.1797-.2803.5801-.7764,1.6797-1.4883,3.3008-.0244.0586-.0684.1465-.1318.2578-.0566.1074-.1504.1602-.2822.1582s-.2197-.0703-.2637-.207c-.0566-.1602-.1924-.4766-.4082-.9531-.084-.1875-.1729-.3887-.2666-.6035-.0947-.2129-.1982-.4512-.3125-.7148-.1143-.2617-.2031-.4648-.2666-.6074-.0322-.0684-.085-.1758-.1592-.3184-.0742-.1445-.127-.2539-.1592-.3301-.0762-.168-.0928-.2861-.0508-.3535.042-.0684.1562-.1025.3447-.1025.1523,0,.2588.0205.3213.0635.0615.041.1191.1309.1709.2666.1963.5205.4316,1.0654.708,1.6377.0273.0566.0635.1367.1074.2422.0439.1074.0879.2031.1299.291.042.0898.0869.1719.1348.2461.0439-.0352.0898-.1113.1377-.2266.3477-.8809.6484-1.584.9004-2.1133.0078-.0234.0234-.0596.0479-.1074.0234-.0479.042-.084.0537-.1074.0684-.1758.1963-.248.3838-.2168.0322.0039.0771.0078.1357.0117.0576.0039.1006.0088.1289.0127Z"/>
    <path class="cls-1" d="M81.9089,28.7224c.0879.4004.0459.7988-.126,1.1973s-.4336.7012-.7861.9082c-.3682.2168-.8438.3301-1.4277.3418-.54-.0117-1.0137-.2461-1.4219-.7012-.2363-.2598-.3926-.5508-.4707-.873s-.085-.6348-.0215-.9355c.0645-.3027.1836-.5938.3604-.873.0479-.084.1094-.1582.1855-.2227.1484-.1191.2686-.2139.3604-.2812.0918-.0684.2109-.1377.3564-.207.1465-.0703.291-.1152.4355-.1348.6797-.0928,1.2441.041,1.6914.4014.4521.3682.7402.8271.8643,1.3799ZM81.1169,29.2088c.0205-.1328.0127-.2559-.0234-.373-.0361-.1152-.0986-.25-.1865-.4004-.2559-.4766-.6338-.7148-1.1338-.7148-.1924.0078-.3125.0195-.3604.0352-.5312.1562-.8516.5234-.96,1.0996-.1113.5801.0664.9961.5342,1.248.0156.0078.0332.0176.0508.0293.0186.0117.0381.0254.0605.041.0215.0176.0391.0293.0508.0371.2041.1074.4141.166.6299.1777.2158.0098.415-.0273.5967-.1094.1826-.082.3418-.2148.4775-.4023.1357-.1855.2236-.4082.2637-.668Z"/>
    <path class="cls-1" d="M85.7067,30.5349v.2207c-.0078.1133-.0684.1758-.1797.1875-.2246.0234-.3945.0332-.5107.0293-.5996-.0234-1.0498-.0391-1.3496-.0488-.1201-.0039-.1953-.0176-.2246-.0449-.0303-.0254-.0479-.0957-.0518-.2129v-1.3555c0-.8047-.0156-1.377-.0479-1.7158-.0039-.04-.0107-.0986-.0205-.1768s-.0176-.1367-.0215-.1777c-.0117-.1152.0029-.1973.0449-.2461.042-.0469.1191-.0693.2314-.0654h.1201c.0635,0,.1172.001.1592.0029s.0771.0098.1074.0215.0518.0215.0664.0293c.0137.0078.0254.0264.0361.0547.0098.0273.0156.0498.0176.0654.002.0166.0039.0479.0059.0967.002.0469.0049.0859.0088.1133.0322.3643.0264.8066-.0176,1.3262-.0205.2832-.0205.5332,0,.75.0117.1289.0176.3203.0176.5762,0,.1367.0244.2285.0723.2793.0479.0488.1377.0703.2705.0625.1035-.0039.252-.0039.4434.0039.1924.0059.3184.0078.3779.0078.1162,0,.2041.0078.2646.0234.1152.0254.1758.0898.1797.1934Z"/>
    <path class="cls-1" d="M89.4684,30.5349v.2207c-.0078.1133-.0684.1758-.1797.1875-.2246.0234-.3945.0332-.5107.0293-.5996-.0234-1.0498-.0391-1.3496-.0488-.1201-.0039-.1953-.0176-.2246-.0449-.0303-.0254-.0479-.0957-.0518-.2129v-1.3555c0-.8047-.0156-1.377-.0479-1.7158-.0039-.04-.0107-.0986-.0205-.1768s-.0176-.1367-.0215-.1777c-.0117-.1152.0029-.1973.0449-.2461.042-.0469.1191-.0693.2314-.0654h.1201c.0635,0,.1172.001.1592.0029s.0771.0098.1074.0215.0518.0215.0664.0293c.0137.0078.0254.0264.0361.0547.0098.0273.0156.0498.0176.0654.002.0166.0039.0479.0059.0967.002.0469.0049.0859.0088.1133.0322.3643.0264.8066-.0176,1.3262-.0205.2832-.0205.5332,0,.75.0117.1289.0176.3203.0176.5762,0,.1367.0244.2285.0723.2793.0479.0488.1377.0703.2705.0625.1035-.0039.252-.0039.4434.0039.1924.0059.3184.0078.3779.0078.1162,0,.2041.0078.2646.0234.1152.0254.1758.0898.1797.1934Z"/>
    <path class="cls-1" d="M96.3854,30.5291c.0723.0723.1113.1348.1172.1914s-.0186.125-.0752.2031c-.2197.3008-.4434.3184-.6719.0547-.0361-.0391-.0918-.0977-.168-.1738-.0674-.0684-.1182-.1035-.1494-.1055-.0322-.002-.082.0312-.1504.0996-.1924.1914-.4424.3203-.75.3848-.332.0781-.6377.0703-.918-.0254-.2959-.0996-.5205-.2598-.6719-.4805-.1523-.2188-.2188-.459-.2012-.7168s.1133-.5039.2852-.7402c.0322-.0391.0664-.0801.1045-.1191.0381-.041.084-.084.1387-.1328.0537-.0488.0928-.082.1172-.1016.0713-.0645.1084-.1172.1104-.1602.002-.041-.0244-.0996-.0811-.1758-.0117-.0215-.0332-.0469-.0625-.082-.0303-.0332-.0488-.0566-.0576-.0684-.248-.3359-.3184-.6719-.2129-1.0059.1064-.333.3477-.5781.7236-.7344.4912-.1992.9297-.1201,1.3135.2402.1719.168.2734.3652.3027.5938.0303.2285-.0186.4453-.1465.6543-.1523.248-.2998.4355-.4443.5645-.0713.0684-.1084.1191-.1104.1523-.0029.0332.0283.0879.0928.1582.0361.0371.1201.1191.252.25.1318.1289.2334.2402.3057.332.0479-.1191.1006-.3457.1562-.6777,0-.0117.002-.0352.0059-.0723.0039-.0352.0078-.0625.0117-.0801s.0117-.041.0215-.0664.0244-.0449.0449-.0605c.0195-.0137.0439-.0234.0723-.0312.168-.041.3232-.0234.4678.0527.0635.0371.0918.1152.084.2344-.0156.2363-.0742.4688-.1738.6953-.0039.0117-.0166.0449-.0361.0996-.0205.0547-.0381.0957-.0537.123-.0723.1562-.0449.293.084.4082.0234.0234.0732.0723.1494.1465s.1338.1309.1738.1719ZM94.8434,30.3123c.0801-.0996.0859-.1875.0186-.2637-.2363-.2598-.4727-.5137-.708-.7617-.0723-.0723-.1445-.084-.2158-.0371-.2646.1973-.4102.4316-.4385.7031-.0039.0645.0186.1484.0664.252.1035.1953.3086.3066.6143.332.3066.0273.5273-.0488.6631-.2246ZM94.028,27.2224c-.1719.0762-.248.21-.2285.4023-.0039.0312-.0029.0645.0029.0977.0068.0352.0117.0625.0156.082s.0146.0488.0332.0859c.0176.0391.0293.0625.0352.0723.0068.0098.0225.0371.0488.0781.0254.043.041.0684.0449.0762.1152.1914.2637.2207.4434.0898.0967-.0684.1904-.1973.2822-.3848.1045-.2031.0859-.375-.0537-.5156-.0684-.0684-.1631-.1094-.2852-.126s-.2354-.002-.3389.042Z"/>
    <path class="cls-1" d="M103.3991,30.1443c.0518.3281-.0723.5527-.3721.6719-.6523.2715-1.2559.2988-1.8115.0781-.4404-.168-.8262-.4629-1.1582-.8887-.0879-.1152-.1543-.2871-.1982-.5156-.0039-.0234-.0117-.0742-.0244-.1504-.0117-.0742-.0195-.1289-.0234-.1621-.0039-.0312-.0098-.0801-.0186-.1465-.0078-.0664-.0117-.1191-.0117-.1621,0-.041.0029-.0898.0088-.1465s.0156-.1094.0273-.1621c.1318-.541.4023-.9658.8096-1.2773.4082-.3125.876-.4648,1.4043-.457.1484.0039.3262.0469.5342.127.1084.043.3037.1562.5879.3359.0918.0557.1426.1152.1533.1768.0098.0615-.0176.1367-.0811.2256-.0479.0703-.0879.1211-.1201.1484-.0801.0918-.1738.1094-.2822.0488-.0283-.0156-.0752-.043-.1406-.082-.0664-.0371-.1172-.0645-.1533-.0801-.332-.1719-.6807-.2012-1.0469-.0898s-.6387.3301-.8193.6543c-.1113.1992-.1494.4414-.1133.7227.0352.2812.1318.5117.2871.6875.2324.2637.498.4512.7988.5645.2314.0879.5078.0977.8271.0293.1006-.0234.1719-.1016.2139-.2344s.0322-.2402-.0273-.3242c-.0361-.0391-.0781-.0605-.126-.0605-.0439-.0039-.1084-.0059-.1924-.0059-.1074-.0039-.1836-.0254-.2275-.0645-.0439-.041-.0742-.1133-.0898-.2168-.0205-.1523-.001-.2598.0566-.3203.0576-.0625.165-.0918.3213-.0879.0273,0,.0791.0039.1523.0098.0742.0059.1338.0098.1777.0137h.3955c.0918.0098.1553.0293.1895.0645.0332.0332.0547.0957.0625.1875.0078.0977.0078.1934,0,.2891-.0156.1953-.0059.3965.0303.5996Z"/>
    <path class="cls-1" d="M107.1725,30.5349v.2207c-.0078.1133-.0684.1758-.1797.1875-.2246.0234-.3945.0332-.5107.0293-.5996-.0234-1.0498-.0391-1.3496-.0488-.1201-.0039-.1953-.0176-.2246-.0449-.0303-.0254-.0479-.0957-.0518-.2129v-1.3555c0-.8047-.0156-1.377-.0479-1.7158-.0039-.04-.0107-.0986-.0205-.1768s-.0176-.1367-.0215-.1777c-.0117-.1152.0029-.1973.0449-.2461.042-.0469.1191-.0693.2314-.0654h.1201c.0635,0,.1172.001.1592.0029s.0771.0098.1074.0215.0518.0215.0664.0293c.0137.0078.0254.0264.0361.0547.0098.0273.0156.0498.0176.0654.002.0166.0039.0479.0059.0967.002.0469.0049.0859.0088.1133.0322.3643.0264.8066-.0176,1.3262-.0205.2832-.0205.5332,0,.75.0117.1289.0176.3203.0176.5762,0,.1367.0244.2285.0723.2793.0479.0488.1377.0703.2705.0625.1035-.0039.252-.0039.4434.0039.1924.0059.3184.0078.3779.0078.1162,0,.2041.0078.2646.0234.1152.0254.1758.0898.1797.1934Z"/>
    <path class="cls-1" d="M111.8161,27.4451c-.0039.1875-.002.4355.0059.7461s.0117.5996.0098.8672c-.0029.2676-.0176.5176-.0459.75-.0674.5488-.3477.9336-.8398,1.1582-.4121.1953-.8262.2402-1.2422.1328-.4873-.1367-.834-.459-1.0371-.9668-.0605-.1523-.1025-.4199-.126-.8047-.0205-.2793-.0225-.5527-.0068-.8223v-1.0371c.0039-.0801.0088-.1465.0127-.1982s.0137-.0957.0293-.1318c.0166-.0361.0293-.0625.0391-.0811.0107-.0186.0322-.0303.0664-.0391.0342-.0078.0596-.0117.0781-.0117h.249c.1318,0,.2168.0186.2549.0566s.0566.126.0566.2607c0,.0762-.0029.3066-.0088.6895-.0059.3848-.0049.6152.0029.6914.0078.5312.0225.8594.042.9844.0283.1758.0938.3281.1982.4551.2119.2441.4502.3574.7139.3418.1562-.0117.2949-.0645.417-.1562s.2109-.1992.2666-.3242c.04-.0801.0605-.2207.0605-.4258v-.5566c0-.3047.0039-.5391.0117-.7031.0039-.0723.0098-.1875.0186-.3477.0078-.1602.0127-.2754.0146-.3447.002-.0703.001-.1846-.0029-.3447-.0039-.1084.0117-.1807.0479-.2168.0361-.0352.1104-.0576.2217-.0664.2119-.0117.3486.0078.4082.0576.0605.0498.0879.1787.084.3877Z"/>
    <path class="cls-1" d="M115.6921,26.9939c.168-.0117.2803.0146.3359.0781.0566.0645.0703.1826.042.3545l-.0176.0957c-.0205.085-.0439.1396-.0723.165-.0273.0254-.084.041-.168.0449-.2197.0039-.4375.0039-.6533,0-.0527,0-.0908.0098-.1143.0293-.0244.0215-.0342.0566-.0303.1094.0039.0273.0059.0684.0059.1191.0039.1367.0088.3281.0156.5742.0059.2461.0107.4688.0146.6719.0039.2012.0059.3926.0059.5723,0,.3281-.0117.6582-.0361.9902-.0039.1523-.0654.2637-.1855.332-.1201.0703-.252.0781-.3965.0215-.1074-.0469-.166-.1465-.1738-.293-.0117-.1895-.0176-.375-.0176-.5586v-.7266c.0039-.0879.0078-.3242.0117-.7109.0039-.3848.0137-.6797.0303-.8848.0078-.123-.001-.1992-.0273-.2246-.0264-.0273-.1035-.0391-.2314-.0391l-.4854.0176c-.1641,0-.2666-.0459-.3066-.1377-.0801-.1846-.0752-.3564.0127-.5166.0195-.043.0752-.0693.168-.0781.7998-.0234,1.3633-.0273,1.6914-.0117.2285.0166.4219.0186.582.0059Z"/>
    <path class="cls-1" d="M119.7487,30.2713c.1641.0039.2754.0586.3359.1641.0596.1055.0498.2324-.0303.3809-.0439.0762-.126.1211-.2461.1328-.0762.0117-.2451.0137-.5068.0059s-.4307-.0117-.5068-.0117h-.9482c-.1357,0-.2305-.0332-.2822-.0957-.0518-.0566-.0713-.125-.0596-.2051.0195-.1562.0176-.4121-.0059-.7676-.0039-.0566-.0059-.3965-.0059-1.0195,0-.7207-.0186-1.2607-.0547-1.6211-.0156-.1318-.002-.2227.042-.2725s.1357-.0791.2764-.0869c.4277-.0322.7656-.0361,1.0137-.0117.1357.0039.2285.0059.2764.0059s.1387-.0039.2725-.0117c.1348-.0088.2256-.0146.2734-.0186.0195-.0039.0518-.0068.0957-.0068s.0781-.002.1025-.0059c.0596,0,.1055.0127.1377.0371.0322.0195.0576.043.0781.0684.0195.0254.0332.0566.0391.0898.0059.0342.0098.0625.0117.0879.002.0234.0029.0566.0029.0977v.0938c.0039.1162-.0674.1875-.2158.2158-.0957.0283-.1836.0361-.2637.0244-.1006-.0078-.2051-.0137-.3154-.0156s-.2373,0-.3809.0039-.25.0059-.3184.0059c-.1641,0-.2656.0205-.3057.0625s-.0557.1426-.0479.3027c.0078.1836.0078.3203,0,.4082-.0078.084,0,.1387.0234.166.0244.0254.0762.041.1562.0449,0,.0039.1045.0059.3125.0059l.3174-.0059c.2158,0,.3779.002.4863.0059.0996.0039.1709.0254.2129.0645.042.041.0693.1113.0811.2109.0078.0488.0098.0879.0059.1191,0,.0879-.0137.1484-.042.1816-.0283.0312-.0859.0547-.1738.0703-.0918.0176-.1963.0254-.3125.0254-.1797.0039-.4453.0059-.7979.0059-.1279,0-.2129.0215-.2549.0664-.042.043-.0586.127-.0508.252.0039.1035.0137.2559.0303.4551.0117.1113.0596.1934.1436.2461.0518.0273.1064.043.1621.043.2598,0,.5098.0039.75.0137s.3701.0078.3896-.0078h.0967Z"/>
    <path class="cls-1" d="M125.0222,29.0877c-.0039.1172,0,.3242.0127.6211.0117.2988.0117.5293,0,.6934-.0166.209-.0322.3613-.0479.457-.0205.1465-.0732.2422-.1592.2812s-.1914.0195-.3154-.0605c-.0596-.0312-.126-.0918-.1982-.1797-.0918-.1074-.2695-.3203-.5332-.6348-.2646-.3164-.4688-.5605-.6123-.7324-.3398-.3965-.5537-.6602-.6426-.793-.0195-.0234-.042-.0449-.0654-.0664-.0723-.043-.124-.0566-.1562-.041-.0234.0156-.0361.0605-.0361.1328,0,.3789.0039.9453.0127,1.6973,0,.1309-.0068.2598-.0186.3848-.0078.0742-.0293.1289-.0625.1602-.0342.0332-.0918.0527-.1709.0605-.0244,0-.0605.002-.1084.0059s-.084.0059-.1084.0059c-.1074,0-.1855-.0195-.2334-.0625-.0479-.041-.0723-.1152-.0723-.2188,0-.1445-.0068-.3691-.0215-.6777-.0137-.3086-.0186-.543-.0146-.7031.0078-.2598.0137-.625.0186-1.0938.0039-.4707.0078-.7812.0117-.9336,0-.0078-.001-.0381-.0029-.0898-.002-.0527-.002-.0879,0-.1074.002-.0205.0117-.0449.0293-.0723.0186-.0283.0479-.0508.0879-.0664.1914-.0645.3477-.0293.4678.1016.168.168.3594.375.5762.6191.2754.2949.5039.5664.6836.8145.1602.2207.3496.4395.5703.6543.0635.0645.1055.1035.126.1152.04.0273.0762.0332.1074.0137.0322-.0176.0508-.0527.0547-.1035v-1.9326c0-.124.0156-.2021.0479-.2344s.1074-.0498.2275-.0537c.0166-.0039.04-.0059.0723-.0059.2119.0078.3418.0332.3896.0781.0488.043.0762.1777.084.4014v1.5654Z"/>
    <path class="cls-1" d="M128.6042,26.8259c.1602,0,.2754.043.3457.1289.0693.0869.0889.209.0566.3691-.0205.0928-.0781.1543-.1738.1865-.0605.0205-.1807.0342-.3604.042-.1123.0078-.2715.002-.4795-.0176-.208-.0205-.3545-.0303-.4385-.0303-.2324-.0039-.3711.0166-.417.0635-.0459.0449-.0674.1836-.0625.416,0,.1836.0059.3203.0176.4082.0156.1406.0439.2285.084.2676.04.0371.1279.0566.2637.0566.1963,0,.4941-.0078.8945-.0234.0078,0,.0234-.002.0479-.0039s.04-.002.0479-.002c.1357,0,.2344.0488.2939.1465.0605.0977.0625.207.0059.3262-.0361.0801-.1074.1211-.2158.1211-.1719.0039-.4297.0059-.7734.0059-.0449.0039-.1123.0059-.2041.0059h-.21c-.0928.0078-.1504.0254-.1748.0508-.0234.0254-.0352.084-.0352.1719-.0088.3555.002.6445.0293.8691.0166.1484.0186.2598.0059.3359-.0195.1328-.0996.207-.2393.2227-.0684.0039-.1348.0039-.1982,0-.1006-.0078-.1699-.0332-.21-.0762-.04-.041-.0625-.1133-.0664-.2129-.0322-.5586-.0381-1.0684-.0176-1.5234.0039-.0762-.0059-.6641-.0303-1.7637v-.168c0-.125.0225-.2129.0664-.2646s.1318-.0752.2637-.0713c.0723.0039.1836.0059.3359.0059h.2881c.3398.0312.6855.0215,1.0381-.0303.0479-.0088.1221-.0127.2217-.0127Z"/>
    <path class="cls-1" d="M132.6657,29.2986c-.0156.0078-.0381.0215-.0654.041-.0283.0215-.0459.0332-.0547.0371-.0078.0039-.0195.0137-.0352.0273-.0166.0137-.0254.0215-.0273.0234s-.0049.0117-.0088.0273-.0039.0273,0,.0332.0098.0176.0176.0391c.0078.0195.0156.0371.0244.0508.0078.0137.0195.0371.0361.0684.0596.1113.1904.2754.3926.4883.2021.2148.333.3691.3926.4668.0322.0547.0547.0996.0664.1309.0957.2285.0195.3457-.2275.3535-.2686,0-.4355-.0176-.502-.0527-.0654-.0371-.1543-.168-.2666-.3965-.0557-.1191-.1768-.3105-.3633-.5723-.1855-.2617-.2969-.4258-.333-.4902-.0596-.0996-.1572-.1562-.2939-.1699-.1357-.0137-.21.0137-.2217.0859-.0156.0762-.0244.1543-.0244.2344l-.0059.4688c-.0039.3105.0039.4668.0244.4668.0195.1484.0059.248-.042.2969-.0479.0508-.1504.0762-.3057.0762h-.0186l-.0059.0059c-.1719,0-.2852-.0254-.3389-.0762-.0547-.0488-.083-.1602-.0869-.332,0-.0039-.0059-.4453-.0186-1.3262v-.3906h-.0059v-1.5469c0-.0723.002-.1289.0059-.168.0078-.1006.0322-.1699.0723-.2109.04-.0391.1104-.0674.21-.084.0557-.0078.0957-.0117.1201-.0117.1797.0156.4336.0215.7617.0176s.582-.002.7617.0059c.4043.0254.7109.2051.9189.541.2197.3633.3096.6914.2695.9844-.0439.3066-.2979.584-.7617.8281-.0205.0078-.04.0176-.0605.0293ZM132.1442,28.8064c.1553-.0039.2891-.0703.3984-.1973.1104-.1289.1611-.2773.1533-.4453-.0078-.1348-.0645-.248-.168-.3379-.1045-.0898-.2363-.1367-.3965-.1416h-.3809c-.1699,0-.2988-.002-.3867-.0059-.0645,0-.1084.0127-.1318.0361-.0244.0273-.0361.0742-.0361.1367,0,.0332-.001.0684-.0029.1055-.002.0391-.0049.082-.0088.1289-.0039.0488-.0059.084-.0059.1094,0,.0156-.0039.0918-.0098.2305s-.0049.2188.0029.2422c0,.0566.0186.0996.0547.127.0156.0156.04.0234.0713.0234.2002.0078.332.0117.3965.0117.0635,0,.1543-.0039.2695-.0117.1162-.0078.1768-.0117.1807-.0117Z"/>
    <path class="cls-1" d="M137.1599,30.2713c.1641.0039.2754.0586.3359.1641.0596.1055.0498.2324-.0303.3809-.0439.0762-.126.1211-.2461.1328-.0762.0117-.2451.0137-.5068.0059s-.4307-.0117-.5068-.0117h-.9482c-.1357,0-.2305-.0332-.2822-.0957-.0518-.0566-.0713-.125-.0596-.2051.0195-.1562.0176-.4121-.0059-.7676-.0039-.0566-.0059-.3965-.0059-1.0195,0-.7207-.0186-1.2607-.0547-1.6211-.0156-.1318-.002-.2227.042-.2725s.1357-.0791.2764-.0869c.4277-.0322.7656-.0361,1.0137-.0117.1357.0039.2285.0059.2764.0059s.1387-.0039.2725-.0117c.1348-.0088.2256-.0146.2734-.0186.0195-.0039.0518-.0068.0957-.0068s.0781-.002.1025-.0059c.0596,0,.1055.0127.1377.0371.0322.0195.0576.043.0781.0684.0195.0254.0332.0566.0391.0898.0059.0342.0098.0625.0117.0879.002.0234.0029.0566.0029.0977v.0938c.0039.1162-.0674.1875-.2158.2158-.0957.0283-.1836.0361-.2637.0244-.1006-.0078-.2051-.0137-.3154-.0156s-.2373,0-.3809.0039-.25.0059-.3184.0059c-.1641,0-.2656.0205-.3057.0625s-.0557.1426-.0479.3027c.0078.1836.0078.3203,0,.4082-.0078.084,0,.1387.0234.166.0244.0254.0762.041.1562.0449,0,.0039.1045.0059.3125.0059l.3174-.0059c.2158,0,.3779.002.4863.0059.0996.0039.1709.0254.2129.0645.042.041.0693.1113.0811.2109.0078.0488.0098.0879.0059.1191,0,.0879-.0137.1484-.042.1816-.0283.0312-.0859.0547-.1738.0703-.0918.0176-.1963.0254-.3125.0254-.1797.0039-.4453.0059-.7979.0059-.1279,0-.2129.0215-.2549.0664-.042.043-.0586.127-.0508.252.0039.1035.0137.2559.0303.4551.0117.1113.0596.1934.1436.2461.0518.0273.1064.043.1621.043.2598,0,.5098.0039.75.0137s.3701.0078.3896-.0078h.0967Z"/>
    <path class="cls-1" d="M139.6559,27.031c.0273.0801.0381.1777.0293.293-.0352.332-.0498.7969-.042,1.3926.0088.5957.0039,1.0645-.0117,1.4043-.0039.0391-.0039.1445,0,.3145s-.002.2754-.0176.3145c-.0166.084-.0371.1406-.0635.166s-.0811.0449-.165.0566h-.0723c-.1592.0078-.2676-.0156-.3232-.0723-.0527-.0547-.0723-.1562-.0605-.2988.0127-.1367.0176-.3262.0156-.5703s.001-.4336.0088-.5703c.0039-.125.0059-.3398.0059-.6484-.0039-.3125-.0244-.7969-.0596-1.4512,0-.0039-.0068-.084-.0186-.2402-.0078-.0645.0137-.123.0664-.1738.0479-.0566.1523-.0898.3145-.1025s.2715.0078.3271.0596c.0283.0244.0498.0664.0664.127Z"/>
    <path class="cls-1" d="M143.4294,28.5486c-.0039.1562-.0059.6172-.0059,1.3867v.4551c.0039.3047.0039.457,0,.457-.0156.5078-.0176.8887-.0059,1.1445.0039.0801,0,.168-.0117.2637-.0205.0938-.0742.1445-.1621.1562-.0879.0078-.1543-.0273-.1982-.1074-.0439-.0723-.0664-.166-.0664-.2812,0-.5215.002-.832.0068-.9375.0078-.2598.0078-.6504,0-1.1758-.0205-.1758-.0244-.4863-.0127-.9316.0127-.4473.0146-.7578.0059-.9336-.0039-.1133-.0059-.7803-.0059-2.0039,0-.2207.0723-.3301.2158-.3301.1484,0,.2246.1094.2285.3301.0039.0879.002.2119-.0059.3711-.0205.5645-.0078,1.0449.0361,1.4395.0078.0898.0068.2148-.0029.3789-.0107.1641-.0156.2695-.0156.3184Z"/>
    <path class="cls-1" d="M149.4108,29.658c.1006.3047.0605.623-.1201.957-.1797.334-.4678.5352-.8633.6035-.0322.0039-.1406.0156-.3242.0352-.5156-.0508-.9404-.2344-1.2725-.5508-.0117-.0039-.0234-.0156-.0352-.0371-.0449-.0547-.0557-.1191-.0332-.1875.0215-.0703.0811-.1719.1768-.3047.0879-.1113.1943-.1348.3184-.0703.04.0195.1016.0664.1855.1426s.1484.127.1924.1504c.2158.1035.4639.1055.7441.0059.1592-.0605.25-.1602.2695-.2988.0205-.1406-.0361-.2637-.168-.3672-.168-.1445-.3857-.2617-.6543-.3535-.3359-.1113-.5781-.252-.7256-.4199-.2959-.332-.3857-.7266-.2705-1.1816.0967-.4004.3389-.6582.7266-.7744.5596-.1641,1.0977-.0703,1.6143.2822.0957.0635.1172.1436.0654.2402-.0039.0078-.0137.0293-.0303.0654-.0156.0361-.0293.0635-.042.084-.0674.1279-.1318.2002-.1914.2178-.0605.0195-.1562-.0039-.2881-.0684s-.2578-.1152-.3779-.1553c-.2119-.0684-.4238-.0225-.6357.1377-.0723.0527-.1143.1074-.126.1641-.0127.0586-.0029.1328.0293.2207.0684.168.21.3008.4268.4023.0479.0234.291.1309.7314.3223.3398.1445.5664.3906.6777.7383Z"/>
    <path class="cls-1" d="M154.2409,29.9998c.1523.1289.2285.2266.2285.2949s-.0801.1641-.2402.2871c-.3555.2695-.7773.4062-1.2656.4141-.8164,0-1.4277-.3379-1.8359-1.0137-.1807-.2988-.2852-.6172-.3154-.9531s.0273-.6641.1709-.9824c.1445-.3184.3662-.582.666-.7939.7764-.54,1.5684-.6104,2.376-.21.1318.0645.2422.1436.3301.2402.0605.0674.0898.123.0898.168.0039.0596-.0059.1104-.0293.1523-.0244.042-.0684.0898-.1318.1445-.0645.0527-.1025.0859-.1143.0977-.0684.0762-.1562.082-.2646.0195-.04-.0215-.1016-.0547-.1855-.1035-.084-.0469-.1484-.083-.1924-.1074-.4238-.2314-.8496-.1953-1.2773.1074-.1318.0938-.2461.209-.3428.3496-.1279.1875-.2041.3984-.2305.6328s-.0049.4375.0625.6094c.04.1191.0947.2305.1621.3359.1367.1992.2803.3379.4326.4141.0918.0508.1777.0898.2578.1133.1924.0645.3896.0742.5938.0293.168-.0352.3662-.127.5938-.2754.1162-.0723.1973-.1055.2432-.1016s.1191.0469.2188.1309Z"/>
    <path class="cls-1" d="M159.1794,29.406c.0234.5293.0342.9219.0303,1.1816,0,.1523-.0205.25-.0605.2949-.0195.0195-.042.0352-.0654.0488-.1562.0742-.3281.0762-.5166.0059-.0596-.0254-.0898-.0918-.0898-.2051.0039-.2441.0059-.6074.0059-1.0918,0-.291-.0098-.498-.0303-.6211-.0195-.1211-.0527-.2031-.0986-.2422-.0459-.041-.1289-.0645-.249-.0723-.46-.041-.8799-.0469-1.2598-.0176-.1318.0117-.2109.0293-.2373.0566-.0254.0254-.0488.1055-.0684.2363-.0205.1875-.0312.4531-.0332.793s.0088.6016.0332.7852v.0234c.0039.2246-.0361.3594-.1201.4023-.084.0449-.2266.041-.4268-.0117-.0596-.0117-.1035-.0508-.1318-.1133-.0273-.0645-.0342-.1426-.0176-.2344.0156-.0996.0234-.2852.0234-.5527l-.0537-2.6152v-.1445c0-.1719.0225-.2812.0664-.3301.0439-.0479.1475-.0781.3115-.0898.1045-.0078.1826.0098.2344.0508.0518.043.0801.1152.084.2188.0156.1729.0137.4062-.0059.7031,0,.0586.0225.1035.0684.1309.0459.0293.1309.0449.2549.0488h.6484c.3564.0078.6162.0059.7803-.0059.1514-.0117.2334-.084.2461-.2168l.0117-.1621c.0039-.0635.002-.1533-.0059-.2695-.0078-.1152-.0127-.1934-.0127-.2344-.0039-.0918.0107-.1533.043-.1855.0312-.0312.0938-.0518.1855-.0605.2197-.0117.3604.0137.4199.0762.0596.0615.0781.2002.0537.416-.0078.084-.0117.2764-.0117.5762,0,.0645-.0029.3027-.0088.7148s-.0049.6484.0029.7129Z"/>
    <path class="cls-1" d="M165.2936,27.0369c.0762.0195.125.0469.1465.0801.0225.0352.0293.0898.0215.166-.0322.3154-.0918.5898-.1807.8203-.0918.2363-.1748.4805-.249.7305-.0732.25-.1592.5645-.2578.9414-.0977.3789-.1631.625-.1943.7422-.0645.2305-.1123.3848-.1445.4609-.0479.1113-.124.1758-.2275.1914-.0967.0176-.1689.0098-.2197-.0195-.0498-.0312-.0908-.0957-.123-.1953-.0439-.1367-.0938-.2812-.1494-.4316-.0566-.1523-.1191-.3203-.1895-.502-.0693-.1816-.125-.3242-.165-.4297-.1641-.4238-.2793-.7832-.3477-1.0781-.2119.4824-.3857.9707-.5225,1.4629-.0557.2129-.126.4609-.21.7441-.0352.1113-.0713.2109-.1074.2949-.0645.1309-.1758.1934-.3359.1855-.124,0-.208-.0723-.252-.2168-.0322-.0996-.0742-.2422-.126-.4258-.0527-.1836-.0859-.3066-.1025-.3652-.2041-.752-.4482-1.6367-.7314-2.6523-.0479-.1836-.0703-.3027-.0664-.3545.0039-.0596.0195-.1064.0449-.1377.0264-.0322.0693-.0459.1289-.042.04.0039.0977.0039.1709,0,.0742-.0039.123-.0068.1475-.0068.1123.0049.1875.0234.2275.0576s.0703.1064.0908.2197c.0352.1719.0635.3135.084.4258.0195.1348.0703.3281.1523.5781s.1348.4375.1592.5605c.0117.0645.0645.2734.1562.625.0195-.0039.0361-.0098.0479-.0156s.0205-.0137.0273-.0273c.0059-.0117.0098-.0195.0117-.0254s.0049-.0176.0088-.0332.0059-.0273.0059-.0312l.5762-1.8711c.0117-.04.0342-.0996.0664-.1797.0801-.2012.2012-.2969.3652-.2891.0967.0039.1689.0293.2197.0723.0498.0449.0908.125.123.2402.0156.0527.1396.4277.3721,1.1289.0674.1953.1777.4883.3301.8809,0,.0039.002.0117.0059.0215s.0068.0176.0088.0234.0049.0137.0088.0215.0107.0137.0215.0176c.0098.0039.0205.0059.0322.0059.0684-.0996.1221-.2695.1621-.5098.04-.2031.1035-.4902.1895-.8613.0859-.3691.1426-.625.1709-.7646.0234-.1123.0508-.1797.0811-.2041.0303-.0234.1045-.0391.2246-.0479.1201-.0117.2246-.0059.3125.0186Z"/>
    <path class="cls-1" d="M170.0329,27.0369c.1123.0195.1836.0625.2139.1289.0293.0664.0127.1445-.0518.2363-.0439.0684-.1104.1621-.2002.2822-.0908.1201-.1416.1904-.1533.21l-.8281,1.1582c-.0801.1035-.1182.2246-.1143.3594.0039.1367.0068.3379.0088.6074.002.2676.0039.4688.0039.6055,0,.127-.0029.2246-.0068.2871-.0078.1094-.0352.1836-.084.2266-.0479.041-.124.0586-.2275.0508-.2197-.0215-.3623-.0605-.4258-.1172-.0645-.0586-.0859-.1953-.0664-.4121.0283-.3281.0381-.7617.0303-1.3008,0-.1367-.0361-.2559-.1084-.3613-.2637-.3633-.542-.75-.834-1.1582-.1318-.1875-.2402-.3574-.3242-.5098-.0957-.168-.0459-.2637.1504-.2871.0244-.0039.0566-.0078.0986-.0117s.0654-.0059.0693-.0059c.2002-.0293.3682.0527.5039.2451.0518.0762.1357.1992.252.3691.1162.1689.2197.3193.3125.4463.0918.1289.1855.248.2812.3613.2363-.2812.4229-.5371.5586-.7686.0156-.0283.0596-.0986.1318-.21s.126-.2002.1621-.2637c.084-.1484.2197-.2129.4082-.1924.1113.0088.1914.0166.2393.0244Z"/>
    <path class="cls-1" d="M174.3649,27.6658c-.1797.2852-.4238.6992-.7314,1.2422-.3086.5449-.5322.9297-.6719,1.1582-.0879.1484-.1172.25-.0869.3027.0293.0547.1309.0898.3027.1055.1475.0078.334.002.5576-.0176.1523-.0117.3037-.0117.4561,0,.1318.0117.1982.0801.1982.2031v.0312c0,.2441-.0244.3926-.0723.4473-.0479.0527-.1943.0723-.4375.0566-.1162-.0117-.3623-.0137-.7383-.0039s-.6221.0156-.7383.0156c-.2598,0-.4375-.0098-.5342-.0312-.2676-.0547-.334-.2012-.1973-.4375.0361-.0605.0879-.1406.1553-.2461.0684-.1035.1162-.1777.1445-.2207.1641-.2559.3154-.5234.4561-.7988.1201-.2402.3975-.7031.834-1.3926.0879-.1309.1221-.2148.1016-.252-.0195-.0352-.1074-.0547-.2637-.0605-.4482-.0078-.7461-.002-.8936.0195-.2324.0273-.3662-.0742-.4023-.3066-.0117-.0518-.0186-.1074-.0186-.168.0127-.1152.0439-.1973.0967-.2422.0518-.0469.1338-.0723.2461-.0762.1074-.0039.2695-.002.4854.0059.0322,0,.0801.002.1445.0039.0635.002.1113.0029.1436.0029h.2705c0-.0039.0596-.0068.1797-.0088s.2627-.0039.4287-.0059.3008-.0039.4053-.0039c.3076.0078.4082.1562.2998.4443-.0439.1006-.084.1787-.1201.2334Z"/>
  </g>
</svg>