<?xml version="1.0" encoding="UTF-8"?>
<svg id="Ebene_1" data-name="Ebene 1" xmlns="http://www.w3.org/2000/svg" viewBox="0 0 153.7716 88.7442">
  <defs>
    <style>
      .cls-1 {
        fill: #303e72;
      }
    </style>
  </defs>
  <g>
    <path class="cls-1" d="M13.9159,32.8692c1.3438-.0195,2.4912.543,3.4424,1.6895.9521,1.1465,1.3262,2.3125,1.123,3.502-.251,1.2383-.625,2.127-1.1211,2.668-1.6426,1.8223-3.2148,3.373-4.7148,4.6543-.3662.3164-.6816.4609-.9463.4297-.2656-.0293-.5391-.2344-.8203-.6113-.8574-1.0742-2.0273-2.2266-3.5088-3.457-.377-.3066-1.2637-1.2227-2.6621-2.7461-.4111-.4609-1.7285-1.8086-3.9502-4.041l-.3525-.3555c-.2812-.3066-.417-.5664-.4043-.7773.0127-.2129.166-.4648.4619-.7598,2.1377-2.0566,3.3848-3.2383,3.7393-3.543.8506-.7051,1.5352-1.1738,2.0537-1.4102,1.0273-.5039,2.1934-.5117,3.501-.0254,1.7773.6523,2.6699,1.998,2.6758,4.0371l-.001.4961c0,.0234-.0059.0762-.0176.1582-.0127.082-.0156.1504-.0098.2031s.0322.1035.0791.1504c.082-.0117.2949-.0586.6367-.1387.3418-.082.6074-.123.7959-.123ZM4.2635,33.0567c-.4023.3301-.4199.6777-.0557,1.043.9053.9102,1.6748,1.5664,2.3105,1.9688.4111.248.7832.2441,1.1133-.0156.8623-.6445,1.5117-1.291,1.9502-1.9395.2959-.4824.3262-.959.0918-1.4316-.2578-.5664-.6631-1.0332-1.2158-1.3984-.7764-.5215-1.5195-.5117-2.2275.0293-.6621.5156-1.3174,1.0977-1.9668,1.7441ZM15.3358,37.4883c-.2812-.7324-.8691-1.2227-1.7637-1.4727-.8955-.25-1.6494-.127-2.2637.3652-.3193.2949-.5527.5195-.7002.6797-.1475.1582-.3574.4023-.6299.7305-.2715.3301-.4785.5781-.6201.7422-.3438.4102-.3145.7949.085,1.1484.8584.8633,1.4521,1.4238,1.7812,1.6836.3877.2969.7324.4297,1.0332.4004.3008-.0273.6455-.2129,1.0352-.5527.083-.082.3486-.3594.7979-.8301.4492-.4688.7207-.752.8154-.8457.5557-.5527.6982-1.2363.4297-2.0488Z"/>
    <path class="cls-1" d="M20.8592,13.7442c-.3447.2031-.7129.25-1.1055.1426-.3916-.1074-.6895-.334-.8926-.6777-.1973-.3672-.2471-.748-.1514-1.1445.0967-.3945.3145-.6816.6533-.8633.3447-.2012.7354-.2539,1.1709-.1523.4375.1016.748.3086.9346.625.1797.3398.2061.7207.0781,1.1445-.1279.4219-.3574.7305-.6875.9258ZM26.3123,9.9981c-.0928.334-.3262.6113-.6992.832-.374.2188-.749.2812-1.125.1836-.377-.0977-.6816-.3281-.916-.6934-.2002-.3086-.2598-.6543-.1777-1.041.0811-.3867.2744-.6504.5791-.791.9609-.4688,1.6768-.3203,2.1484.4473.2197.373.2832.7266.1904,1.0625ZM39.9891,23.7188c.3369.3438.3252.668-.0342.9766-.6621.584-1.0625.9062-1.2002.9688-.6982.4883-1.4766.5293-2.334.125-.4551-.2148-.8018-.4258-1.04-.6348-.6387-.5898-1.3672-.6445-2.1855-.1641-.8418.4766-2.0957,1.2051-3.7617,2.1855-.6289.4102-.8887.9883-.7773,1.7344.0137.0898.0566.3105.1299.6641.0723.3535.1152.623.1279.8086.0488.6094-.2266,1.1934-.8271,1.75s-1.1992.7871-1.7959.6934c-.3174-.0449-.5527-.2637-.7061-.6562-.1748-.3633-.2793-.8516-.3135-1.4707-.1289-1.4316-.3203-2.7598-.5762-3.9824-.2295-1.1797-.3643-2.541-.4033-4.0859-.0205-1.6113-.2139-3.6152-.5801-6.0117-.0273-.0801-.0547-.209-.082-.3867-.1396-.7305-.1113-1.2734.084-1.6309.1963-.3574.6436-.6641,1.3438-.9199.3926-.1543.7695-.1055,1.1309.1465.29.1953.8877.5879,1.7949,1.1758s1.5801,1.0332,2.0195,1.3359c.4385.3027.9893.7129,1.6533,1.2305.6631.5195,1.2539,1.0234,1.7725,1.5098.4795.4531,1.2822.9961,2.4092,1.6289.3096.1641.6387.3633.9873.5918.3486.2305.6348.4297.8594.5977s.5352.4004.9326.6973c.3984.2988.6836.5117.8564.6426.1963.1367.3682.2969.5156.4805ZM31.4666,22.4981c.2275-.1719.3506-.3555.3711-.5527.0205-.1953-.0693-.3789-.2676-.5527-.1416-.1094-.4365-.3379-.8818-.6855-.4463-.3457-.7754-.6016-.9883-.7656-.2129-.166-.5039-.3711-.8721-.6191s-.7178-.457-1.0518-.6289c-.5283-.3066-.75-.1562-.6641.4492.2246,1.957.3994,3.4219.5254,4.3906.0283.3125.1074.5039.2354.5723.1279.0703.3457.0527.6523-.0488.2324-.0996.7246-.3301,1.4766-.6953l1.4648-.8633Z"/>
    <path class="cls-1" d="M59.9715,14.2227c.75.3516,1.1611.6641,1.2344.9375.0742.2734-.1445.7461-.6543,1.418-1.1445,1.4629-2.6934,2.4746-4.6484,3.0332-3.2842.8789-6.1123.1797-8.4834-2.0996-1.0479-1.0137-1.8145-2.1797-2.2969-3.5-.4834-1.3203-.6074-2.6973-.3711-4.1328s.8447-2.7402,1.8232-3.918c2.54-3.0098,5.6514-4.1465,9.335-3.4082.6006.1152,1.1299.3184,1.5869.6094.3154.209.4961.4023.5439.5781.0801.2383.0957.4531.0439.6484-.0508.1953-.1768.4355-.376.7227-.1992.2852-.3164.459-.3516.5215-.1914.3789-.5391.498-1.043.3574-.1826-.0371-.4688-.1074-.8584-.2109-.3896-.1016-.6865-.1777-.8896-.2266-1.957-.4766-3.6318.1289-5.0264,1.8125-.4326.5137-.7656,1.1035-1.001,1.7695-.3125.8965-.3945,1.8281-.2471,2.7969.1475.9707.4512,1.7656.9111,2.3828.29.4414.6279.834,1.0146,1.1777.7627.6582,1.4912,1.0586,2.1855,1.2012.4258.1094.8125.1699,1.1611.1797.8418.0508,1.6494-.123,2.4229-.5195.6367-.3262,1.335-.9102,2.0928-1.752.3887-.416.6777-.6387.8672-.6738.1895-.0332.5312.0645,1.0244.2949Z"/>
    <path class="cls-1" d="M80.9725,14.875c.0166.0176.0723.0742.166.1719.0928.0996.1523.1602.1777.1855.0254.0234.0762.082.1533.1719.0762.0898.123.1641.1406.2227s.0439.1289.0791.2109c.0342.084.0488.166.042.25-.0078.084-.0273.166-.0586.25-.0479.1348-.1172.2441-.207.3281-.0898.0859-.1895.1465-.2969.1816-.1084.0352-.2197.0566-.3369.0684-.1162.0098-.2373.0117-.3623.0059s-.2461,0-.3623.0176c-.8984.082-1.6211-.2559-2.167-1.0117-.3594-.5117-.9453-1.168-1.7588-1.9707-.8145-.8027-1.3398-1.3535-1.5781-1.6484-.2051-.2461-.7139-.7793-1.5283-1.5996-.458-.4746-.8711-.7773-1.2402-.9043-.0312,1.0684,0,1.9844.0967,2.75.0391.332.0654.6855.0811,1.0605.0146.375.0254.7832.0332,1.2246s.0137.7871.0176,1.0371c.0059.334-.0566.5723-.1875.7168-.1318.1426-.3633.2422-.6953.2988-.0664.0176-.166.0273-.2998.0293-.6826.0625-1.1211.0039-1.3154-.1777-.1953-.1797-.3232-.627-.3857-1.3438-.1064-1.3301-.1348-3.252-.085-5.7617.0479-2.5098.0469-4.3125-.0049-5.4121-.0664-.9492-.1074-1.8906-.123-2.8242-.0254-.5156.043-.8535.207-1.0156s.4961-.2383.9971-.2305c.8164.0039,1.3047.082,1.4668.2383.1602.1562.2393.6426.2373,1.459.0059.3496.0078.7246.0059,1.125-.001.4004-.0059.8457-.0146,1.3379-.0078.4922-.0098.8789-.0049,1.1621l-.0225.125c.001.084.0029.1719.0039.2637.002.0918.0117.1875.0303.2871.0547.2656.125.4902.2109.6719,1.9824-2.0508,3.3408-3.5332,4.0752-4.4453.1631-.2207.3223-.4102.4775-.5723.1562-.1602.3564-.3516.6035-.5723.2461-.2207.4512-.416.6152-.5859.5889-.6094,1.4609-.791,2.6152-.543.6689.1387.8096.5098.4199,1.1172-.2773.4043-.7588.9629-1.4473,1.6738-.2793.2734-.7051.6758-1.2793,1.2109s-1.0791,1.0215-1.5127,1.4629c-.4346.4414-.8232.8809-1.165,1.3203-.4248.541-.6396.8984-.6445,1.0742-.0059.1738.1885.543.5811,1.1016.3926.5273,1.0283,1.166,1.9082,1.918.8955.7188,1.5654,1.4238,2.0117,2.1172.1367.2129.29.416.46.6035.1699.1895.3779.4023.623.6406.2461.2363.4277.4121.5469.5273Z"/>
    <path class="cls-1" d="M99.1463,16.7031c.665.1543,1.0752.4746,1.2305.957.1543.4844.0059.9941-.4463,1.5293-.2441.2734-.6162.3828-1.1152.3301-.3203-.0156-1.0117-.1504-2.0732-.4062-1.0625-.2559-1.748-.416-2.0586-.4805l-3.8662-.8047c-.5557-.1152-.9121-.3262-1.0693-.6309-.1641-.2734-.1885-.5684-.0713-.8848.2139-.6191.4238-1.6641.6279-3.1367.0312-.2324.3125-1.6211.8428-4.166.6113-2.9375.9971-5.1543,1.1553-6.6543.0469-.5527.1816-.9102.4033-1.0781.2227-.166.6221-.207,1.2002-.1191,1.7725.2324,3.1553.5039,4.1465.8125.5508.1309.9248.2168,1.1211.2578.1953.041.5693.1016,1.123.1836s.9297.1348,1.1289.1582c.085.002.2168.0195.3975.0566.1787.0371.3193.0586.4209.0625.2441.0508.4219.1387.5322.2637.1133.1094.1992.2246.2598.3477.0586.125.0869.2578.082.4004-.0039.1445-.0127.2656-.0244.3652-.0127.0996-.0361.2363-.0723.4062-.0352.1719-.0615.2988-.0791.3809-.082.4766-.4375.709-1.0645.6973-.415.0312-.7812-.0098-1.0977-.127-.4004-.1172-.8252-.2266-1.2715-.3281-.4473-.1016-.9658-.2051-1.5566-.3125-.5908-.1055-1.0254-.1875-1.3027-.2461-.6689-.1387-1.1025-.1406-1.3018-.002-.1992.1367-.3496.5352-.4531,1.1953-.124.7578-.2393,1.3125-.3467,1.6641-.1045.3359-.1182.5664-.042.6934.0752.127.2744.2324.5977.3164-.0029.0156.4189.1133,1.2676.2891l1.3027.2461c.8809.1836,1.54.3301,1.9775.4375.4043.1016.6748.252.8125.4492.1367.1992.1875.5078.1514.9258-.0078.2031-.0342.3672-.0771.4941-.0742.3594-.1826.5918-.3242.6992s-.3984.1562-.7705.1465c-.3896-.0137-.8203-.0684-1.293-.168-.7383-.1367-1.8252-.3535-3.2607-.6543-.5225-.1074-.8877-.0898-1.0957.0527-.209.1445-.3506.4727-.4229.9844-.0723.4297-.1602,1.0566-.2646,1.8867-.0469.4668.0801.8418.3779,1.125.1885.1582.3965.2617.625.3086,1.0605.2227,2.0762.4551,3.0469.6992s1.5029.3438,1.5986.2949l.3916.082Z"/>
    <path class="cls-1" d="M118.6825,19.7578c-.0752.0039-.1826.0176-.3232.0449s-.2295.041-.2666.041c-.0381.002-.0986.0137-.1836.0391s-.1328.041-.1445.0449c-.0107.0039-.0381.0332-.0811.0859s-.0625.0957-.0576.125.0049.0898,0,.1777c-.0049.0898-.0039.168.002.2363.0059.0664.0107.1738.0156.3242.0312.5273.2422,1.373.6338,2.5352.3906,1.1621.6152,1.9766.6748,2.4453.0234.2676.0303.4727.0195.6152-.0352,1.0293-.5283,1.3438-1.4805.9414-1.0137-.4688-1.6143-.8281-1.8008-1.0801-.1875-.25-.2939-.9062-.3193-1.9629-.0029-.5527-.127-1.4863-.373-2.8027-.2471-1.3145-.3818-2.125-.4062-2.4316-.0527-.4824-.3242-.8691-.8145-1.1602-.4902-.2891-.8203-.3086-.9912-.0566-.1934.2578-.3604.5391-.5.8418l-.8389,1.7617c-.5605,1.1719-.8027,1.7773-.7266,1.8125-.1826.5938-.4082.9434-.6768,1.0488-.2695.1055-.6992.0234-1.2891-.25-.0156-.0059-.0381-.0176-.0684-.0312l-.0332.0117c-.6504-.2988-1.0342-.5918-1.1514-.875s-.0332-.7539.252-1.4121c.0068-.0137.7559-1.6973,2.2461-5.0469l.6816-1.4766-.0234-.0098,2.7021-5.8574c.126-.2715.2305-.4805.3164-.625.2041-.3633.417-.5879.6387-.668.2207-.082.5342-.0664.9414.0488.2256.0664.3838.1211.4746.1641.6533.373,1.6035.8398,2.8516,1.3965,1.248.5586,2.2051,1.0098,2.8721,1.3535,1.4873.7969,2.3301,2.0117,2.5312,3.6445.1963,1.7617-.0352,3.1602-.6963,4.1953-.7041,1.0879-2.1465,1.6895-4.3281,1.8027-.0898-.0039-.1826-.002-.2793.0078ZM117.5662,16.9863c.5967.2578,1.2148.2383,1.8555-.0527.6387-.293,1.0908-.7637,1.3535-1.4141.207-.5273.1924-1.0527-.0439-1.5742-.2363-.5234-.6543-.9316-1.252-1.2246-.3184-.1465-.7988-.3691-1.4414-.666-.6436-.2969-1.1279-.5293-1.4541-.6973-.2422-.1133-.4297-.1445-.5625-.0957-.1396.0645-.2646.2188-.377.4609-.0557.1211-.1201.25-.1943.3906s-.1602.2988-.2588.4727c-.0996.1738-.1699.3066-.2119.3984-.0273.0605-.1738.3457-.4365.8574-.2637.5117-.4014.8203-.4131.9258-.0977.2109-.1035.4023-.0156.5703.0322.0879.1094.1602.2305.2168.7422.3789,1.2354.625,1.4775.7363.2412.1113.5889.2539,1.042.4258s.6865.2617.7021.2695Z"/>
    <path class="cls-1" d="M134.5516,35.0235c.5303.4316.7598.8984.6875,1.4004-.0723.5039-.4287.8965-1.0693,1.1797-.3389.1387-.7207.0762-1.1475-.1914-.2812-.1543-.8438-.5781-1.6865-1.2715-.8438-.6934-1.3906-1.1367-1.6416-1.3301l-3.125-2.416c-.4492-.3457-.6777-.6914-.6855-1.0352-.0293-.3164.0781-.5918.3213-.8242.4639-.4648,1.1094-1.3125,1.9375-2.5488.1289-.1953.9883-1.3203,2.5781-3.3789,1.835-2.373,3.1504-4.1992,3.9492-5.4785.2832-.4746.5615-.7402.834-.793s.6494.0859,1.1318.416c1.4922.9863,2.6172,1.834,3.374,2.5449.4375.3594.7363.5996.8945.7227.1582.1211.4678.3398.9307.6562.4619.3145.7773.5273.9463.6348.0752.0391.1865.1133.3311.2246.1455.1133.2627.1934.3516.2402.1982.1543.3193.3105.3633.4707.0547.1484.082.2891.082.4258-.001.1367-.0342.2695-.1006.3965-.0674.127-.1279.2324-.1826.3184-.0547.084-.1348.1953-.2422.334s-.1855.2402-.2373.3066c-.2822.3926-.7031.4453-1.2617.1621-.3887-.1523-.6992-.3516-.9316-.5938-.3096-.2812-.6436-.5664-1.001-.8516-.3574-.2871-.7783-.6074-1.2637-.9609s-.8398-.6172-1.0635-.791c-.541-.418-.9307-.6094-1.1699-.5723-.2383.0371-.5488.3301-.9297.877-.4424.627-.7891,1.0762-1.0391,1.3457-.2412.2559-.3545.459-.3418.6055s.1455.3281.3994.5449c-.0098.0137.3281.2852,1.0137.8145l1.0645.791c.7119.5508,1.2402.9688,1.5869,1.2578.3193.2676.4971.5215.5342.7598.0361.2402-.0527.5391-.2686.8984-.0957.1797-.1914.3164-.2852.4121-.2246.2891-.4238.4512-.5977.4863-.1738.0332-.4268-.0352-.7568-.207-.3447-.1816-.708-.4199-1.0898-.7148-.6035-.4453-1.4863-1.1172-2.6465-2.0137-.4219-.3262-.7588-.4688-1.0088-.4316-.251.0391-.5215.2715-.8105.7012-.252.3535-.6055.8789-1.0625,1.5801-.2461.4004-.2969.793-.1523,1.1777.1006.2246.2432.4082.4277.5508.8574.6621,1.6689,1.3164,2.4346,1.9609s1.2021.9648,1.3086.9629l.3164.2441Z"/>
    <path class="cls-1" d="M153.5702,34.8731c-.167.3125-.4395.6191-.8184.9219-1.1201.8242-2.584,2.0879-4.3916,3.793-1.8066,1.7031-3.2549,3.0098-4.3438,3.918-.1338.0996-.4561.3965-.9668.8867-.5107.4922-.8496.7695-1.0176.834-.3027.1855-.5312.2773-.6836.2715-.1543-.0078-.3672-.123-.6406-.3477l-.2021-.2207c-.4756-.4688-.7061-.8672-.6924-1.1973.0254-.3164.2764-.6602.752-1.0293.4512-.3457,1.0488-.8652,1.792-1.5605.7432-.6934,1.335-1.2188,1.7754-1.5781.3916-.3359,1.0605-.9395,2.0059-1.8066.9463-.8906,2.376-2.3164,4.2881-4.2754.0127-.0098.2412-.2539.6865-.7305.1738-.2051.4141-.3008.7197-.2871.3076-.0117.708.2148,1.2012.6777.4932.4648.7383.8555.7373,1.1738.0049.1543-.0625.3398-.2012.5566Z"/>
  </g>
  <g>
    <path class="cls-1" d="M39.105,66.4375c.2843-1.0519.8528-2.0966,1.7055-3.1341.8528-1.0374,2.0115-2.0323,3.4745-2.9847,1.4665-.9533,3.2771-1.7553,5.4389-2.4089,1.0791-.3132,2.2089-.669,3.3894-1.0664,1.1787-.3983,2.408-.8673,3.6881-1.4068,1.4503-2.303,2.8154-4.6486,4.0937-7.0367-.7387.7966-1.4991,1.5851-2.2813,2.3673s-1.586,1.4711-2.408,2.0677c-.8256.5975-1.6512,1.0664-2.4732,1.4077-.8256.3404-1.6367.5115-2.4316.5115h-.172c-1.5335-.057-2.4569-.4264-2.7701-1.109s-.4707-1.2927-.4707-1.8332c0-.5395.1503-1.2864.449-2.2387s.9886-2.1537,2.0677-3.6039c1.0809-1.4493,2.361-2.7566,3.8384-3.9226,1.4774-1.1651,2.9566-2.0396,4.4359-2.6226,1.4774-.5821,2.8426-.8745,4.0919-.8745.4563,0,.9089.029,1.3652.086.7387.0851,1.2927.3558,1.6621.8102.4273-.4273.8817-.64,1.3652-.64.3132,0,.583.0851.8111.2562.2263.1702.3911.3838.4888.6391.1014.2562.1503.4979.1503.7251,0,.1141-.0217.306-.0634.5758-.0435.2707-.2064.6183-.4907,1.0447-1.338,2.0758-2.7013,4.1081-4.0937,6.0979-1.3941,1.9898-2.8136,3.9941-4.2657,6.0119.2281-.0851.4563-.1983.6844-.3404,1.9319-.9949,3.8999-2.1962,5.906-3.6039,2.0025-1.4068,3.9868-3.1341,5.9477-5.1809l1.1099,1.0664c-2.1908,2.2741-4.5716,4.2928-7.1444,6.0554-2.5728,1.7626-5.323,3.2545-8.2507,4.4766l-1.5353,2.1754c-.3132.4825-.5758.8736-.7876,1.1723-.2136.2987-.42.6038-.6192.917-.3983.5685-.7749,1.1225-1.1298,1.663-.3549.5395-.7315,1.08-1.1298,1.6204-2.0477,2.8706-3.9579,4.9039-5.7358,6.0979-1.7762,1.1941-3.2916,1.7906-4.5409,1.7906-.9379,0-1.7128-.2634-2.3248-.7885-.612-.5269-.9813-1.0737-1.1081-1.6422-.1285-.5685-.1919-1.0384-.1919-1.4068,0-.5694.0851-1.166.2553-1.7915ZM41.5782,67.1626c.1141.5975.3838,1.0872.8093,1.4711.4273.3838.9813.5758,1.6639.5758.9107,0,2.0115-.4409,3.3043-1.3217,1.2945-.8817,2.6796-2.4026,4.157-4.5626.6265-.8817,1.2457-1.7698,1.8558-2.6651.6102-.8953,1.2149-1.7988,1.8124-2.7077.0579-.1141.1285-.2136.2136-.2987-.9379.3413-1.8413.6536-2.7086.9379s-1.7128.5395-2.5366.7677c-1.7055.3974-3.1268.917-4.2639,1.5562-1.137.64-2.0459,1.3226-2.7303,2.0468-.6808.7251-1.1225,1.4005-1.3217,2.026-.1992.6246-.2969,1.1515-.2969,1.5779,0,.1983.0145.3974.0416.5966ZM52.4089,51.8118h.2987c.7097,0,1.5209-.2562,2.4298-.7677.9107-.5115,1.8558-1.1651,2.8371-1.9617.9795-.7957,1.9101-1.634,2.7937-2.5158.8799-.8808,1.6042-1.5915,2.1727-2.1319.3132-.5685.6047-1.1225.8763-1.663.268-.5405.5613-1.0945.8727-1.663,0-.2562-.0507-.4698-.1485-.64-.1014-.1702-.306-.2843-.6192-.3413h-.3838c-.7966,0-1.7055.249-2.7285.7469-1.023.497-2.055,1.166-3.0906,2.0034-1.0393.8392-2.0133,1.7635-2.9222,2.772-.9089,1.0094-1.6349,1.9617-2.1745,2.8571-.5414.8953-.8383,1.5209-.8962,1.8766-.0561.3558-.0833.5758-.0833.6609,0,.4544.2535.7106.7659.7677Z"/>
    <path class="cls-1" d="M69.209,52.7072c.029-.7106.2064-1.5281.5341-2.4524.3277-.9234.726-1.8902,1.1932-2.8996.4707-1.0085.9958-2.0106,1.5788-3.0064.583-.994,1.137-1.9183,1.6621-2.7711s.9958-1.5996,1.4086-2.2387c.411-.64.688-1.0872.831-1.3434.2263-.3694.4762-.6319.7459-.7885s.5468-.2354.831-.2354c.3404,0,.6554.0932.9379.2779.2843.1847.4762.3838.5758.5966.0996.2136.1503.42.1503.6183,0,.143-.029.335-.0851.5758-.0579.2417-.2861.5332-.6826.8745-.2553.1992-.6898.6038-1.3018,1.2149-.612.612-1.2565,1.3154-1.9391,2.1111s-1.3507,1.6413-2.0043,2.5366c-.6554.8962-1.137,1.7137-1.4503,2.4524-.3132.7396-.4689,1.3643-.4689,1.8766,0,.1702.029.4472.0869.831.0543.3838.4671.7034,1.2348.9596.0869.029.1702.0425.2571.0425.2824,0,.659-.1349,1.1298-.4047.4689-.2707,1.0157-.6681,1.6404-1.1941.6265-.526,1.2583-1.137,1.8975-1.8341.6409-.6962,1.2438-1.386,1.8142-2.0677.4816-.9098.9868-1.8051,1.5136-2.6869.5251-.8808,1.0284-1.6766,1.5136-2.3881.4816-.7097.9089-1.3217,1.2783-1.8332.3694-.5124.6265-.8528.7677-1.0239.3132-.3974.6409-.6817.9813-.8528.3404-.1702.6663-.2553.9813-.2553.3694,0,.7025.1059,1.0012.3196.2987.2127.5051.4544.6174.7251.1141.2698.1702.5323.1702.7885,0,.1141-.0199.306-.0616.5758-.0435.2707-.2354.5758-.5758.917-.1448.1421-.4345.4119-.8763.8102-.44.3983-.9596.8808-1.5553,1.4493-.5957.5694-1.2221,1.2013-1.8775,1.8975-.6518.6971-1.2565,1.3932-1.8106,2.0894-.554.6971-1.0248,1.3724-1.4086,2.026-.3838.6545-.583,1.1162-.5957,1.386-.0163.2707-.0217.4191-.0217.4472,0,.4843.1919.8745.5758,1.1732.3838.2978,1.0737.4617,2.0695.4898.4816,0,1.0284-.134,1.6404-.4047.612-.2698,1.2493-.6328,1.9192-1.0872.6663-.4544,1.3362-.9596,2.0043-1.5136.6681-.5549,1.3-1.109,1.8975-1.6639.5957-.554,1.1425-1.0728,1.6422-1.5562.4961-.4825.9017-.8808,1.2149-1.1941l1.1081.9813c-.6246.7396-1.4647,1.6277-2.5149,2.6651-1.0537,1.0374-2.1835,2.0323-3.3912,2.9847-1.2076.9524-2.4461,1.7626-3.7098,2.4307-1.2638.6681-2.4225,1.0021-3.4763,1.0021-1.3362-.0281-2.1582-.3476-2.4732-.9596-.3114-.6111-.4671-1.2294-.4671-1.8549,0-.3694.0416-.7677.1267-1.1941-.9379,1.0519-1.9482,1.9545-3.0272,2.7077-1.0809.7541-2.2451,1.1452-3.4962,1.1723h-.172c-.7677,0-1.3072-.1983-1.6186-.5966-.3132-.3974-.4707-.9098-.4707-1.5353v-.1702Z"/>
    <path class="cls-1" d="M80.6807,66.4375c.2843-1.0519.8528-2.0966,1.7055-3.1341s2.0115-2.0323,3.4763-2.9847c1.4629-.9533,3.2771-1.7553,5.4353-2.4089,1.0809-.3132,2.2107-.669,3.3912-1.0664,1.1787-.3983,2.4098-.8673,3.6881-1.4068,1.4503-2.303,2.8136-4.6486,4.0937-7.0367-.7405.7966-1.5009,1.5851-2.2813,2.3673-.7822.7822-1.5842,1.4711-2.4098,2.0677-.8238.5975-1.6476,1.0664-2.4732,1.4077-.8238.3404-1.6331.5115-2.4298.5115h-.1702c-1.5353-.057-2.4587-.4264-2.772-1.109s-.4689-1.2927-.4689-1.8332c0-.5395.1485-1.2864.4472-2.2387.2987-.9524.9886-2.1537,2.0695-3.6039,1.0791-1.4493,2.3573-2.7566,3.8366-3.9226,1.4774-1.1651,2.9566-2.0396,4.434-2.6226,1.4774-.5821,2.8426-.8745,4.0955-.8745.4526,0,.9089.029,1.3633.086.7387.0851,1.2945.3558,1.6639.8102.4255-.4273.8799-.64,1.3633-.64.3132,0,.583.0851.8093.2562.2281.1702.3911.3838.4925.6391.0978.2562.1485.4979.1485.7251,0,.1141-.0217.306-.0652.5758-.0416.2707-.2064.6183-.4888,1.0447-1.3362,2.0758-2.7013,4.1081-4.0937,6.0979-1.3923,1.9898-2.8154,3.9941-4.2639,6.0119.2263-.0851.4526-.1983.6808-.3404,1.9337-.9949,3.9036-2.1962,5.906-3.6039,2.0061-1.4068,3.9868-3.1341,5.9495-5.1809l1.1081,1.0664c-2.189,2.2741-4.5698,4.2928-7.1408,6.0554-2.5746,1.7626-5.3248,3.2545-8.2525,4.4766l-1.5353,2.1754c-.3132.4825-.5758.8736-.7894,1.1723s-.42.6038-.6174.917c-.3983.5685-.7749,1.1225-1.1298,1.663-.3567.5395-.7333,1.08-1.1316,1.6204-2.0459,2.8706-3.9579,4.9039-5.734,6.0979s-3.2898,1.7906-4.5427,1.7906c-.9379,0-1.711-.2634-2.3229-.7885-.6102-.5269-.9795-1.0737-1.1099-1.6422-.1267-.5685-.1919-1.0384-.1919-1.4068,0-.5694.0869-1.166.2571-1.7915ZM83.1539,67.1626c.1141.5975.3838,1.0872.8111,1.4711.4255.3838.9795.5758,1.6621.5758.9089,0,2.0115-.4409,3.3061-1.3217,1.2927-.8817,2.6796-2.4026,4.157-4.5626.6246-.8817,1.242-1.7698,1.854-2.6651s1.2167-1.7988,1.8124-2.7077c.0561-.1141.1285-.2136.2136-.2987-.9397.3413-1.8413.6536-2.7068.9379-.8691.2843-1.7146.5395-2.5384.7677-1.7055.3974-3.1268.917-4.2639,1.5562-1.137.64-2.0477,1.3226-2.7285,2.0468-.6844.7251-1.1225,1.4005-1.3217,2.026-.1992.6246-.3006,1.1515-.3006,1.5779,0,.1983.0145.3974.0435.5966ZM93.9846,51.8118h.2987c.7115,0,1.5209-.2562,2.4316-.7677.9089-.5115,1.854-1.1651,2.8353-1.9617.9813-.7957,1.9119-1.634,2.7919-2.5158.8817-.8808,1.6078-1.5915,2.1763-2.1319.3114-.5685.6029-1.1225.8727-1.663.2716-.5405.5613-1.0945.8745-1.663,0-.2562-.0489-.4698-.1485-.64s-.306-.2843-.6174-.3413h-.3838c-.7966,0-1.7074.249-2.7303.7469-1.0248.497-2.0532,1.166-3.0924,2.0034-1.0374.8392-2.0097,1.7635-2.9204,2.772-.9107,1.0094-1.6349,1.9617-2.1745,2.8571s-.8401,1.5209-.8944,1.8766c-.0579.3558-.0869.5758-.0869.6609,0,.4544.2571.7106.7677.7677Z"/>
  </g>
  <g>
    <path class="cls-1" d="M24.2222,87.3988c.0628.3979-.0876.6703-.4512.8148-.7911.3292-1.523.3624-2.1968.0947-.5341-.2037-1.0019-.5613-1.4045-1.0777-.1066-.1397-.1871-.3482-.2404-.6253-.0047-.0284-.0142-.09-.0296-.1824-.0142-.09-.0237-.1563-.0284-.1966-.0047-.0379-.0118-.0971-.0225-.1776-.0095-.0805-.0142-.1445-.0142-.1966,0-.0497.0036-.109.0107-.1776s.0189-.1326.0332-.1966c.1599-.6561.4879-1.1712.9818-1.549.495-.379,1.0623-.5637,1.703-.5542.18.0047.3955.0568.6478.154.1315.0521.3683.1895.7129.4074.1113.0675.1729.1397.1859.2144.0118.0746-.0213.1658-.0983.2736-.058.0853-.1066.1468-.1457.18-.0971.1113-.2108.1326-.3423.0592-.0343-.0189-.0912-.0521-.1705-.0995-.0805-.045-.1421-.0782-.1859-.0971-.4026-.2084-.8254-.244-1.2695-.109s-.7745.4003-.9936.7935c-.135.2416-.1812.5353-.1374.8764.0426.3411.1599.6206.3482.8337.2819.3198.604.5471.9687.6845.2807.1066.6158.1184,1.0031.0355.122-.0284.2084-.1232.2594-.2842s.0391-.2913-.0332-.3932c-.0438-.0474-.0947-.0734-.1528-.0734-.0533-.0047-.1315-.0071-.2333-.0071-.1303-.0047-.2226-.0308-.2759-.0782-.0533-.0497-.09-.1374-.109-.2629-.0249-.1847-.0012-.315.0687-.3884.0699-.0758.2001-.1113.3896-.1066.0332,0,.0959.0047.1847.0118.09.0071.1622.0118.2155.0166h.4796c.1113.0118.1883.0355.2297.0782.0403.0403.0663.1161.0758.2274.0095.1184.0095.2345,0,.3505-.0189.2369-.0071.4808.0367.7271Z"/>
    <path class="cls-1" d="M28.6822,87.5528c.199.0047.334.0711.4074.199.0722.1279.0604.2819-.0367.4619-.0533.0924-.1528.1468-.2984.1611-.0924.0142-.2972.0166-.6146.0071s-.5223-.0142-.6146-.0142h-1.1499c-.1646,0-.2795-.0403-.3423-.1161-.0628-.0687-.0865-.1516-.0722-.2487.0237-.1895.0213-.4998-.0071-.9308-.0047-.0687-.0071-.4808-.0071-1.2364,0-.874-.0225-1.5289-.0663-1.9659-.0189-.1599-.0024-.27.0509-.3304s.1646-.0959.3351-.1054c.5187-.0391.9285-.0438,1.2293-.0142.1646.0047.2771.0071.3351.0071s.1682-.0047.3304-.0142c.1634-.0107.2736-.0178.3316-.0225.0237-.0047.0628-.0083.1161-.0083s.0947-.0024.1243-.0071c.0722,0,.1279.0154.167.045.0391.0237.0699.0521.0947.0829.0237.0308.0403.0687.0474.109.0071.0414.0118.0758.0142.1066.0024.0284.0036.0687.0036.1184v.1137c.0047.1409-.0817.2274-.2617.2617-.1161.0343-.2226.0438-.3198.0296-.122-.0095-.2487-.0166-.3825-.0189s-.2878,0-.4619.0047-.3032.0071-.3861.0071c-.199,0-.3221.0249-.3707.0758s-.0675.1729-.058.3671c.0095.2226.0095.3884,0,.495-.0095.1018,0,.1682.0284.2013.0296.0308.0924.0497.1895.0545,0,.0047.1267.0071.379.0071l.3849-.0071c.2617,0,.4583.0024.5898.0071.1208.0047.2072.0308.2582.0782.0509.0497.0841.135.0983.2558.0095.0592.0118.1066.0071.1445,0,.1066-.0166.18-.0509.2203-.0343.0379-.1042.0663-.2108.0853-.1113.0213-.238.0308-.379.0308-.2179.0047-.54.0071-.9675.0071-.1551,0-.2582.0261-.3091.0805-.0509.0521-.0711.154-.0616.3055.0047.1255.0166.3103.0367.5519.0142.135.0722.2345.1741.2984.0628.0332.1291.0521.1966.0521.315,0,.6182.0047.9095.0166s.4488.0095.4725-.0095h.1172Z"/>
    <path class="cls-1" d="M35.0772,86.1175c-.0047.1421,0,.3932.0154.7532.0142.3624.0142.6419,0,.8408-.0201.2534-.0391.4382-.058.5542-.0249.1776-.0888.2937-.193.3411s-.2321.0237-.3825-.0734c-.0722-.0379-.1528-.1113-.2404-.2179-.1113-.1303-.3269-.3884-.6466-.7698-.3209-.3837-.5684-.6798-.7425-.8882-.4121-.4808-.6715-.8006-.7792-.9616-.0237-.0284-.0509-.0545-.0793-.0805-.0876-.0521-.1504-.0687-.1895-.0497-.0284.0189-.0438.0734-.0438.1611,0,.4595.0047,1.1464.0154,2.0582,0,.1587-.0083.315-.0225.4666-.0095.09-.0355.1563-.0758.1942-.0414.0403-.1113.064-.2072.0734-.0296,0-.0734.0024-.1315.0071s-.1018.0071-.1315.0071c-.1303,0-.225-.0237-.283-.0758-.058-.0497-.0876-.1397-.0876-.2653,0-.1753-.0083-.4477-.0261-.8219-.0166-.3742-.0225-.6584-.0178-.8527.0095-.315.0166-.7579.0225-1.3264.0047-.5708.0095-.9474.0142-1.1322,0-.0095-.0012-.0462-.0036-.109-.0024-.064-.0024-.1066,0-.1303.0024-.0249.0142-.0545.0355-.0876.0225-.0343.058-.0616.1066-.0805.2321-.0782.4216-.0355.5673.1232.2037.2037.4358.4548.6987.7508.334.3576.6111.6869.829.9877.1942.2676.424.5329.6916.7935.077.0782.1279.1255.1528.1397.0486.0332.0924.0403.1303.0166.0391-.0213.0616-.064.0663-.1255v-2.3437c0-.1504.0189-.2451.058-.2842s.1303-.0604.2759-.0651c.0201-.0047.0486-.0071.0876-.0071.257.0095.4145.0403.4725.0947.0592.0521.0924.2155.1018.4867v1.8984Z"/>
    <path class="cls-1" d="M40.7308,84.1255c-.0047.2274-.0024.5282.0071.9048s.0142.7271.0118,1.0516c-.0036.3245-.0213.6277-.0557.9095-.0817.6656-.4216,1.1322-1.0185,1.4045-.4998.2369-1.0019.2913-1.5064.1611-.5909-.1658-1.0114-.5566-1.2577-1.1724-.0734-.1847-.1243-.5092-.1528-.9758-.0249-.3387-.0272-.6703-.0083-.9971v-1.2577c.0047-.0971.0107-.1776.0154-.2404s.0166-.1161.0355-.1599c.0201-.0438.0355-.0758.0474-.0983.013-.0225.0391-.0367.0805-.0474.0414-.0095.0722-.0142.0947-.0142h.302c.1599,0,.2629.0225.3091.0687s.0687.1528.0687.3162c0,.0924-.0036.3719-.0107.8361-.0071.4666-.0059.7461.0036.8385.0095.6442.0272,1.0421.0509,1.1937.0343.2132.1137.3979.2404.5519.257.2961.5459.4334.8657.4145.1895-.0142.3576-.0782.5057-.1895s.2558-.2416.3233-.3932c.0486-.0971.0734-.2676.0734-.5163v-.675c0-.3695.0047-.6537.0142-.8527.0047-.0876.0118-.2274.0225-.4216.0095-.1942.0154-.334.0178-.418.0024-.0853.0012-.2238-.0036-.418-.0047-.1315.0142-.2191.058-.2629.0438-.0426.1338-.0699.2688-.0805.257-.0142.4228.0095.495.0699.0734.0604.1066.2167.1018.4702Z"/>
    <path class="cls-1" d="M45.6349,86.8091c.122.3695.0734.7556-.1457,1.1606-.2179.405-.5673.649-1.0469.7319-.0391.0047-.1705.0189-.3932.0426-.6253-.0616-1.1404-.2842-1.5431-.6679-.0142-.0047-.0284-.0189-.0426-.045-.0545-.0663-.0675-.1445-.0403-.2274.0261-.0853.0983-.2084.2144-.3695.1066-.135.2357-.1634.3861-.0853.0486.0237.1232.0805.225.1729s.18.154.2333.1824c.2617.1255.5625.1279.9024.0071.193-.0734.3032-.1942.3269-.3624.0249-.1705-.0438-.3198-.2037-.4453-.2037-.1753-.4678-.3174-.7935-.4287-.4074-.135-.7011-.3055-.8799-.5092-.3588-.4026-.4678-.8811-.328-1.433.1172-.4855.4109-.7982.8811-.9391.6786-.199,1.3311-.0853,1.9576.3423.1161.077.1421.1741.0793.2913-.0047.0095-.0166.0355-.0367.0793-.0189.0438-.0355.077-.0509.1018-.0817.1551-.1599.2428-.2321.2641-.0734.0237-.1895-.0047-.3494-.0829s-.3126-.1397-.4583-.1883c-.257-.0829-.514-.0272-.771.167-.0876.064-.1386.1303-.1528.199-.0154.0711-.0036.1611.0355.2676.0829.2037.2546.3648.5175.4879.058.0284.3529.1587.887.3908.4121.1753.6869.4737.8219.8953Z"/>
    <path class="cls-1" d="M50.5756,86.8091c.122.3695.0734.7556-.1457,1.1606-.2179.405-.5673.649-1.0469.7319-.0391.0047-.1705.0189-.3932.0426-.6253-.0616-1.1404-.2842-1.5431-.6679-.0142-.0047-.0284-.0189-.0426-.045-.0545-.0663-.0675-.1445-.0403-.2274.0261-.0853.0983-.2084.2144-.3695.1066-.135.2357-.1634.3861-.0853.0486.0237.1232.0805.225.1729s.18.154.2333.1824c.2617.1255.5625.1279.9024.0071.193-.0734.3032-.1942.3269-.3624.0249-.1705-.0438-.3198-.2037-.4453-.2037-.1753-.4678-.3174-.7935-.4287-.4074-.135-.7011-.3055-.8799-.5092-.3588-.4026-.4678-.8811-.328-1.433.1172-.4855.4109-.7982.8811-.9391.6786-.199,1.3311-.0853,1.9576.3423.1161.077.1421.1741.0793.2913-.0047.0095-.0166.0355-.0367.0793-.0189.0438-.0355.077-.0509.1018-.0817.1551-.1599.2428-.2321.2641-.0734.0237-.1895-.0047-.3494-.0829s-.3126-.1397-.4583-.1883c-.257-.0829-.514-.0272-.771.167-.0876.064-.1386.1303-.1528.199-.0154.0711-.0036.1611.0355.2676.0829.2037.2546.3648.5175.4879.058.0284.3529.1587.887.3908.4121.1753.6869.4737.8219.8953Z"/>
    <path class="cls-1" d="M56.7977,83.5938c.2084.0343.2759.1528.2037.3565-.0201.0486-.0533.1208-.1018.2179-.3399.7035-.9415,2.0369-1.8048,4.0028-.0296.0711-.0829.1776-.1599.3126-.0687.1303-.1824.1942-.3423.1919s-.2665-.0853-.3198-.2511c-.0687-.1942-.2333-.5779-.495-1.1558-.1018-.2274-.2096-.4713-.3233-.7319-.1149-.2582-.2404-.5471-.379-.8669-.1386-.3174-.2463-.5637-.3233-.7366-.0391-.0829-.103-.2132-.193-.3861-.09-.1753-.154-.3079-.193-.4003-.0924-.2037-.1125-.347-.0616-.4287.0509-.0829.1895-.1243.418-.1243.1847,0,.3138.0249.3896.077.0746.0497.1445.1587.2072.3233.238.6312.5234,1.292.8586,1.986.0332.0687.077.1658.1303.2937.0533.1303.1066.2463.1575.3529.0509.109.1054.2084.1634.2984.0533-.0426.109-.135.167-.2747.4216-1.0682.7863-1.9209,1.0919-2.5627.0095-.0284.0284-.0722.058-.1303.0284-.058.0509-.1018.0651-.1303.0829-.2132.238-.3008.4654-.2629.0391.0047.0936.0095.1646.0142.0699.0047.122.0107.1563.0154Z"/>
    <path class="cls-1" d="M63.8689,85.6746c.1066.4855.0557.9687-.1528,1.4519s-.5258.8503-.9533,1.1014c-.4465.2629-1.0232.4003-1.7314.4145-.6549-.0142-1.2293-.2984-1.7243-.8503-.2866-.315-.4761-.6679-.5708-1.0587s-.103-.7698-.0261-1.1345c.0782-.3671.2226-.72.437-1.0587.058-.1018.1326-.1919.225-.27.18-.1445.3257-.2594.437-.3411.1113-.0829.2558-.167.4323-.2511.1776-.0853.3529-.1397.5282-.1634.8242-.1125,1.5087.0497,2.0511.4867.5483.4465.8977,1.0031,1.0481,1.6734ZM62.9085,86.2643c.0249-.1611.0154-.3103-.0284-.4524-.0438-.1397-.1196-.3032-.2262-.4855-.3103-.5779-.7686-.8669-1.3749-.8669-.2333.0095-.379.0237-.437.0426-.6442.1895-1.0327.6348-1.1641,1.3335-.135.7035.0805,1.2079.6478,1.5135.0189.0095.0403.0213.0616.0355.0225.0142.0462.0308.0734.0497.0261.0213.0474.0355.0616.045.2475.1303.5021.2013.7638.2155.2617.0118.5033-.0332.7236-.1326.2215-.0995.4145-.2605.5791-.4879.1646-.225.2712-.495.3198-.81Z"/>
    <path class="cls-1" d="M68.4745,87.8725v.2676c-.0095.1374-.0829.2132-.2179.2274-.2724.0284-.4784.0403-.6194.0355-.7271-.0284-1.2731-.0474-1.6366-.0592-.1457-.0047-.2369-.0213-.2724-.0545-.0367-.0308-.058-.1161-.0628-.2582v-1.6438c0-.9758-.0189-1.6698-.058-2.0807-.0047-.0486-.013-.1196-.0249-.2144s-.0213-.1658-.0261-.2155c-.0142-.1397.0036-.2392.0545-.2984.0509-.0568.1445-.0841.2807-.0793h.1457c.077,0,.1421.0012.193.0036s.0936.0118.1303.0261.0628.0261.0805.0355c.0166.0095.0308.032.0438.0663.0118.0332.0189.0604.0213.0793.0024.0201.0047.058.0071.1172.0024.0568.0059.1042.0107.1374.0391.4417.032.9782-.0213,1.6082-.0249.3434-.0249.6466,0,.9095.0142.1563.0213.3884.0213.6987,0,.1658.0296.2771.0876.3387.058.0592.167.0853.328.0758.1255-.0047.3055-.0047.5377.0047.2333.0071.3861.0095.4583.0095.1409,0,.2475.0095.3209.0284.1397.0308.2132.109.2179.2345Z"/>
    <path class="cls-1" d="M73.0363,87.8725v.2676c-.0095.1374-.0829.2132-.2179.2274-.2724.0284-.4784.0403-.6194.0355-.7271-.0284-1.2731-.0474-1.6366-.0592-.1457-.0047-.2369-.0213-.2724-.0545-.0367-.0308-.058-.1161-.0628-.2582v-1.6438c0-.9758-.0189-1.6698-.058-2.0807-.0047-.0486-.013-.1196-.0249-.2144s-.0213-.1658-.0261-.2155c-.0142-.1397.0036-.2392.0545-.2984.0509-.0568.1445-.0841.2807-.0793h.1457c.077,0,.1421.0012.193.0036s.0936.0118.1303.0261.0628.0261.0805.0355c.0166.0095.0308.032.0438.0663.0118.0332.0189.0604.0213.0793.0024.0201.0047.058.0071.1172.0024.0568.0059.1042.0107.1374.0391.4417.032.9782-.0213,1.6082-.0249.3434-.0249.6466,0,.9095.0142.1563.0213.3884.0213.6987,0,.1658.0296.2771.0876.3387.058.0592.167.0853.328.0758.1255-.0047.3055-.0047.5377.0047.2333.0071.3861.0095.4583.0095.1409,0,.2475.0095.3209.0284.1397.0308.2132.109.2179.2345Z"/>
    <path class="cls-1" d="M81.4244,87.8654c.0876.0876.135.1634.1421.2321s-.0225.1516-.0912.2463c-.2665.3648-.5377.3861-.8148.0663-.0438-.0474-.1113-.1184-.2037-.2108-.0817-.0829-.1433-.1255-.1812-.1279-.0391-.0024-.0995.0379-.1824.1208-.2333.2321-.5365.3884-.9095.4666-.4026.0947-.7733.0853-1.1132-.0308-.3588-.1208-.6312-.315-.8148-.5827-.1847-.2653-.2653-.5566-.244-.8692s.1374-.6111.3458-.8977c.0391-.0474.0805-.0971.1267-.1445.0462-.0497.1018-.1018.1682-.1611.0651-.0592.1125-.0995.1421-.1232.0865-.0782.1315-.1421.1338-.1942.0024-.0497-.0296-.1208-.0983-.2132-.0142-.0261-.0403-.0568-.0758-.0995-.0367-.0403-.0592-.0687-.0699-.0829-.3008-.4074-.3861-.8148-.2582-1.2198.1291-.4038.4216-.7011.8775-.8906.5957-.2416,1.1274-.1457,1.5928.2913.2084.2037.3316.4429.3671.72.0367.2771-.0225.54-.1776.7935-.1847.3008-.3636.5282-.5388.6845-.0865.0829-.1315.1445-.1338.1847-.0036.0403.0343.1066.1125.1919.0438.045.1457.1445.3055.3032.1599.1563.283.2913.3707.4026.058-.1445.122-.4192.1895-.8219,0-.0142.0024-.0426.0071-.0876.0047-.0426.0095-.0758.0142-.0971s.0142-.0497.0261-.0805.0296-.0545.0545-.0734c.0237-.0166.0533-.0284.0876-.0379.2037-.0497.392-.0284.5673.064.077.045.1113.1397.1018.2842-.0189.2866-.09.5684-.2108.8432-.0047.0142-.0201.0545-.0438.1208-.0249.0663-.0462.1161-.0651.1492-.0876.1895-.0545.3553.1018.495.0284.0284.0888.0876.1812.1776s.1622.1587.2108.2084ZM79.5545,87.6025c.0971-.1208.1042-.2274.0225-.3198-.2866-.315-.5732-.6229-.8586-.9237-.0876-.0876-.1753-.1018-.2617-.045-.3209.2392-.4974.5234-.5317.8527-.0047.0782.0225.18.0805.3055.1255.2369.3742.3719.7449.4026.3719.0332.6395-.0592.8041-.2724ZM78.5656,83.8555c-.2084.0924-.3008.2546-.2771.4879-.0047.0379-.0036.0782.0036.1184.0083.0426.0142.0758.0189.0995s.0178.0592.0403.1042c.0213.0474.0355.0758.0426.0876.0083.0118.0272.045.0592.0947.0308.0521.0497.0829.0545.0924.1397.2321.3198.2676.5377.109.1172-.0829.2309-.2392.3423-.4666.1267-.2463.1042-.4548-.0651-.6253-.0829-.0829-.1978-.1326-.3458-.1528s-.2854-.0024-.4109.0509Z"/>
    <path class="cls-1" d="M89.9298,87.3988c.0628.3979-.0876.6703-.4512.8148-.7911.3292-1.523.3624-2.1968.0947-.5341-.2037-1.0019-.5613-1.4045-1.0777-.1066-.1397-.1871-.3482-.2404-.6253-.0047-.0284-.0142-.09-.0296-.1824-.0142-.09-.0237-.1563-.0284-.1966-.0047-.0379-.0118-.0971-.0225-.1776-.0095-.0805-.0142-.1445-.0142-.1966,0-.0497.0036-.109.0107-.1776s.0189-.1326.0332-.1966c.1599-.6561.4879-1.1712.9818-1.549.495-.379,1.0623-.5637,1.703-.5542.18.0047.3955.0568.6478.154.1315.0521.3683.1895.7129.4074.1113.0675.1729.1397.1859.2144.0118.0746-.0213.1658-.0983.2736-.058.0853-.1066.1468-.1457.18-.0971.1113-.2108.1326-.3423.0592-.0343-.0189-.0912-.0521-.1705-.0995-.0805-.045-.1421-.0782-.1859-.0971-.4026-.2084-.8254-.244-1.2695-.109s-.7745.4003-.9936.7935c-.135.2416-.1812.5353-.1374.8764.0426.3411.1599.6206.3482.8337.2819.3198.604.5471.9687.6845.2807.1066.6158.1184,1.0031.0355.122-.0284.2084-.1232.2594-.2842s.0391-.2913-.0332-.3932c-.0438-.0474-.0947-.0734-.1528-.0734-.0533-.0047-.1315-.0071-.2333-.0071-.1303-.0047-.2226-.0308-.2759-.0782-.0533-.0497-.09-.1374-.109-.2629-.0249-.1847-.0012-.315.0687-.3884.0699-.0758.2001-.1113.3896-.1066.0332,0,.0959.0047.1847.0118.09.0071.1622.0118.2155.0166h.4796c.1113.0118.1883.0355.2297.0782.0403.0403.0663.1161.0758.2274.0095.1184.0095.2345,0,.3505-.0189.2369-.0071.4808.0367.7271Z"/>
    <path class="cls-1" d="M94.5058,87.8725v.2676c-.0095.1374-.0829.2132-.2179.2274-.2724.0284-.4784.0403-.6194.0355-.7271-.0284-1.2731-.0474-1.6366-.0592-.1457-.0047-.2369-.0213-.2724-.0545-.0367-.0308-.058-.1161-.0628-.2582v-1.6438c0-.9758-.0189-1.6698-.058-2.0807-.0047-.0486-.013-.1196-.0249-.2144s-.0213-.1658-.0261-.2155c-.0142-.1397.0036-.2392.0545-.2984.0509-.0568.1445-.0841.2807-.0793h.1457c.077,0,.1421.0012.193.0036s.0936.0118.1303.0261.0628.0261.0805.0355c.0166.0095.0308.032.0438.0663.0118.0332.0189.0604.0213.0793.0024.0201.0047.058.0071.1172.0024.0568.0059.1042.0107.1374.0391.4417.032.9782-.0213,1.6082-.0249.3434-.0249.6466,0,.9095.0142.1563.0213.3884.0213.6987,0,.1658.0296.2771.0876.3387.058.0592.167.0853.328.0758.1255-.0047.3055-.0047.5377.0047.2333.0071.3861.0095.4583.0095.1409,0,.2475.0095.3209.0284.1397.0308.2132.109.2179.2345Z"/>
    <path class="cls-1" d="M100.1369,84.1255c-.0047.2274-.0024.5282.0071.9048s.0142.7271.0118,1.0516c-.0036.3245-.0213.6277-.0557.9095-.0817.6656-.4216,1.1322-1.0185,1.4045-.4998.2369-1.0019.2913-1.5064.1611-.5909-.1658-1.0114-.5566-1.2577-1.1724-.0734-.1847-.1243-.5092-.1528-.9758-.0249-.3387-.0272-.6703-.0083-.9971v-1.2577c.0047-.0971.0107-.1776.0154-.2404s.0166-.1161.0355-.1599c.0201-.0438.0355-.0758.0474-.0983.013-.0225.0391-.0367.0805-.0474.0414-.0095.0722-.0142.0947-.0142h.302c.1599,0,.2629.0225.3091.0687s.0687.1528.0687.3162c0,.0924-.0036.3719-.0107.8361-.0071.4666-.0059.7461.0036.8385.0095.6442.0272,1.0421.0509,1.1937.0343.2132.1137.3979.2404.5519.257.2961.5459.4334.8657.4145.1895-.0142.3576-.0782.5057-.1895s.2558-.2416.3233-.3932c.0486-.0971.0734-.2676.0734-.5163v-.675c0-.3695.0047-.6537.0142-.8527.0047-.0876.0118-.2274.0225-.4216.0095-.1942.0154-.334.0178-.418.0024-.0853.0012-.2238-.0036-.418-.0047-.1315.0142-.2191.058-.2629.0438-.0426.1338-.0699.2688-.0805.257-.0142.4228.0095.495.0699.0734.0604.1066.2167.1018.4702Z"/>
    <path class="cls-1" d="M104.8373,83.5784c.2037-.0142.3399.0178.4074.0947.0687.0782.0853.2215.0509.4299l-.0213.1161c-.0249.103-.0533.1693-.0876.2001-.0332.0308-.1018.0497-.2037.0545-.2665.0047-.5305.0047-.7923,0-.064,0-.1101.0118-.1386.0355-.0296.0261-.0414.0687-.0367.1326.0047.0332.0071.0829.0071.1445.0047.1658.0107.3979.0189.6963.0071.2984.013.5684.0178.8148.0047.244.0071.4761.0071.694,0,.3979-.0142.7982-.0438,1.2008-.0047.1847-.0793.3198-.225.4026-.1457.0853-.3055.0947-.4808.0261-.1303-.0568-.2013-.1776-.2108-.3553-.0142-.2297-.0213-.4548-.0213-.6774v-.8811c.0047-.1066.0095-.3932.0142-.8621.0047-.4666.0166-.8242.0367-1.0729.0095-.1492-.0012-.2416-.0332-.2724-.032-.0332-.1255-.0474-.2807-.0474l-.5886.0213c-.199,0-.3233-.0557-.3719-.167-.0971-.2238-.0912-.4323.0154-.6265.0237-.0521.0912-.0841.2037-.0947.9699-.0284,1.6532-.0332,2.0511-.0142.2771.0201.5116.0225.7058.0071Z"/>
    <path class="cls-1" d="M109.7567,87.5528c.199.0047.334.0711.4074.199.0722.1279.0604.2819-.0367.4619-.0533.0924-.1528.1468-.2984.1611-.0924.0142-.2972.0166-.6146.0071s-.5223-.0142-.6146-.0142h-1.1499c-.1646,0-.2795-.0403-.3423-.1161-.0628-.0687-.0865-.1516-.0722-.2487.0237-.1895.0213-.4998-.0071-.9308-.0047-.0687-.0071-.4808-.0071-1.2364,0-.874-.0225-1.5289-.0663-1.9659-.0189-.1599-.0024-.27.0509-.3304s.1646-.0959.3351-.1054c.5187-.0391.9285-.0438,1.2293-.0142.1646.0047.2771.0071.3351.0071s.1682-.0047.3304-.0142c.1634-.0107.2736-.0178.3316-.0225.0237-.0047.0628-.0083.1161-.0083s.0947-.0024.1243-.0071c.0722,0,.1279.0154.167.045.0391.0237.0699.0521.0947.0829.0237.0308.0403.0687.0474.109.0071.0414.0118.0758.0142.1066.0024.0284.0036.0687.0036.1184v.1137c.0047.1409-.0817.2274-.2617.2617-.1161.0343-.2226.0438-.3198.0296-.122-.0095-.2487-.0166-.3825-.0189s-.2878,0-.4619.0047-.3032.0071-.3861.0071c-.199,0-.3221.0249-.3707.0758s-.0675.1729-.058.3671c.0095.2226.0095.3884,0,.495-.0095.1018,0,.1682.0284.2013.0296.0308.0924.0497.1895.0545,0,.0047.1267.0071.379.0071l.3849-.0071c.2617,0,.4583.0024.5898.0071.1208.0047.2072.0308.2582.0782.0509.0497.0841.135.0983.2558.0095.0592.0118.1066.0071.1445,0,.1066-.0166.18-.0509.2203-.0343.0379-.1042.0663-.2108.0853-.1113.0213-.238.0308-.379.0308-.2179.0047-.54.0071-.9675.0071-.1551,0-.2582.0261-.3091.0805-.0509.0521-.0711.154-.0616.3055.0047.1255.0166.3103.0367.5519.0142.135.0722.2345.1741.2984.0628.0332.1291.0521.1966.0521.315,0,.6182.0047.9095.0166s.4488.0095.4725-.0095h.1172Z"/>
    <path class="cls-1" d="M116.1517,86.1175c-.0047.1421,0,.3932.0154.7532.0142.3624.0142.6419,0,.8408-.0201.2534-.0391.4382-.058.5542-.0249.1776-.0888.2937-.193.3411s-.2321.0237-.3825-.0734c-.0722-.0379-.1528-.1113-.2404-.2179-.1113-.1303-.3269-.3884-.6466-.7698-.3209-.3837-.5684-.6798-.7425-.8882-.4121-.4808-.6715-.8006-.7792-.9616-.0237-.0284-.0509-.0545-.0793-.0805-.0876-.0521-.1504-.0687-.1895-.0497-.0284.0189-.0438.0734-.0438.1611,0,.4595.0047,1.1464.0154,2.0582,0,.1587-.0083.315-.0225.4666-.0095.09-.0355.1563-.0758.1942-.0414.0403-.1113.064-.2072.0734-.0296,0-.0734.0024-.1315.0071s-.1018.0071-.1315.0071c-.1303,0-.225-.0237-.283-.0758-.058-.0497-.0876-.1397-.0876-.2653,0-.1753-.0083-.4477-.0261-.8219-.0166-.3742-.0225-.6584-.0178-.8527.0095-.315.0166-.7579.0225-1.3264.0047-.5708.0095-.9474.0142-1.1322,0-.0095-.0012-.0462-.0036-.109-.0024-.064-.0024-.1066,0-.1303.0024-.0249.0142-.0545.0355-.0876.0225-.0343.058-.0616.1066-.0805.2321-.0782.4216-.0355.5673.1232.2037.2037.4358.4548.6987.7508.334.3576.6111.6869.829.9877.1942.2676.424.5329.6916.7935.077.0782.1279.1255.1528.1397.0486.0332.0924.0403.1303.0166.0391-.0213.0616-.064.0663-.1255v-2.3437c0-.1504.0189-.2451.058-.2842s.1303-.0604.2759-.0651c.0201-.0047.0486-.0071.0876-.0071.257.0095.4145.0403.4725.0947.0592.0521.0924.2155.1018.4867v1.8984Z"/>
    <path class="cls-1" d="M120.4956,83.3747c.1942,0,.334.0521.4192.1563.0841.1054.1078.2534.0687.4477-.0249.1125-.0947.1871-.2108.2262-.0734.0249-.2191.0414-.437.0509-.1362.0095-.3292.0024-.5815-.0213-.2522-.0249-.4299-.0367-.5317-.0367-.2819-.0047-.45.0201-.5057.077-.0557.0545-.0817.2226-.0758.5045,0,.2226.0071.3884.0213.495.0189.1705.0533.2771.1018.3245.0486.045.1551.0687.3198.0687.238,0,.5992-.0095,1.0848-.0284.0095,0,.0284-.0024.058-.0047s.0486-.0024.058-.0024c.1646,0,.2842.0592.3565.1776.0734.1184.0758.2511.0071.3955-.0438.0971-.1303.1468-.2617.1468-.2084.0047-.5211.0071-.9379.0071-.0545.0047-.1362.0071-.2475.0071h-.2546c-.1125.0095-.1824.0308-.212.0616-.0284.0308-.0426.1018-.0426.2084-.0107.4311.0024.7816.0355,1.054.0201.18.0225.315.0071.4074-.0237.1611-.1208.2511-.2901.27-.0829.0047-.1634.0047-.2404,0-.122-.0095-.2061-.0403-.2546-.0924-.0486-.0497-.0758-.1374-.0805-.2582-.0391-.6774-.0462-1.2956-.0213-1.8474.0047-.0924-.0071-.8053-.0367-2.1388v-.2037c0-.1516.0272-.2582.0805-.3209s.1599-.0912.3198-.0865c.0876.0047.2226.0071.4074.0071h.3494c.4121.0379.8314.0261,1.2589-.0367.058-.0107.148-.0154.2688-.0154Z"/>
    <path class="cls-1" d="M125.4209,86.3733c-.0189.0095-.0462.0261-.0793.0497-.0343.0261-.0557.0403-.0663.045-.0095.0047-.0237.0166-.0426.0332-.0201.0166-.0308.0261-.0332.0284s-.0059.0142-.0107.0332-.0047.0332,0,.0403.0118.0213.0213.0474c.0095.0237.0189.045.0296.0616.0095.0166.0237.045.0438.0829.0722.135.2309.334.4761.5921.2451.2605.4038.4477.4761.5661.0391.0663.0663.1208.0805.1587.1161.2771.0237.4192-.2759.4287-.3257,0-.5282-.0213-.6087-.064-.0793-.045-.1871-.2037-.3233-.4808-.0675-.1445-.2144-.3766-.4405-.694-.225-.3174-.36-.5163-.4038-.5945-.0722-.1208-.1907-.1895-.3565-.2061-.1646-.0166-.2546.0166-.2688.1042-.0189.0924-.0296.1871-.0296.2842l-.0071.5684c-.0047.3766.0047.5661.0296.5661.0237.18.0071.3008-.0509.36-.058.0616-.1824.0924-.3707.0924h-.0225l-.0071.0071c-.2084,0-.3458-.0308-.4109-.0924-.0663-.0592-.1007-.1942-.1054-.4026,0-.0047-.0071-.54-.0225-1.6082v-.4737h-.0071v-1.8759c0-.0876.0024-.1563.0071-.2037.0095-.122.0391-.2061.0876-.2558.0486-.0474.1338-.0817.2546-.1018.0675-.0095.1161-.0142.1457-.0142.2179.0189.5258.0261.9237.0213s.7058-.0024.9237.0071c.4903.0308.8621.2487,1.1144.6561.2665.4405.3754.8385.3269,1.1937-.0533.3719-.3612.7082-.9237,1.0043-.0249.0095-.0486.0213-.0734.0355ZM124.7885,85.7764c.1883-.0047.3505-.0853.4832-.2392.1338-.1563.1954-.3363.1859-.54-.0095-.1634-.0782-.3008-.2037-.4098-.1267-.109-.2866-.1658-.4808-.1717h-.4619c-.2061,0-.3624-.0024-.469-.0071-.0782,0-.1315.0154-.1599.0438-.0296.0332-.0438.09-.0438.1658,0,.0403-.0012.0829-.0036.1279-.0024.0474-.0059.0995-.0107.1563-.0047.0592-.0071.1018-.0071.1326,0,.0189-.0047.1113-.0118.2795s-.0059.2653.0036.2937c0,.0687.0225.1208.0663.154.0189.0189.0486.0284.0865.0284.2428.0095.4026.0142.4808.0142.077,0,.1871-.0047.3269-.0142.1409-.0095.2144-.0142.2191-.0142Z"/>
    <path class="cls-1" d="M130.8709,87.5528c.199.0047.334.0711.4074.199.0722.1279.0604.2819-.0367.4619-.0533.0924-.1528.1468-.2984.1611-.0924.0142-.2972.0166-.6146.0071s-.5223-.0142-.6146-.0142h-1.1499c-.1646,0-.2795-.0403-.3423-.1161-.0628-.0687-.0865-.1516-.0722-.2487.0237-.1895.0213-.4998-.0071-.9308-.0047-.0687-.0071-.4808-.0071-1.2364,0-.874-.0225-1.5289-.0663-1.9659-.0189-.1599-.0024-.27.0509-.3304s.1646-.0959.3351-.1054c.5187-.0391.9285-.0438,1.2293-.0142.1646.0047.2771.0071.3351.0071s.1682-.0047.3304-.0142c.1634-.0107.2736-.0178.3316-.0225.0237-.0047.0628-.0083.1161-.0083s.0947-.0024.1243-.0071c.0722,0,.1279.0154.167.045.0391.0237.0699.0521.0947.0829.0237.0308.0403.0687.0474.109.0071.0414.0118.0758.0142.1066.0024.0284.0036.0687.0036.1184v.1137c.0047.1409-.0817.2274-.2617.2617-.1161.0343-.2226.0438-.3198.0296-.122-.0095-.2487-.0166-.3825-.0189s-.2878,0-.4619.0047-.3032.0071-.3861.0071c-.199,0-.3221.0249-.3707.0758s-.0675.1729-.058.3671c.0095.2226.0095.3884,0,.495-.0095.1018,0,.1682.0284.2013.0296.0308.0924.0497.1895.0545,0,.0047.1267.0071.379.0071l.3849-.0071c.2617,0,.4583.0024.5898.0071.1208.0047.2072.0308.2582.0782.0509.0497.0841.135.0983.2558.0095.0592.0118.1066.0071.1445,0,.1066-.0166.18-.0509.2203-.0343.0379-.1042.0663-.2108.0853-.1113.0213-.238.0308-.379.0308-.2179.0047-.54.0071-.9675.0071-.1551,0-.2582.0261-.3091.0805-.0509.0521-.0711.154-.0616.3055.0047.1255.0166.3103.0367.5519.0142.135.0722.2345.1741.2984.0628.0332.1291.0521.1966.0521.315,0,.6182.0047.9095.0166s.4488.0095.4725-.0095h.1172Z"/>
    <path class="cls-1" d="M133.8979,83.6234c.0332.0971.0462.2155.0355.3553-.0426.4026-.0604.9664-.0509,1.6888.0107.7224.0047,1.2908-.0142,1.703-.0047.0474-.0047.1753,0,.3813s-.0024.334-.0213.3813c-.0201.1018-.045.1705-.077.2013s-.0983.0545-.2001.0687h-.0876c-.193.0095-.3245-.0189-.392-.0876-.064-.0663-.0876-.1895-.0734-.3624.0154-.1658.0213-.3955.0189-.6916s.0012-.5258.0107-.6916c.0047-.1516.0071-.4121.0071-.7863-.0047-.379-.0296-.9664-.0722-1.7598,0-.0047-.0083-.1018-.0225-.2913-.0095-.0782.0166-.1492.0805-.2108.058-.0687.1847-.109.3813-.1243s.3292.0095.3967.0722c.0343.0296.0604.0805.0805.154Z"/>
  </g>
</svg>